<svg xmlns="http://www.w3.org/2000/svg" viewBox="0 0 360.03 56.08"><defs><style>.cls-1{fill:#dcdddd;}.cls-2,.cls-3,.cls-5,.cls-7{fill:none;stroke:#231815;}.cls-2,.cls-7{stroke-miterlimit:10;}.cls-2,.cls-3{stroke-width:0.5px;}.cls-3,.cls-5{stroke-linecap:round;stroke-linejoin:round;}.cls-4{fill:#231815;}.cls-5,.cls-7{stroke-width:0.25px;}.cls-6{fill:#fff;}</style></defs><g id="レイヤー_2" data-name="レイヤー 2"><g id="レイヤー_1-2" data-name="レイヤー 1"><g id="SPLINE"><polygon class="cls-1" points="322.6 19.93 322.6 20.25 322.59 20.57 322.57 20.88 322.52 21.17 322.46 21.45 322.38 21.69 322.29 21.9 322.19 22.06 322.18 22.07 322.07 22.2 321.95 22.28 321.85 22.31 321.84 22.31 321.83 22.31 321.81 22.31 319.42 22.34 319.54 22.3 319.66 22.21 319.76 22.07 319.86 21.9 319.95 21.69 320.03 21.44 320.09 21.17 320.13 20.88 320.16 20.57 320.17 20.26 320.16 19.94 320.14 19.64 320.09 19.34 320.03 19.07 319.96 18.82 319.87 18.6 319.77 18.42 319.66 18.28 319.55 18.18 319.43 18.13 319.36 18.12 321.8 18.13 321.83 18.14 321.84 18.14 321.96 18.18 322.08 18.27 322.19 18.4 322.29 18.58 322.38 18.79 322.46 19.04 322.52 19.32 322.57 19.62 322.6 19.93"/><polygon class="cls-1" points="320.06 20.12 320.06 20.42 320.04 20.71 320.01 20.98 319.95 21.24 319.89 21.48 319.8 21.68 319.71 21.84 319.61 21.96 319.6 21.97 224.03 22.34 224.07 22.32 224.08 22.32 224.15 22.28 224.19 22.26 224.24 22.2 224.29 22.14 224.39 21.99 224.47 21.8 224.5 21.69 224.54 21.57 224.56 21.45 224.59 21.32 224.63 21.05 224.64 20.91 224.65 20.62 224.64 20.48 224.64 20.47 224.64 20.33 224.63 20.26 224.63 20.19 224.59 19.92 224.54 19.66 224.53 19.62 224.51 19.54 224.48 19.45 224.47 19.43 224.39 19.23 224.3 19.07 224.25 19.01 224.2 18.95 224.15 18.92 224.09 18.88 224.07 18.87 224.04 18.86 224.04 18.85 318.9 18.49 319.16 18.49 319.55 18.49 319.61 18.54 319.72 18.67 319.81 18.84 319.89 19.05 319.96 19.29 320.01 19.55 320.04 19.83 320.06 20.12"/><polyline class="cls-2" points="319.55 18.49 319.16 18.49 318.9 18.49 224.04 18.85 224.01 18.85"/><line class="cls-2" x1="224.03" y1="22.34" x2="319.6" y2="21.97"/><line class="cls-2" x1="319.42" y1="22.34" x2="321.81" y2="22.31"/><line class="cls-2" x1="321.8" y1="18.13" x2="319.36" y2="18.12"/><path class="cls-2" d="M322.26,18.47l0-.06a.47.47,0,0,0-.11-.13l-.12-.09h0l-.09,0h0"/><path class="cls-2" d="M321.85,22.31h0a.28.28,0,0,0,.12,0l.11-.08a.46.46,0,0,1,.07-.07"/><path class="cls-2" d="M223.7,22.33h.09"/><path class="cls-2" d="M223.39,22l.09.13a.5.5,0,0,0,.11.1l.11.06"/><path class="cls-2" d="M223.63,18.9l-.1.06a.63.63,0,0,0-.1.12,0,0,0,0,0,0,0"/><line class="cls-2" x1="223.97" y1="18.85" x2="223.79" y2="18.85"/><line class="cls-2" x1="223.8" y1="22.34" x2="223.98" y2="22.34"/><path class="cls-2" d="M222.85,20.92v0c0,.06,0,.12,0,.17l.06.14.06.11h0"/><path class="cls-2" d="M222.82,20.66a.2.2,0,0,1,0,.07"/><path class="cls-2" d="M223.19,19.73h0a.16.16,0,0,0-.09,0,.19.19,0,0,0-.07.06.44.44,0,0,0-.06.1.11.11,0,0,0,0,.08.05.05,0,0,0,0,.05.36.36,0,0,0,0,.1.14.14,0,0,0,0,.06s0,.08,0,.12,0,0,0,.06a1.28,1.28,0,0,0,0,.19v.08"/><polyline class="cls-2" points="223.65 19.72 223.59 19.72 223.24 19.73"/><polyline class="cls-2" points="223.5 21.44 223.57 21.44 223.58 21.44 223.8 21.44 223.82 21.44 223.86 21.44"/><polyline class="cls-2" points="223.2 21.81 223.29 21.81 223.39 21.81"/><path class="cls-2" d="M223,21.44v0"/><path class="cls-2" d="M223,21.38h0v0s0,0,0,0"/><line class="cls-2" x1="223.04" y1="21.46" x2="223.04" y2="21.72"/><line class="cls-2" x1="223.82" y1="21.74" x2="223.82" y2="21.44"/><polyline class="cls-2" points="224.07 18.87 224.04 18.86 223.99 18.85"/><line class="cls-2" x1="224.25" y1="19.01" x2="224.15" y2="18.92"/><polyline class="cls-2" points="224.53 19.62 224.51 19.54 224.48 19.45"/><polyline class="cls-2" points="224.64 20.47 224.64 20.33 224.63 20.26"/><polyline class="cls-2" points="224.64 20.91 224.65 20.62 224.64 20.48"/><line class="cls-2" x1="224.5" y1="21.69" x2="224.56" y2="21.45"/><line class="cls-2" x1="224.15" y1="22.28" x2="224.24" y2="22.2"/><polyline class="cls-2" points="223.98 22.34 224.02 22.34 224.03 22.34 224.07 22.32"/><polyline class="cls-2" points="318.91 21.98 318.96 22.05 319.06 22.19 319.18 22.28 319.3 22.34 319.37 22.34 319.42 22.34 319.54 22.3 319.66 22.21 319.76 22.07 319.86 21.9 319.95 21.69 320.03 21.44 320.09 21.17 320.13 20.88 320.16 20.57 320.17 20.26 320.16 19.94 320.14 19.64 320.09 19.34 320.03 19.07 319.96 18.82 319.87 18.6 319.77 18.42 319.66 18.28 319.55 18.18 319.43 18.13 319.36 18.12 319.31 18.12 319.19 18.17 319.07 18.26 318.96 18.39 318.9 18.49"/><line class="cls-2" x1="321.83" y1="18.14" x2="321.8" y2="18.13"/><polyline class="cls-2" points="321.81 22.31 321.83 22.31 321.84 22.31"/><polyline class="cls-2" points="319.14 21.98 319.16 22 319.28 22.06 319.39 22.07 319.5 22.04 319.6 21.97 319.61 21.96 319.71 21.84 319.8 21.68 319.89 21.48 319.95 21.24 320.01 20.98 320.04 20.71 320.06 20.42 320.06 20.12 320.04 19.83 320.01 19.55 319.96 19.29 319.89 19.05 319.81 18.84 319.72 18.67 319.61 18.54 319.55 18.49 319.51 18.46 319.39 18.42 319.28 18.43 319.17 18.48 319.16 18.49"/><path class="cls-2" d="M320,19.08a.08.08,0,0,0,0,.05"/><path class="cls-2" d="M319.94,19.13a.08.08,0,0,0,0,.05"/><polyline class="cls-2" points="319.96 19.18 319.97 19.18 319.98 19.18 319.98 19.17 319.99 19.15 319.99 19.13 319.99 19.11 319.98 19.09 319.98 19.08 319.97 19.08 319.96 19.08"/><polyline class="cls-2" points="322.27 18.5 322.29 18.54 322.38 18.73 322.47 18.96 322.53 19.21 322.59 19.49 322.62 19.79 322.64 20.09 322.64 20.4 322.62 20.71 322.58 21 322.53 21.28 322.46 21.53 322.38 21.75 322.29 21.9 322.28 21.93 322.19 22.06"/><polyline class="cls-2" points="223.79 18.85 223.9 18.88 223.95 18.91"/><line class="cls-2" x1="223.87" y1="22.33" x2="223.8" y2="22.34"/><polyline class="cls-2" points="223.65 18.89 223.68 18.87 223.78 18.85 223.79 18.85"/><polyline class="cls-2" points="223.98 22.15 224.04 22.07 224.13 21.92 224.21 21.72 224.28 21.5 224.32 21.24 224.36 20.97 224.37 20.69 224.37 20.41 224.34 20.13 224.3 19.86 224.25 19.62 224.18 19.4 224.09 19.22 224 19.08 223.9 18.98"/><path class="cls-2" d="M223.41,19.14a1.72,1.72,0,0,0-.23.58"/><polyline class="cls-2" points="223.29 21.81 223.32 21.89 223.38 22"/><polyline class="cls-2" points="223.97 18.85 223.98 18.85 223.99 18.85 224.07 18.87 224.09 18.88 224.15 18.92 224.2 18.95 224.25 19.01 224.3 19.07 224.39 19.23 224.47 19.43 224.48 19.45 224.53 19.62 224.54 19.66 224.59 19.92 224.63 20.19 224.63 20.26 224.64 20.47 224.64 20.48 224.64 20.76 224.64 20.91 224.63 21.05 224.59 21.32 224.56 21.45 224.54 21.57 224.5 21.69 224.47 21.8 224.39 21.99 224.29 22.14 224.24 22.2 224.19 22.26 224.15 22.28 224.08 22.32 224.07 22.32 223.98 22.34"/><path class="cls-2" d="M223.6,21.8h0"/><path class="cls-2" d="M223.6,21.8a.21.21,0,0,0,.26,0"/><path class="cls-2" d="M223.87,21.77h0"/><line class="cls-2" x1="223.87" y1="21.77" x2="223.87" y2="21.47"/><polyline class="cls-2" points="223.89 19.76 223.96 19.87 224.02 20.03 224.06 20.22 224.08 20.42 224.09 20.64 224.08 20.85 224.05 21.05 224 21.23 223.94 21.37"/><line class="cls-2" x1="223.59" y1="21.46" x2="223.59" y2="21.76"/><line class="cls-2" x1="223.19" y1="19.73" x2="223.2" y2="19.73"/><path class="cls-2" d="M223.51,21.41a0,0,0,0,0,0,0"/><line class="cls-2" x1="223.66" y1="19.72" x2="223.65" y2="19.72"/><line class="cls-2" x1="223.52" y1="21.4" x2="223.81" y2="21.4"/><polygon class="cls-2" points="223.13 21.14 223.07 21.11 223.02 21.04 222.97 20.93 222.94 20.79 222.93 20.63 222.94 20.47 222.96 20.33 223 20.2 223.05 20.12 223.11 20.07 223.17 20.07 223.23 20.12 223.28 20.21 223.31 20.34 223.34 20.49 223.34 20.65 223.33 20.8 223.29 20.94 223.25 21.05 223.19 21.11 223.13 21.14"/><path class="cls-2" d="M223.87,21.47v0h0s0,0,0,0h0"/><path class="cls-2" d="M223.58,21.44a0,0,0,0,1,0,0"/><path class="cls-2" d="M223.31,21.47v0s0,0,0,0"/><path class="cls-2" d="M223.51,21.41h0s0,0,0,0v0h0"/><line class="cls-2" x1="223.31" y1="21.47" x2="223.31" y2="21.73"/><path class="cls-2" d="M223.29,21.79a.14.14,0,0,0,0-.06"/><path class="cls-2" d="M223.29,21.79h.19"/><path class="cls-2" d="M223.5,21.73v0s0,0,0,0a0,0,0,0,1,0,0h0"/><line class="cls-2" x1="223.5" y1="21.73" x2="223.5" y2="21.47"/><path class="cls-2" d="M223.1,21.79a.18.18,0,0,0,.1,0l.09,0"/><path class="cls-2" d="M223.07,21.78h0"/><path class="cls-2" d="M223.39,21.81l.09,0"/><polyline class="cls-2" points="223.59 21.76 223.71 21.76 223.8 21.76"/><polyline class="cls-2" points="322.6 20.25 322.6 19.93 322.57 19.62 322.52 19.32 322.46 19.04 322.38 18.79 322.29 18.58 322.19 18.4 322.08 18.27 321.96 18.18 321.84 18.14 321.83 18.14"/><polyline class="cls-2" points="321.84 22.31 321.85 22.31 321.95 22.28 322.07 22.2 322.18 22.07 322.19 22.06 322.29 21.9 322.38 21.69 322.46 21.45 322.52 21.17 322.57 20.88 322.59 20.57 322.6 20.25"/><polyline class="cls-2" points="223.95 18.91 224.01 18.96 224.11 19.08 224.2 19.24 224.28 19.43 224.35 19.66 224.4 19.92 224.44 20.19 224.46 20.48 224.46 20.76 224.44 21.05 224.4 21.32 224.35 21.57 224.28 21.8 224.2 21.99 224.11 22.14 224.01 22.25 223.9 22.32 223.87 22.33"/><path class="cls-2" d="M223.73,22.27a.33.33,0,0,0,.25-.12"/><polyline class="cls-2" points="223.9 18.98 223.89 18.98 223.79 18.93 223.68 18.93 223.57 18.97 223.47 19.06 223.41 19.14"/><path class="cls-2" d="M223.38,22a.49.49,0,0,0,.35.27"/><polyline class="cls-2" points="223.59 19.72 223.65 19.67 223.73 19.65 223.81 19.68 223.89 19.76"/><line class="cls-2" x1="223.94" y1="21.37" x2="223.87" y2="21.47"/><polyline class="cls-2" points="223.2 19.73 223.21 19.73 223.24 19.73 223.32 19.79 223.39 19.88 223.45 20.02 223.49 20.19 223.52 20.39 223.53 20.59 223.52 20.8 223.5 21 223.45 21.17 223.39 21.31 223.33 21.41"/><polyline class="cls-2" points="223.81 21.4 223.88 21.29 223.93 21.15 223.97 20.98 224 20.78 224 20.57 223.99 20.37 223.96 20.18 223.92 20.01 223.86 19.87 223.79 19.78 223.71 19.73 223.66 19.72"/><polyline class="cls-2" points="223.28 21.31 223.32 21.25 223.38 21.11 223.42 20.94 223.44 20.75 223.44 20.55 223.43 20.35 223.4 20.17 223.35 20.02 223.28 19.9 223.28 19.89"/><path class="cls-2" d="M223.25,21.36a.18.18,0,0,0,.07.05h0"/><polyline class="cls-2" points="223.33 21.41 223.45 21.41 223.51 21.41"/><path class="cls-2" d="M223.05,21.46v0h0v-.07l0,0"/><path class="cls-2" d="M223.25,21.35h0s0,0,0,0v0s0,0,0,0"/><line class="cls-2" x1="223.22" y1="21.73" x2="223.22" y2="21.47"/><path class="cls-2" d="M223,21.72a.19.19,0,0,0,.18,0"/><line class="cls-2" x1="223.05" y1="21.46" x2="223.04" y2="21.72"/><path class="cls-2" d="M223.22,21.47h.09"/><path class="cls-2" d="M223.31,21.47h.19"/><path class="cls-2" d="M223.22,21.73h.09"/><path class="cls-2" d="M223.22,21.73a.07.07,0,0,0,.07.06"/><path class="cls-2" d="M223.31,21.73h.19"/><line class="cls-2" x1="223.25" y1="21.35" x2="223.28" y2="21.31"/><polyline class="cls-2" points="223.28 19.89 223.21 19.82 223.14 19.79 223.06 19.82 222.99 19.89 222.93 20 222.88 20.15 222.84 20.33 222.83 20.53 222.83 20.73 222.85 20.92 222.89 21.09 222.95 21.24 223.01 21.34"/><path class="cls-2" d="M223,21.34a.08.08,0,0,0,0,0"/><path class="cls-2" d="M223,21.72a.07.07,0,0,0,0,.06"/><path class="cls-3" d="M223,21.46h0"/><line class="cls-2" x1="223.83" y1="21.76" x2="223.82" y2="21.76"/><polyline class="cls-2" points="223.82 21.74 223.82 21.75 223.83 21.76"/><polyline class="cls-2" points="223.81 21.8 223.73 21.8 223.6 21.8"/><path class="cls-2" d="M223.81,21.8h.05a0,0,0,0,1,0,0"/><path class="cls-2" d="M223.83,21.76h0"/><path class="cls-2" d="M223.8,21.76a.06.06,0,0,0,0,0"/><line class="cls-2" x1="223.59" y1="21.46" x2="223.57" y2="21.44"/><line class="cls-2" x1="223.8" y1="21.76" x2="223.8" y2="21.44"/><path class="cls-2" d="M223.82,21.75h0"/></g><path class="cls-4" d="M343.06,38.84a.86.86,0,0,0-.14.38c0,.09,0,.14-.06.15a.27.27,0,0,1-.13,0c-1,.07-2,.1-2.83.1a5,5,0,0,1-2-.26,1.62,1.62,0,0,1-.77-.8,10.44,10.44,0,0,1-.86.79l-.17.16s-.06.07-.09.07a.12.12,0,0,1-.1-.06,3.45,3.45,0,0,1-.23-.43,3.34,3.34,0,0,0,.49-.29A5.16,5.16,0,0,0,337,38V36h-1.14c-.05,0-.07,0-.07-.06v-.35s0-.07.07-.07l.55,0h.43l.58,0a.05.05,0,0,1,.06.06V38a1.33,1.33,0,0,0,.69.79,4.08,4.08,0,0,0,1.59.2C340.79,39,341.91,39,343.06,38.84ZM337.38,34l0,0s0,0-.07.08l-.22.15-.1.06-.05,0a6,6,0,0,0-.88-1.16l0,0s0,0,.07-.08l.19-.13a.21.21,0,0,1,.09-.05.05.05,0,0,1,0,0A6,6,0,0,1,337.38,34Zm4.88,4.17c0,.05,0,.07-.06.07l-1,0h-1.65l-1.09,0c-.05,0-.07,0-.07-.07l0-1.09V34.64l0-1.11s0-.06.07-.06h1.21a5.44,5.44,0,0,0,.3-.65,1.36,1.36,0,0,0,.1-.36,2.25,2.25,0,0,1,.49.1c.06,0,.08,0,.08.08a.16.16,0,0,1-.05.11.4.4,0,0,0-.13.16c-.1.2-.2.38-.31.56h1.82c.05,0,.07,0,.07.06l0,.62v.54l0,.63s0,.06-.07.06l-1,0h-2.1v.9h3.35a.05.05,0,0,1,.06.06v1.85ZM341.51,35V33.9h-2.66V35Zm.26,2.85V36.68h-2.92V37.8Z"/><path class="cls-4" d="M348,34.27c0,.17,0,.4,0,.71a25.52,25.52,0,0,1-.24,3.56c-.08.56-.37.85-.86.85a4.89,4.89,0,0,1-.54,0,.18.18,0,0,1-.13,0,.41.41,0,0,1,0-.14.72.72,0,0,0-.1-.35,4,4,0,0,0,.76.07.37.37,0,0,0,.31-.14,1,1,0,0,0,.13-.44,24.58,24.58,0,0,0,.22-3.66h-1.14a12.43,12.43,0,0,1-.3,2.22,6.41,6.41,0,0,1-.48,1.39,5.73,5.73,0,0,1-.73,1.11c-.05.06-.09.09-.11.09a.25.25,0,0,1-.09-.08,1.47,1.47,0,0,0-.32-.3,4.56,4.56,0,0,0,.85-1.18,6,6,0,0,0,.42-1.21,9.52,9.52,0,0,0,.27-2h-.27l-.95,0s-.06,0-.06-.07v-.34s0-.07.06-.07l.95,0h.3v-.74a7.09,7.09,0,0,0-.05-1,4.68,4.68,0,0,1,.55,0c.06,0,.09,0,.09.08a1,1,0,0,1-.05.17,3.68,3.68,0,0,0-.05.74c0,.16,0,.38,0,.68H347l1,0A.06.06,0,0,1,348,34.27Zm3.35,5a.05.05,0,0,1-.06.06h-.38s-.05,0-.05-.06v-.59H349.2v.65a.05.05,0,0,1-.06.06h-.36s-.07,0-.07-.06l0-2.44V35.51l0-1.84s0-.06.07-.06h2.51a.05.05,0,0,1,.06.06V39.3Zm-.49-1V34.05H349.2v4.22Z"/><path class="cls-4" d="M356.4,33.7a.06.06,0,0,1-.07.07l-.82,0h-.26a5.47,5.47,0,0,1,.41.89v0s0,0-.1,0l-.27.07-.08,0s0,0,0,0a5.49,5.49,0,0,0-.43-1h-.57a6.94,6.94,0,0,1-.75.89c-.05,0-.09.08-.12.08s-.06,0-.11-.09a.62.62,0,0,0-.25-.19,5.82,5.82,0,0,0,.75-.81,5.5,5.5,0,0,0,.44-.76,1.73,1.73,0,0,0,.11-.37l.48.11q.09,0,.09.09s0,.07-.07.11a.52.52,0,0,0-.13.18l-.19.35h1.08l.82,0a.06.06,0,0,1,.07.07Zm3.6,3.61s0,.06-.07.06h-3.2v1l0,1.27s0,.05-.06.05h-.41s0,0,0-.05v-2.3h-3c-.05,0-.07,0-.07-.06V37c0-.05,0-.07.07-.07l1.05,0h2V35.65h-1.11l-1.13,0a.05.05,0,0,1-.06-.06v-.35s0-.07.06-.07h5.11c.05,0,.07,0,.07.07v.35s0,.06-.07.06l-1.12,0h-1.26V36.9h2.15l1.05,0A.06.06,0,0,1,360,37Zm0-3.61s0,.07-.06.07l-1,0h-.62a7.12,7.12,0,0,1,.4.88v0s0,.05-.08.07l-.28.07h-.08s0,0-.05-.05a5.81,5.81,0,0,0-.42-1h-.7a5.12,5.12,0,0,1-.59.84c0,.06-.08.09-.1.09a.29.29,0,0,1-.13-.09.89.89,0,0,0-.25-.16,4,4,0,0,0,1-1.54,1.82,1.82,0,0,0,.09-.37,4,4,0,0,1,.46.11c.07,0,.1,0,.1.08a.17.17,0,0,1-.06.11.83.83,0,0,0-.15.24,1.92,1.92,0,0,1-.13.28H359l1,0s.06,0,.06.07Z"/><polyline class="cls-5" points="332.57 35.89 319.76 35.89 306.72 48.85"/><polygon class="cls-4" points="306.52 47.81 304.83 50.72 307.75 49.05 306.52 47.81"/><path class="cls-4" d="M343.06,6.37a.86.86,0,0,0-.14.38c0,.09,0,.14-.06.15s-.06,0-.13,0c-1,.06-2,.09-2.83.09a5,5,0,0,1-2-.26,1.62,1.62,0,0,1-.77-.8,10.44,10.44,0,0,1-.86.79l-.17.16S336.07,7,336,7a.12.12,0,0,1-.1-.06,4.16,4.16,0,0,1-.23-.42,4.41,4.41,0,0,0,.49-.3,5.16,5.16,0,0,0,.75-.66v-2h-1.14c-.05,0-.07,0-.07-.06V3.17s0-.07.07-.07l.55,0h.43l.58,0a.05.05,0,0,1,.06.06V5.55a1.3,1.3,0,0,0,.69.79,4.08,4.08,0,0,0,1.59.2C340.79,6.54,341.91,6.48,343.06,6.37Zm-5.68-4.85s0,0,0,0,0,.05-.07.08l-.22.15a.29.29,0,0,1-.1.06l-.05,0a5.61,5.61,0,0,0-.88-1.15l0,0s0,0,.07-.08l.19-.13a.21.21,0,0,1,.09,0,.05.05,0,0,1,0,0A6,6,0,0,1,337.38,1.52Zm4.88,4.18a.05.05,0,0,1-.06.06l-1,0h-1.65l-1.09,0c-.05,0-.07,0-.07-.06l0-1.09V2.17l0-1.11s0-.06.07-.06l1.07,0h.14a6.42,6.42,0,0,0,.3-.66A1.36,1.36,0,0,0,340,0a2.29,2.29,0,0,1,.49.11c.06,0,.08,0,.08.07a.16.16,0,0,1-.05.11.4.4,0,0,0-.13.16c-.1.2-.2.39-.31.57H341l1,0c.05,0,.07,0,.07.06l0,.62v.54l0,.63s0,.06-.07.06l-1,0h-2.1v.9h3.35a.05.05,0,0,1,.06.06V5.7Zm-.75-3.22v-1h-2.66V2.48Zm.26,2.85V4.21h-2.92V5.33Z"/><path class="cls-4" d="M348,1.8c0,.17,0,.4,0,.71a25.52,25.52,0,0,1-.24,3.56c-.08.56-.37.85-.86.85a4.89,4.89,0,0,1-.54,0,.27.27,0,0,1-.13,0,.61.61,0,0,1,0-.15.76.76,0,0,0-.1-.35,4,4,0,0,0,.76.07.37.37,0,0,0,.31-.14,1,1,0,0,0,.13-.43,24.84,24.84,0,0,0,.22-3.67h-1.14a12.43,12.43,0,0,1-.3,2.22,6.41,6.41,0,0,1-.48,1.39,5.73,5.73,0,0,1-.73,1.11c-.05.06-.09.09-.11.09a.25.25,0,0,1-.09-.08,1.47,1.47,0,0,0-.32-.3,4.69,4.69,0,0,0,.85-1.17,6.38,6.38,0,0,0,.42-1.22,9.52,9.52,0,0,0,.27-2h-.27l-.95,0s-.06,0-.06-.07V1.8s0-.07.06-.07l.95,0h.3V1a7.16,7.16,0,0,0-.05-1,4.68,4.68,0,0,1,.55.05c.06,0,.09,0,.09.08a1.37,1.37,0,0,1-.05.18,3.49,3.49,0,0,0-.05.73c0,.16,0,.38,0,.68H347l1,0A.06.06,0,0,1,348,1.8Zm3.35,5a.05.05,0,0,1-.06.06h-.38s-.05,0-.05-.06V6.24H349.2v.65a.05.05,0,0,1-.06.06h-.36s-.07,0-.07-.06l0-2.44V3l0-1.84s0-.06.07-.06h2.51a.05.05,0,0,1,.06.06V6.83Zm-.49-1V1.59H349.2V5.8Z"/><path class="cls-4" d="M356.4,1.23a.06.06,0,0,1-.07.07l-.82,0h-.26a5.47,5.47,0,0,1,.41.89s0,0,0,0,0,0-.1.06l-.27.07h-.08s0,0,0-.05a5.49,5.49,0,0,0-.43-1h-.57a6.94,6.94,0,0,1-.75.89c-.05.05-.09.08-.12.08s-.06,0-.11-.09A.62.62,0,0,0,353,2a5.82,5.82,0,0,0,.75-.81,5.5,5.5,0,0,0,.44-.76,1.58,1.58,0,0,0,.11-.37l.48.11c.06,0,.09,0,.09.09s0,.07-.07.11a.52.52,0,0,0-.13.18l-.19.35h1.9c.05,0,.07,0,.07.06ZM360,4.84s0,.06-.07.06h-3.2v1l0,1.27a.05.05,0,0,1-.06.06h-.41s0,0,0-.06V4.89h-3c-.05,0-.07,0-.07-.06V4.48c0-.05,0-.07.07-.07l1.05,0h2V3.18h-1.11L354,3.2a.05.05,0,0,1-.06-.06V2.79s0-.07.06-.07h5.11c.05,0,.07,0,.07.07v.35s0,.06-.07.06l-1.12,0h-1.26V4.43h2.15l1.05,0a.06.06,0,0,1,.07.07Zm0-3.61s0,.07-.06.07l-1,0h-.62a7.12,7.12,0,0,1,.4.88s0,0,0,0,0,0-.08.06l-.28.07h-.08s0,0-.05,0a5.81,5.81,0,0,0-.42-1h-.7a5.12,5.12,0,0,1-.59.84c0,.06-.08.09-.1.09a.29.29,0,0,1-.13-.09.89.89,0,0,0-.25-.16,4,4,0,0,0,1-1.54,1.82,1.82,0,0,0,.09-.37,4,4,0,0,1,.46.11c.07,0,.1,0,.1.09a.18.18,0,0,1-.06.1.83.83,0,0,0-.15.24,1.92,1.92,0,0,1-.13.28H360a.05.05,0,0,1,.06.06Z"/><polyline class="cls-5" points="332.57 3.42 319.76 3.42 306.72 16.38"/><polygon class="cls-4" points="306.52 15.34 304.83 18.25 307.75 16.58 306.52 15.34"/><g id="ARC"><polygon class="cls-1" points="322.6 52.21 322.6 52.52 322.59 52.84 322.57 53.15 322.52 53.45 322.46 53.72 322.38 53.97 322.29 54.17 322.19 54.34 322.18 54.35 322.07 54.47 321.95 54.55 321.85 54.58 321.84 54.58 321.83 54.59 321.81 54.59 319.42 54.62 319.42 54.61 319.54 54.57 319.66 54.48 319.76 54.35 319.86 54.17 319.95 53.96 320.03 53.72 320.09 53.45 320.13 53.16 320.16 52.85 320.17 52.53 320.16 52.22 320.14 51.91 320.09 51.62 320.03 51.34 319.96 51.09 319.87 50.87 319.77 50.69 319.66 50.55 319.55 50.45 319.43 50.4 319.43 50.39 321.8 50.41 321.83 50.41 321.84 50.41 321.9 50.43 321.96 50.45 322.08 50.54 322.19 50.68 322.29 50.85 322.38 51.07 322.46 51.32 322.52 51.59 322.57 51.89 322.6 52.21"/><polygon class="cls-1" points="320.06 52.4 320.06 52.69 320.04 52.98 320.01 53.26 319.95 53.52 319.89 53.75 319.8 53.95 319.71 54.12 319.61 54.24 319.6 54.25 319.14 54.25 318.91 54.25 231.93 54.58 231.97 54.51 232.06 54.3 232.14 54.05 232.2 53.78 232.24 53.49 232.27 53.18 232.28 52.87 232.27 52.56 232.24 52.25 232.2 51.95 232.14 51.68 232.07 51.43 231.98 51.21 231.92 51.1 318.9 50.76 319.16 50.76 319.54 50.76 319.55 50.76 319.61 50.82 319.72 50.95 319.81 51.12 319.89 51.32 319.96 51.56 320.01 51.82 320.04 52.11 320.06 52.4"/><line class="cls-2" x1="230.91" y1="55.04" x2="231.42" y2="55.02"/><polyline class="cls-2" points="231.41 50.67 230.92 50.65 230.86 50.65"/><path class="cls-2" d="M231.51,50.69l-.09,0h0"/><path class="cls-2" d="M231.85,51l-.06-.09-.12-.11-.06,0"/><path class="cls-2" d="M231.59,55a.3.3,0,0,0,.11-.06.43.43,0,0,0,.11-.12l.05-.06"/><path class="cls-2" d="M231.42,55h0a.28.28,0,0,0,.12,0"/><polyline class="cls-2" points="319.54 50.76 319.16 50.76 318.9 50.76 231.92 51.1"/><polyline class="cls-2" points="231.93 54.58 318.91 54.25 319.14 54.25 319.6 54.25"/><polyline class="cls-2" points="319.37 54.62 319.42 54.62 321.81 54.59"/><polyline class="cls-2" points="321.8 50.41 319.43 50.39 319.36 50.39"/><path class="cls-2" d="M320,51.35s0,0,0,0"/><path class="cls-2" d="M319.94,51.4a.08.08,0,0,0,0,.05"/><path class="cls-2" d="M322.26,50.74l0-.06a.69.69,0,0,0-.11-.13l-.12-.09h0l-.06,0"/><path class="cls-2" d="M321.85,54.58h0a.28.28,0,0,0,.12,0,.38.38,0,0,0,.11-.08l.07-.07"/><path class="cls-2" d="M1.07,51.64H1a.28.28,0,0,0-.12,0l-.12.07-.09.11"/><path class="cls-2" d="M.76,55.65l0,0a.6.6,0,0,0,.13.09l.11,0h.07"/><line class="cls-2" x1="3.51" y1="51.6" x2="1.12" y2="51.64"/><polyline class="cls-2" points="1.12 55.81 1.32 55.81 3.53 55.83"/><path class="cls-2" d="M1.86,55.28h0"/><path class="cls-2" d="M1.77,55.37h0a.08.08,0,0,1,0,0l0,0,0,0"/><path class="cls-2" d="M1.35,55.79h0l.12-.07.11-.12.06-.08a.43.43,0,0,0,0-.07l0-.06h0"/><line class="cls-2" x1="0.9" y1="52.23" x2="0.87" y2="52.23"/><polyline class="cls-2" points="105.31 51.58 104.98 51.58 104.89 51.58 104.65 51.58 3.98 51.97"/><polyline class="cls-2" points="3.99 55.46 104.66 55.07 104.9 55.07 104.99 55.07 105.32 55.07"/><line class="cls-2" x1="105.72" y1="51.15" x2="105.13" y2="51.17"/><line class="cls-2" x1="105.21" y1="55.48" x2="105.73" y2="55.5"/><polyline class="cls-2" points="230.84 50.7 230.67 50.7 105.87 51.18"/><polyline class="cls-2" points="105.89 55.47 230.68 54.99 230.86 54.99"/><polyline class="cls-2" points="230.67 50.7 230.79 50.65 230.92 50.66 231.04 50.71 231.16 50.81 231.28 50.96 231.38 51.15 231.47 51.37 231.55 51.63 231.61 51.92 231.66 52.23 231.69 52.55 231.69 52.87 231.68 53.2 231.66 53.52 231.61 53.82 231.55 54.11 231.47 54.36 231.37 54.58 231.27 54.76 231.16 54.9 231.04 54.99 230.91 55.04 230.87 55.04 230.79 55.03 230.68 54.99"/><line class="cls-2" x1="231.42" y1="55.02" x2="231.43" y2="55.02"/><polyline class="cls-2" points="231.86 51.01 231.88 51.03 231.92 51.1 231.98 51.21 232.07 51.43 232.14 51.68 232.2 51.95 232.24 52.25 232.27 52.56 232.28 52.87 232.27 53.18 232.24 53.49 232.2 53.78 232.14 54.05 232.06 54.3 231.97 54.51 231.93 54.58 231.87 54.68 231.87 54.69"/><polyline class="cls-2" points="318.91 54.25 318.96 54.32 319.06 54.46 319.18 54.56 319.3 54.61 319.42 54.61 319.54 54.57 319.66 54.48 319.76 54.35 319.86 54.17 319.95 53.96 320.03 53.72 320.09 53.45 320.13 53.16 320.16 52.85 320.17 52.53 320.16 52.22 320.14 51.91 320.09 51.62 320.03 51.34 319.96 51.09 319.87 50.87 319.77 50.69 319.66 50.55 319.55 50.45 319.43 50.4 319.31 50.4 319.19 50.44 319.07 50.53 318.96 50.66 318.9 50.76"/><line class="cls-2" x1="321.83" y1="50.41" x2="321.8" y2="50.41"/><polyline class="cls-2" points="321.81 54.59 321.83 54.59 321.84 54.58"/><polyline class="cls-2" points="319.14 54.25 319.16 54.27 319.28 54.33 319.39 54.35 319.5 54.32 319.6 54.25 319.61 54.24 319.71 54.12 319.8 53.95 319.89 53.75 319.95 53.52 320.01 53.26 320.04 52.98 320.06 52.69 320.06 52.4 320.04 52.11 320.01 51.82 319.96 51.56 319.89 51.32 319.81 51.12 319.72 50.95 319.61 50.82 319.55 50.76 319.54 50.76 319.51 50.73 319.39 50.69 319.28 50.7 319.17 50.75 319.16 50.76"/><polyline class="cls-2" points="319.96 51.45 319.97 51.46 319.98 51.45 319.98 51.44 319.99 51.43 319.99 51.4 319.99 51.38 319.98 51.37 319.98 51.35 319.97 51.35 319.96 51.35"/><polyline class="cls-2" points="322.27 50.77 322.29 50.81 322.38 51.01 322.47 51.23 322.53 51.49 322.59 51.77 322.62 52.06 322.64 52.37 322.64 52.68 322.62 52.98 322.58 53.28 322.53 53.55 322.46 53.8 322.38 54.02 322.28 54.21 322.19 54.34"/><line class="cls-2" x1="1.11" y1="55.81" x2="1.09" y2="55.81"/><line class="cls-2" x1="1.07" y1="51.64" x2="1.12" y2="51.64"/><polyline class="cls-2" points="0.25 53.7 0.26 54.01 0.28 54.31 0.33 54.6 0.39 54.87 0.46 55.11 0.55 55.32 0.65 55.49 0.75 55.62"/><polyline class="cls-2" points="1.28 55.64 1.34 55.58 1.44 55.44 1.54 55.25 1.62 55.03 1.69 54.78 1.74 54.51 1.78 54.21 1.8 53.91 1.8 53.6 1.78 53.29 1.74 53 1.69 52.72 1.62 52.46 1.54 52.23 1.45 52.04 1.34 51.89 1.23 51.78"/><polyline class="cls-2" points="0.67 51.91 0.66 51.94 0.56 52.1 0.47 52.3 0.39 52.54 0.33 52.8 0.29 53.09 0.26 53.39 0.25 53.7"/><polyline class="cls-2" points="3.51 51.6 3.59 51.61 3.71 51.66 3.83 51.76 3.93 51.9 3.97 51.97 4.03 52.08 4.12 52.3 4.2 52.55 4.26 52.83 4.3 53.12 4.33 53.43 4.33 53.74 4.33 54.06 4.3 54.37 4.25 54.66 4.19 54.93 4.12 55.17 4.03 55.39 3.99 55.46 3.93 55.56 3.82 55.69 3.7 55.78 3.58 55.82 3.53 55.83"/><path class="cls-2" d="M1.91,55.26H1.85l0,0,0,0a.18.18,0,0,0-.05.07"/><path class="cls-2" d="M1.32,55.81h0a.74.74,0,0,0,.37-.39"/><line class="cls-2" x1="1.75" y1="55.81" x2="1.32" y2="55.81"/><path class="cls-2" d="M1.75,55.81a.74.74,0,0,0,.41-.42"/><path class="cls-2" d="M2.09,55.26h.06v0h0v.09"/><line class="cls-2" x1="1.91" y1="55.26" x2="2.09" y2="55.26"/><polyline class="cls-2" points="0.75 52.62 0.7 52.4 0.69 52.38"/><line class="cls-2" x1="0.69" y1="52.38" x2="0.67" y2="52.4"/><line class="cls-2" x1="0.67" y1="52.4" x2="0.74" y2="52.69"/><polyline class="cls-2" points="0.74 52.69 0.78 52.62 0.8 52.59"/><line class="cls-2" x1="0.8" y1="52.59" x2="0.79" y2="52.55"/><line class="cls-2" x1="0.79" y1="52.55" x2="0.75" y2="52.62"/><line class="cls-2" x1="1.36" y1="52.35" x2="1.3" y2="52.6"/><line class="cls-2" x1="1.3" y1="52.6" x2="1.46" y2="52.69"/><polyline class="cls-2" points="1.46 52.69 1.45 52.65 1.39 52.47 1.36 52.35"/><line class="cls-2" x1="1.21" y1="52.2" x2="1.19" y2="52.19"/><line class="cls-2" x1="1.19" y1="52.19" x2="1.14" y2="52.28"/><path class="cls-2" d="M1.14,52.28h0"/><polyline class="cls-2" points="1.13 52.31 1.13 52.29 1.14 52.16"/><line class="cls-2" x1="1.14" y1="52.16" x2="1.12" y2="52.14"/><line class="cls-2" x1="1.12" y1="52.14" x2="1.09" y2="52.47"/><line class="cls-2" x1="1.09" y1="52.47" x2="1.11" y2="52.48"/><polyline class="cls-2" points="1.11 52.48 1.11 52.47 1.12 52.36"/><line class="cls-2" x1="1.12" y1="52.36" x2="1.14" y2="52.34"/><line class="cls-2" x1="1.14" y1="52.34" x2="1.16" y2="52.51"/><line class="cls-2" x1="1.16" y1="52.51" x2="1.18" y2="52.53"/><polyline class="cls-2" points="1.18 52.53 1.18 52.51 1.15 52.34 1.15 52.31"/><polyline class="cls-2" points="1.15 52.31 1.17 52.28 1.21 52.2"/><path class="cls-2" d="M.8,52.4s0,.06,0,.08,0,0,0,0,0,0,0,0h0"/><path class="cls-2" d="M.88,52.52a0,0,0,0,0,0,0s0,0,0,0h0a0,0,0,0,0,0,0s0,0,0,0v-.12"/><line class="cls-2" x1="0.86" y1="52.18" x2="0.86" y2="52.19"/><path class="cls-2" d="M.92,52.31a.64.64,0,0,0,0-.07h0v0s0,0,0,0h0"/><path class="cls-2" d="M.84,52.19a0,0,0,0,1,0,0v0s0,0,0,0v.1"/><path class="cls-2" d="M1,52.42H1s0,0,0,0,0,0,0,0,0,0,0,0v0"/><path class="cls-2" d="M1,52.3v-.06a0,0,0,0,0,0,0v0H1"/><path class="cls-2" d="M1,52.16s0,0,0,0h0"/><line class="cls-2" x1="1.06" y1="52.14" x2="1.06" y2="52.13"/><line class="cls-2" x1="1.05" y1="52.17" x2="1.05" y2="52.16"/><path class="cls-2" d="M1.06,52.13h0a0,0,0,0,0,0,0H1"/><path class="cls-2" d="M1,52.12H1s0,0,0,0v0a0,0,0,0,0,0,0v.06"/><path class="cls-2" d="M1,52.3a.19.19,0,0,0,0,.08.06.06,0,0,0,0,0s0,0,0,0H1"/><path class="cls-2" d="M1,52.46h0"/><polyline class="cls-2" points="1.06 52.45 1.06 52.42 1.06 52.41"/><path class="cls-2" d="M1.06,52.41h0a0,0,0,0,1,0,0"/><path class="cls-2" d="M1.9,55.28a0,0,0,0,0,0,0"/><path class="cls-2" d="M2.08,55.28s0,0,0,0"/><polyline class="cls-2" points="2.08 55.28 1.99 55.28 1.98 55.28 1.9 55.28 1.89 55.28"/><path class="cls-2" d="M2.08,55.34a.08.08,0,0,0,.08,0"/><path class="cls-2" d="M2.08,55.28h0v0s0,0,0,0"/><line class="cls-2" x1="2.08" y1="55.34" x2="2.03" y2="55.34"/><line class="cls-2" x1="1.36" y1="52.6" x2="1.3" y2="52.6"/><line class="cls-2" x1="1.36" y1="52.6" x2="1.45" y2="52.65"/><line class="cls-2" x1="1.39" y1="52.47" x2="1.36" y2="52.6"/><path class="cls-2" d="M1.75,55.81H1.7v0"/><path class="cls-2" d="M1.69,55.74a.7.7,0,0,0,.39-.4"/><line class="cls-2" x1="1.69" y1="55.74" x2="1.69" y2="55.51"/><line class="cls-2" x1="1.17" y1="52.28" x2="1.14" y2="52.28"/><line class="cls-2" x1="1.18" y1="52.51" x2="1.16" y2="52.51"/><polyline class="cls-2" points="1.16 52.34 1.15 52.34 1.14 52.34"/><line class="cls-2" x1="1.15" y1="52.31" x2="1.13" y2="52.31"/><line class="cls-2" x1="1.11" y1="52.47" x2="1.09" y2="52.47"/><polyline class="cls-2" points="1.06 52.42 1.04 52.42 1.03 52.42"/><line class="cls-2" x1="1.05" y1="52.16" x2="1.03" y2="52.16"/><path class="cls-2" d="M1,52.42a0,0,0,0,1,0,0h0"/><path class="cls-2" d="M1.06,52.14v0H1"/><line class="cls-2" x1="0.98" y1="52.3" x2="0.96" y2="52.3"/><line class="cls-2" x1="0.85" y1="52.19" x2="0.86" y2="52.19"/><line class="cls-2" x1="0.85" y1="52.19" x2="0.84" y2="52.19"/><polyline class="cls-2" points="0.88 52.48 0.89 52.5 0.9 52.51"/><path class="cls-2" d="M.9,52.33v.12s0,0,0,0h0"/><path class="cls-2" d="M.88,52.48h0a0,0,0,0,0,0,0v0s0,0,0,0h0"/><path class="cls-2" d="M.83,52.39a.06.06,0,0,1,0,0v0a0,0,0,0,1,0,0v0h0"/><path class="cls-2" d="M.85,52.23h0a0,0,0,0,1,0,0v0a.07.07,0,0,1,0,.05v0"/><line class="cls-2" x1="0.92" y1="52.33" x2="0.9" y2="52.33"/><line class="cls-2" x1="0.9" y1="52.48" x2="0.88" y2="52.48"/><line class="cls-2" x1="0.83" y1="52.4" x2="0.8" y2="52.4"/><line class="cls-2" x1="0.78" y1="52.62" x2="0.75" y2="52.62"/><line class="cls-2" x1="0.7" y1="52.4" x2="0.67" y2="52.4"/><polyline class="cls-2" points="106.57 53.35 106.56 53.03 106.54 52.71 106.49 52.41 106.43 52.12 106.35 51.86 106.26 51.64 106.16 51.45 106.05 51.31 105.93 51.21 105.87 51.18 105.8 51.15 105.72 51.15"/><polyline class="cls-2" points="105.73 55.5 105.8 55.5 105.89 55.47 105.92 55.46 106.04 55.36 106.15 55.23 106.25 55.05 106.35 54.83 106.42 54.58 106.49 54.3 106.53 53.99 106.56 53.68 106.57 53.35"/><polyline class="cls-2" points="104.81 51.37 104.86 51.31 104.97 51.22 105.1 51.17 105.13 51.17 105.22 51.18 105.34 51.23 105.46 51.33 105.57 51.47 105.67 51.66 105.76 51.88 105.84 52.14 105.9 52.42 105.94 52.72 105.97 53.03 105.98 53.36 105.97 53.68 105.94 53.99 105.9 54.29 105.83 54.57 105.76 54.82 105.67 55.03 105.56 55.21 105.45 55.35 105.33 55.44 105.21 55.48 105.15 55.48 105.09 55.48 104.97 55.42 104.95 55.4 104.85 55.32 104.79 55.26"/><polyline class="cls-2" points="105.93 53.36 105.92 53.04 105.89 52.73 105.85 52.43 105.79 52.16 105.71 51.91 105.63 51.69 105.53 51.51 105.42 51.37 105.3 51.27 105.18 51.22 105.11 51.21"/><path class="cls-2" d="M105,51.25a.44.44,0,0,0-.15.12l0,0a.83.83,0,0,0-.13.18h0"/><path class="cls-2" d="M104.66,55.07a.92.92,0,0,0,.29.33"/><polyline class="cls-2" points="105.18 55.44 105.29 55.4 105.41 55.31 105.52 55.17 105.62 55 105.71 54.79 105.79 54.54 105.85 54.27 105.89 53.98 105.92 53.67 105.93 53.36"/><polyline class="cls-2" points="105.82 53.35 105.81 53.65 105.78 53.93 105.74 54.2 105.68 54.45 105.6 54.67 105.52 54.85 105.43 54.98 105.42 55 105.31 55.1 105.2 55.16 105.15 55.17"/><path class="cls-2" d="M104.9,55.07a.28.28,0,0,0,.19.09"/><line class="cls-2" x1="104.89" y1="51.58" x2="104.98" y2="51.52"/><polyline class="cls-2" points="105.42 51.67 105.42 51.68 105.52 51.83 105.61 52.02 105.68 52.24 105.74 52.49 105.79 52.77 105.81 53.06 105.82 53.35"/><polyline class="cls-2" points="105.19 51.5 105.21 51.5 105.32 51.57 105.32 51.58"/><path class="cls-2" d="M105,55.07a.33.33,0,0,0,.33,0h0a.28.28,0,0,0,.1-.09"/><path class="cls-2" d="M105.42,51.67a.28.28,0,0,0-.1-.09h0a.33.33,0,0,0-.33,0"/><polyline class="cls-2" points="231.67 52.87 231.67 52.55 231.64 52.24 231.59 51.94 231.53 51.66 231.46 51.41 231.37 51.19 231.27 51 231.16 50.86 231.04 50.76 230.92 50.71 230.84 50.7"/><polyline class="cls-2" points="230.86 54.99 230.91 54.99 231.03 54.94 231.15 54.85 231.26 54.72 231.36 54.54 231.45 54.33 231.53 54.08 231.59 53.8 231.64 53.51 231.66 53.19 231.67 52.87"/><polyline class="cls-2" points="106.56 53.35 106.55 53.03 106.53 52.78"/><path class="cls-2" d="M106.48,54.28a5.64,5.64,0,0,0,.08-.93"/><polyline class="cls-2" points="232.25 52.87 232.24 52.55 232.21 52.23 232.16 51.93 232.1 51.64 232.03 51.39 231.93 51.16 231.83 50.97 231.72 50.83 231.61 50.73 231.6 50.73 231.51 50.69 231.48 50.68 231.42 50.67"/><polyline class="cls-2" points="231.43 55.02 231.45 55.02 231.47 55.01 231.58 54.98 231.59 54.97 231.71 54.88 231.83 54.74 231.87 54.68 231.93 54.56 232.02 54.34 232.1 54.09 232.16 53.81 232.21 53.51 232.24 53.2 232.25 52.87"/><polyline class="cls-2" points="322.6 52.52 322.6 52.21 322.57 51.89 322.52 51.59 322.46 51.32 322.38 51.07 322.29 50.85 322.19 50.68 322.08 50.54 321.96 50.45 321.9 50.43 321.84 50.41 321.83 50.41"/><polyline class="cls-2" points="321.84 54.58 321.85 54.58 321.95 54.55 322.07 54.47 322.18 54.35 322.19 54.34 322.29 54.17 322.38 53.97 322.46 53.72 322.52 53.45 322.57 53.15 322.59 52.84 322.6 52.52"/><polyline class="cls-2" points="1.89 53.75 1.88 54.07 1.85 54.38 1.8 54.68 1.74 54.95 1.66 55.19 1.57 55.4 1.46 55.57 1.35 55.7 1.23 55.78 1.12 55.81 1.11 55.81"/><polyline class="cls-2" points="1.12 51.64 1.24 51.68 1.36 51.77 1.47 51.9 1.57 52.08 1.66 52.3 1.74 52.55 1.8 52.82 1.85 53.12 1.88 53.43 1.89 53.75"/><path class="cls-2" d="M.75,55.62a.38.38,0,0,0,.52,0h0"/><path class="cls-2" d="M1.23,51.78a.39.39,0,0,0-.54.11l0,0"/><path class="cls-2" d="M1.72,55.4l0,0a0,0,0,0,0,0,0"/><path class="cls-2" d="M2,55.34a.07.07,0,0,0,0-.06"/><path class="cls-2" d="M2,55.27H2s0,0,0,.06"/><polyline class="cls-2" points="105.11 51.21 105.06 51.21 104.96 51.25"/><path class="cls-2" d="M105,55.4a.37.37,0,0,0,.23,0"/><line class="cls-2" x1="105.15" y1="55.17" x2="105.09" y2="55.16"/><path class="cls-2" d="M105.19,51.5a.3.3,0,0,0-.21,0"/></g><g id="LWPOLYLINE"><polygon class="cls-6" points="231.74 20.29 231.75 20.61 231.74 20.93 231.71 21.24 231.66 21.54 231.6 21.81 231.53 22.06 231.44 22.27 231.33 22.45 231.22 22.59 231.1 22.68 230.98 22.72 230.93 22.72 230.76 22.72 105.96 23.2 105.99 23.19 106.11 23.1 106.22 22.96 106.33 22.78 106.42 22.56 106.5 22.31 106.56 22.03 106.61 21.73 106.63 21.41 106.64 21.09 106.64 20.76 106.61 20.44 106.56 20.14 106.5 19.85 106.42 19.62 106.42 19.6 106.33 19.37 106.23 19.19 106.12 19.04 106 18.94 105.95 18.92 105.95 18.91 230.74 18.43 230.92 18.43 230.99 18.44 231.11 18.49 231.23 18.59 231.34 18.73 231.44 18.92 231.53 19.14 231.61 19.39 231.67 19.67 231.71 19.97 231.74 20.29"/><line class="cls-2" x1="230.98" y1="22.77" x2="231.49" y2="22.75"/><polyline class="cls-2" points="231.49 18.4 230.99 18.38 230.93 18.38"/><path class="cls-2" d="M102.79,19h-.1l-.12,0a.38.38,0,0,0-.11.08l-.1.1"/><path class="cls-2" d="M102.42,23l0,0a.47.47,0,0,0,.12.09.28.28,0,0,0,.12,0h.09"/><polyline class="cls-2" points="105.18 18.95 105.13 18.95 105.05 18.95 102.78 18.98"/><polyline class="cls-2" points="102.78 23.16 105.06 23.17 105.14 23.17"/><path class="cls-2" d="M103.52,22.63h0"/><path class="cls-2" d="M103.43,22.72v0l0,0,0,0h0"/><path class="cls-2" d="M103,23.15l.07,0a.34.34,0,0,0,.11-.07l.11-.11a.86.86,0,0,0,.1-.16s0,0,0-.05"/><line class="cls-2" x1="102.56" y1="19.58" x2="102.54" y2="19.58"/><polyline class="cls-2" points="105.79 18.88 105.29 18.9 105.21 18.9"/><polyline class="cls-2" points="105.22 23.22 105.28 23.22 105.81 23.24"/><polyline class="cls-2" points="230.92 18.43 230.74 18.43 105.95 18.91"/><polyline class="cls-2" points="105.96 23.2 230.76 22.72 230.93 22.72"/><polyline class="cls-2" points="230.74 18.43 230.87 18.39 230.99 18.39 231.12 18.44 231.24 18.55 231.35 18.69 231.45 18.88 231.55 19.11 231.62 19.37 231.69 19.65 231.73 19.96 231.76 20.28 231.77 20.61 231.76 20.93 231.73 21.25 231.68 21.56 231.62 21.84 231.54 22.09 231.45 22.31 231.34 22.49 231.23 22.63 231.11 22.73 230.98 22.77 230.95 22.77 230.86 22.77 230.76 22.72"/><path class="cls-2" d="M231.49,18.4h-.05"/><path class="cls-2" d="M231.93,18.71a.22.22,0,0,0-.07-.09.43.43,0,0,0-.11-.12l-.08,0,0,0h-.05"/><path class="cls-2" d="M231.67,22.7a.27.27,0,0,0,.1-.06l.11-.11.05-.07"/><path class="cls-2" d="M231.55,22.75l.11,0"/><path class="cls-2" d="M231.49,22.75h0"/><polyline class="cls-2" points="231.94 18.74 231.95 18.76 232.05 18.95 232.14 19.16 232.21 19.41 232.27 19.69 232.32 19.98 232.34 20.29 232.35 20.6 232.34 20.92 232.32 21.22 232.27 21.52 232.21 21.79 232.13 22.03 232.05 22.24 231.95 22.42 231.94 22.42"/><line class="cls-2" x1="102.78" y1="23.16" x2="102.75" y2="23.16"/><line class="cls-2" x1="102.74" y1="18.98" x2="102.78" y2="18.98"/><polyline class="cls-2" points="101.91 21.04 101.92 21.35 101.95 21.65 101.99 21.94 102.05 22.21 102.13 22.45 102.22 22.66 102.32 22.83 102.42 22.96"/><polyline class="cls-2" points="102.95 22.98 103 22.93 103.11 22.78 103.2 22.6 103.28 22.38 103.35 22.13 103.41 21.85 103.44 21.56 103.46 21.25 103.46 20.94 103.44 20.64 103.41 20.34 103.36 20.06 103.29 19.8 103.21 19.58 103.11 19.39 103.01 19.24 102.9 19.13 102.89 19.12"/><polyline class="cls-2" points="102.34 19.26 102.32 19.28 102.22 19.45 102.13 19.65 102.06 19.88 102 20.15 101.95 20.43 101.92 20.73 101.91 21.04"/><polyline class="cls-2" points="105.92 20.17 105.96 20.46 105.99 20.77"/><polyline class="cls-2" points="105.18 18.95 105.25 18.96 105.37 19.01 105.49 19.1"/><path class="cls-2" d="M103.57,22.6h-.06l0,0,0,0a.15.15,0,0,0,0,.07"/><path class="cls-2" d="M103,23.15a.75.75,0,0,0,.41-.41"/><polyline class="cls-2" points="103.4 23.15 103 23.15 102.98 23.15"/><path class="cls-2" d="M103.42,23.15a.7.7,0,0,0,.4-.41"/><path class="cls-2" d="M103.76,22.6h.06a0,0,0,0,1,0,0v.05a0,0,0,0,0,0,0,0,0,0,0,1,0,0"/><line class="cls-2" x1="103.57" y1="22.6" x2="103.76" y2="22.6"/><polyline class="cls-2" points="102.41 19.97 102.36 19.75 102.35 19.72"/><line class="cls-2" x1="102.35" y1="19.72" x2="102.34" y2="19.75"/><line class="cls-2" x1="102.34" y1="19.75" x2="102.4" y2="20.03"/><polyline class="cls-2" points="102.4 20.03 102.44 19.97 102.47 19.93"/><line class="cls-2" x1="102.47" y1="19.93" x2="102.46" y2="19.89"/><line class="cls-2" x1="102.46" y1="19.89" x2="102.41" y2="19.97"/><line class="cls-2" x1="103.02" y1="19.69" x2="102.96" y2="19.94"/><line class="cls-2" x1="102.96" y1="19.94" x2="103.12" y2="20.04"/><line class="cls-2" x1="103.06" y1="19.81" x2="103.02" y2="19.69"/><line class="cls-2" x1="103.1" y1="19.99" x2="103.06" y2="19.82"/><line class="cls-2" x1="103.12" y1="20.04" x2="103.11" y2="19.99"/><line class="cls-2" x1="102.88" y1="19.54" x2="102.85" y2="19.53"/><line class="cls-2" x1="102.85" y1="19.53" x2="102.8" y2="19.62"/><path class="cls-2" d="M102.8,19.62h0"/><line class="cls-2" x1="102.79" y1="19.65" x2="102.8" y2="19.5"/><line class="cls-2" x1="102.8" y1="19.5" x2="102.78" y2="19.49"/><line class="cls-2" x1="102.78" y1="19.49" x2="102.76" y2="19.81"/><line class="cls-2" x1="102.76" y1="19.81" x2="102.78" y2="19.83"/><polyline class="cls-2" points="102.78 19.83 102.78 19.81 102.79 19.71"/><line class="cls-2" x1="102.79" y1="19.71" x2="102.8" y2="19.68"/><line class="cls-2" x1="102.8" y1="19.68" x2="102.83" y2="19.86"/><line class="cls-2" x1="102.83" y1="19.86" x2="102.85" y2="19.87"/><polyline class="cls-2" points="102.85 19.87 102.85 19.86 102.82 19.68 102.82 19.66"/><polyline class="cls-2" points="102.82 19.66 102.82 19.65 102.88 19.54"/><path class="cls-2" d="M102.47,19.75s0,.05,0,.07l0,0,0,0h0"/><path class="cls-2" d="M102.54,19.87l0,0a0,0,0,0,1,0,0h0v-.08a0,0,0,0,0,0-.06v0"/><path class="cls-2" d="M102.58,19.65s0,0,0-.07l0,0s0,0,0,0h0"/><path class="cls-2" d="M102.51,19.54s0,0,0,0h0l0,0v0s0,0,0,.05v.06"/><path class="cls-2" d="M102.69,19.77h0s0,0,0,0a0,0,0,0,0,0,0v-.07"/><path class="cls-2" d="M102.65,19.64v-.06a0,0,0,0,1,0,0s0,0,0,0,0,0,0,0h0"/><path class="cls-2" d="M102.71,19.51h0"/><polyline class="cls-2" points="102.72 19.52 102.72 19.51 102.72 19.49 102.72 19.48"/><path class="cls-2" d="M102.72,19.48s0,0,0,0h0"/><path class="cls-2" d="M102.69,19.46h0l0,0v0a0,0,0,0,0,0,0v0a0,0,0,0,1,0,0v0"/><path class="cls-2" d="M102.62,19.64a.25.25,0,0,1,0,.08s0,0,0,0l0,0s0,0,0,0h0"/><path class="cls-2" d="M102.69,19.81h0"/><polyline class="cls-2" points="102.72 19.79 102.72 19.77 102.72 19.75"/><path class="cls-2" d="M102.72,19.75a0,0,0,0,1,0,0h0"/><polyline class="cls-2" points="103.74 22.62 103.65 22.62 103.64 22.62 103.57 22.62 103.56 22.62"/><path class="cls-2" d="M103.75,22.62h0a0,0,0,0,1,0,0v0a0,0,0,0,1,0,0"/><line class="cls-2" x1="103.74" y1="22.68" x2="103.69" y2="22.68"/><line class="cls-2" x1="103.03" y1="19.94" x2="102.96" y2="19.94"/><polyline class="cls-2" points="103.03 19.94 103.1 19.99 103.11 19.99"/><polyline class="cls-2" points="103.06 19.81 103.06 19.82 103.03 19.94"/><path class="cls-2" d="M103.42,23.15h0v-.06"/><path class="cls-2" d="M103.36,23.08a.66.66,0,0,0,.38-.4"/><line class="cls-2" x1="103.36" y1="23.08" x2="103.36" y2="22.85"/><line class="cls-2" x1="102.85" y1="19.86" x2="102.83" y2="19.86"/><line class="cls-2" x1="102.82" y1="19.68" x2="102.8" y2="19.68"/><line class="cls-2" x1="102.82" y1="19.65" x2="102.79" y2="19.65"/><line class="cls-2" x1="102.78" y1="19.81" x2="102.76" y2="19.81"/><polyline class="cls-2" points="102.72 19.77 102.71 19.77 102.69 19.77"/><polyline class="cls-2" points="102.72 19.51 102.71 19.51 102.69 19.51"/><line class="cls-2" x1="102.52" y1="19.54" x2="102.53" y2="19.54"/><path class="cls-2" d="M102.56,19.67v.13s0,0,0,0h0"/><path class="cls-2" d="M102.54,19.83h0l0,0a.11.11,0,0,0,0-.05v0"/><path class="cls-2" d="M102.49,19.73V19.6a0,0,0,0,0,0,0h0"/><path class="cls-2" d="M102.51,19.58h0s0,0,0,0a.09.09,0,0,0,0,0v0"/><line class="cls-2" x1="102.57" y1="19.83" x2="102.54" y2="19.83"/><line class="cls-2" x1="102.83" y1="19.62" x2="102.8" y2="19.62"/><path class="cls-2" d="M102.71,19.77a0,0,0,0,0,0,0"/><path class="cls-2" d="M102.72,19.49s0,0,0,0h0"/><line class="cls-2" x1="102.65" y1="19.64" x2="102.62" y2="19.64"/><line class="cls-2" x1="102.52" y1="19.54" x2="102.51" y2="19.54"/><line class="cls-2" x1="102.58" y1="19.67" x2="102.56" y2="19.67"/><line class="cls-2" x1="102.49" y1="19.75" x2="102.47" y2="19.75"/><line class="cls-2" x1="102.44" y1="19.97" x2="102.41" y2="19.97"/><line class="cls-2" x1="102.36" y1="19.75" x2="102.34" y2="19.75"/><polyline class="cls-2" points="106.64 21.09 106.64 20.76 106.61 20.44 106.56 20.14 106.5 19.85 106.42 19.62 106.42 19.6 106.33 19.37 106.23 19.19 106.12 19.04 106 18.94 105.95 18.92 105.88 18.89 105.79 18.88"/><polyline class="cls-2" points="105.81 23.24 105.87 23.23 105.96 23.2 105.99 23.19 106.11 23.1 106.22 22.96 106.33 22.78 106.42 22.56 106.5 22.31 106.56 22.03 106.61 21.73 106.63 21.41 106.64 21.09"/><polyline class="cls-2" points="105.05 18.95 105.17 18.91 105.29 18.91 105.41 18.96 105.53 19.06 105.64 19.21 105.74 19.39 105.83 19.61 105.91 19.87 105.97 20.15 106.02 20.45 106.04 20.77 106.05 21.09 106.04 21.41 106.01 21.72 105.97 22.02 105.91 22.3 105.83 22.55 105.74 22.76 105.64 22.94 105.52 23.08 105.41 23.17 105.28 23.21 105.16 23.21 105.06 23.17"/><polyline class="cls-2" points="106 21.09 105.99 20.77 105.97 20.46 105.92 20.17 105.86 19.89 105.79 19.64 105.7 19.42 105.6 19.24 105.49 19.1 105.37 19 105.26 18.95 105.19 18.94"/><polyline class="cls-2" points="105.25 23.17 105.37 23.13 105.48 23.04 105.59 22.91 105.69 22.73 105.78 22.52 105.86 22.28 105.92 22 105.96 21.71 105.99 21.4 106 21.09"/><polyline class="cls-2" points="231.75 20.61 231.74 20.29 231.71 19.97 231.67 19.67 231.61 19.39 231.53 19.14 231.44 18.92 231.34 18.73 231.23 18.59 231.11 18.49 230.99 18.44 230.92 18.43"/><polyline class="cls-2" points="230.93 22.72 230.98 22.72 231.1 22.68 231.22 22.59 231.33 22.45 231.44 22.27 231.53 22.06 231.6 21.81 231.66 21.54 231.71 21.24 231.74 20.93 231.75 20.61"/><polyline class="cls-2" points="232.32 20.61 232.31 20.28 232.28 19.96 232.24 19.66 232.18 19.38 232.1 19.12 232.01 18.89 231.91 18.71 231.79 18.56 231.67 18.46 231.57 18.42 231.55 18.41 231.49 18.4"/><polyline class="cls-2" points="231.51 22.75 231.54 22.75 231.55 22.75 231.66 22.71 231.67 22.7 231.79 22.61 231.9 22.47 232 22.29 232.09 22.08 232.17 21.83 232.23 21.55 232.28 21.24 232.31 20.93 232.32 20.61"/><polyline class="cls-2" points="103.55 21.1 103.54 21.42 103.51 21.73 103.47 22.02 103.4 22.29 103.32 22.54 103.23 22.75 103.13 22.92 103.02 23.04 102.9 23.13 102.78 23.16"/><polyline class="cls-2" points="102.78 18.98 102.91 19.02 103.02 19.11 103.14 19.25 103.24 19.43 103.33 19.64 103.41 19.89 103.47 20.17 103.51 20.47 103.54 20.78 103.55 21.1"/><path class="cls-2" d="M102.42,23a.37.37,0,0,0,.52,0h0"/><path class="cls-2" d="M102.89,19.12a.39.39,0,0,0-.54.11s0,0,0,0"/><path class="cls-2" d="M103.55,22.62h0v0"/><path class="cls-2" d="M103.74,22.62h0v0"/><path class="cls-2" d="M103.74,22.68a.09.09,0,0,0,.08.06"/><polyline class="cls-2" points="106.63 21.09 106.62 20.77 106.6 20.45 106.55 20.15 106.49 19.87 106.42 19.62 106.33 19.4 106.22 19.21 106.11 19.07 106 18.97 105.88 18.92 105.8 18.91"/><polyline class="cls-2" points="106.62 21.43 106.62 21.41 106.63 21.09"/><path class="cls-2" d="M103.39,22.74h0a0,0,0,0,1,0,0"/><path class="cls-2" d="M103.69,22.68a.06.06,0,0,0,0-.06"/><path class="cls-2" d="M103.64,22.62s0,.05,0,.06"/><line class="cls-2" x1="105.19" y1="18.94" x2="105.13" y2="18.95"/><polyline class="cls-2" points="105.14 23.17 105.2 23.17 105.25 23.17"/></g><line class="cls-7" x1="101.91" y1="15.55" x2="101.91" y2="7.04"/><line class="cls-7" x1="322.64" y1="15.55" x2="322.64" y2="7.04"/><line class="cls-7" x1="102.61" y1="9.88" x2="321.96" y2="9.88"/><polygon class="cls-4" points="104.09 10.67 104.18 10.44 102.64 9.88 104.18 9.32 104.09 9.08 101.91 9.88 104.09 10.67"/><polygon class="cls-4" points="320.48 10.67 320.4 10.44 321.94 9.88 320.4 9.32 320.48 9.08 322.67 9.88 320.48 10.67"/><path class="cls-4" d="M204.42,3.34v4h.82v.4h-2.17v-.4h.87V3.86a4,4,0,0,1-.86.44L203,3.86a3.6,3.6,0,0,0,1-.52Z"/><path class="cls-4" d="M208.78,3.38v.38a8.36,8.36,0,0,0-.91,2,9.54,9.54,0,0,0-.36,2H207a9.09,9.09,0,0,1,.49-2.23,10.57,10.57,0,0,1,.83-1.7h-2.06V3.38Z"/><path class="cls-4" d="M212.58,3.38v.38a8.78,8.78,0,0,0-.91,2,9.56,9.56,0,0,0-.35,2h-.55a8.65,8.65,0,0,1,.48-2.23,10.57,10.57,0,0,1,.83-1.7H210V3.38Z"/><path class="cls-4" d="M215.93,5.51l-.48.13q-.13-.66-.69-.66a.69.69,0,0,0-.63.36,1.63,1.63,0,0,0-.2.86,1.51,1.51,0,0,0,.26,1,.67.67,0,0,0,.57.28c.39,0,.63-.22.72-.67l.46.14a1.13,1.13,0,0,1-1.18.91,1.17,1.17,0,0,1-1-.48,1.83,1.83,0,0,1-.31-1.12A1.69,1.69,0,0,1,213.85,5a1.29,1.29,0,0,1,1.69-.12A1.25,1.25,0,0,1,215.93,5.51Z"/><path class="cls-4" d="M217.69,4.67v.56a1.25,1.25,0,0,1,1-.63.8.8,0,0,1,.54.2.72.72,0,0,1,.22.42,1.28,1.28,0,0,1,1-.62.76.76,0,0,1,.62.26.9.9,0,0,1,.21.62V7.73h-.5V5.65c0-.41-.16-.62-.5-.62a.77.77,0,0,0-.47.18,1.53,1.53,0,0,0-.35.43V7.73H219V5.65c0-.41-.16-.62-.48-.62a.77.77,0,0,0-.46.18,1.4,1.4,0,0,0-.36.43V7.73h-.49V4.67Z"/><line class="cls-7" x1="0.31" y1="47.56" x2="0.31" y2="39.05"/><line class="cls-7" x1="322.59" y1="47.56" x2="322.59" y2="39.05"/><line class="cls-7" x1="1.01" y1="41.89" x2="321.91" y2="41.89"/><polygon class="cls-4" points="2.49 42.68 2.58 42.45 1.04 41.89 2.58 41.33 2.49 41.09 0.31 41.89 2.49 42.68"/><polygon class="cls-4" points="320.43 42.68 320.35 42.45 321.89 41.89 320.35 41.33 320.43 41.09 322.62 41.89 320.43 42.68"/><path class="cls-4" d="M151.69,36.49a1.43,1.43,0,0,1,.49-.91,1.29,1.29,0,0,1,.81-.26,1.25,1.25,0,0,1,.92.34,1.1,1.1,0,0,1,.3.8,1.29,1.29,0,0,1-.21.72,3.3,3.3,0,0,1-.7.75,4.75,4.75,0,0,0-1.15,1.4h2.07v.42h-2.56v-.38a5,5,0,0,1,1.28-1.7,3.71,3.71,0,0,0,.63-.71,1.06,1.06,0,0,0,.12-.5.68.68,0,0,0-.22-.55.67.67,0,0,0-.48-.17c-.46,0-.73.29-.81.86Z"/><path class="cls-4" d="M157.81,35.39v.42h-1.76l-.05,1c0,.07,0,.23,0,.51a1,1,0,0,1,.37-.33,1,1,0,0,1,.45-.11,1.09,1.09,0,0,1,.89.44,1.75,1.75,0,0,1-.13,2.13,1.21,1.21,0,0,1-.88.34,1.18,1.18,0,0,1-1.25-.85l.48-.18a.74.74,0,0,0,.76.63.7.7,0,0,0,.61-.33,1.28,1.28,0,0,0,.19-.75,1.18,1.18,0,0,0-.23-.79.67.67,0,0,0-.53-.23.71.71,0,0,0-.47.17.91.91,0,0,0-.27.39l-.41-.06.11-2.43Z"/><path class="cls-4" d="M159.68,39a.59.59,0,0,0,.56.41A.76.76,0,0,0,161,39a3.6,3.6,0,0,0,.24-1.36,1,1,0,0,1-1,.61,1,1,0,0,1-.86-.43,1.47,1.47,0,0,1-.29-1,1.61,1.61,0,0,1,.39-1.14,1.19,1.19,0,0,1,1.87.21,2.76,2.76,0,0,1,.32,1.48c0,1.64-.47,2.45-1.43,2.45a1,1,0,0,1-1-.59Zm1.5-1.87c0-.94-.29-1.41-.83-1.41a.63.63,0,0,0-.58.33,1.39,1.39,0,0,0-.18.75,1.12,1.12,0,0,0,.24.76.61.61,0,0,0,.49.22A1,1,0,0,0,161.18,37.14Z"/><path class="cls-4" d="M165.41,37.52l-.48.13q-.13-.66-.69-.66a.71.71,0,0,0-.63.36,1.64,1.64,0,0,0-.19.86,1.5,1.5,0,0,0,.25.95.67.67,0,0,0,.57.28c.39,0,.63-.22.72-.67l.46.14a1.12,1.12,0,0,1-1.18.91,1.18,1.18,0,0,1-1-.48,1.83,1.83,0,0,1-.31-1.12,1.69,1.69,0,0,1,.41-1.23,1.16,1.16,0,0,1,.91-.38,1.18,1.18,0,0,1,.78.26A1.25,1.25,0,0,1,165.41,37.52Z"/><path class="cls-4" d="M167.18,36.68v.56a1.23,1.23,0,0,1,1-.63.77.77,0,0,1,.54.2.73.73,0,0,1,.23.42,1.25,1.25,0,0,1,1-.62.79.79,0,0,1,.62.26.94.94,0,0,1,.2.62v2.26h-.49V37.67q0-.63-.51-.63a.71.71,0,0,0-.46.19,1.13,1.13,0,0,0-.35.42v2.1h-.48V37.67q0-.63-.48-.63a.72.72,0,0,0-.46.18,1.42,1.42,0,0,0-.37.43v2.1h-.48V36.68Z"/><path class="cls-4" d="M60,17.4a5.19,5.19,0,0,0-1.45,1.86,4.6,4.6,0,0,0-.33,1.81,4.51,4.51,0,0,0,.44,2A5.3,5.3,0,0,0,60,24.73l-.2.23A5.37,5.37,0,0,1,58.14,23a4.45,4.45,0,0,1-.42-2,4.36,4.36,0,0,1,.55-2.23,6,6,0,0,1,1.55-1.67Z"/><path class="cls-4" d="M63.9,17.65a.87.87,0,0,1,0,.14,3.94,3.94,0,0,0,0,.83v4.59l0,1.38c0,.05,0,.07-.07.07h-.38a.06.06,0,0,1-.07-.07l0-1.37v-.84c-.5.24-1,.46-1.61.67a1.41,1.41,0,0,0-.3.14.19.19,0,0,1-.1,0s0,0-.08-.08a3.34,3.34,0,0,1-.17-.44,6.58,6.58,0,0,0,.67-.17v-3a6.44,6.44,0,0,0-.07-1.1,4.26,4.26,0,0,1,.54,0c.06,0,.09,0,.09.07a1.2,1.2,0,0,1,0,.14,3.43,3.43,0,0,0-.06.84v2.82c.48-.18.86-.33,1.12-.46V18.63a7.2,7.2,0,0,0-.06-1.09,2.73,2.73,0,0,1,.53.05C63.87,17.59,63.9,17.62,63.9,17.65Zm4.63,6.47a1.3,1.3,0,0,0-.26.31c0,.07-.08.1-.1.1l-.11-.05a7.31,7.31,0,0,1-1.71-1.66,7,7,0,0,1-1.91,1.72.23.23,0,0,1-.13.07s0,0-.1-.12a.93.93,0,0,0-.23-.28,6.51,6.51,0,0,0,2.07-1.81,8.6,8.6,0,0,1-1.19-3.74h-.63a.06.06,0,0,1-.07-.07v-.34s0-.06.07-.06l1,0h2.11a.74.74,0,0,0,.28,0,.15.15,0,0,1,.09,0s.11,0,.22.16.13.14.13.19a.19.19,0,0,1-.06.13,1.3,1.3,0,0,0-.13.48,9.15,9.15,0,0,1-1.23,3.26A7.33,7.33,0,0,0,68.53,24.12Zm-1.09-5.46H65.33a7.87,7.87,0,0,0,1,3.29A8.79,8.79,0,0,0,67.44,18.66Z"/><path class="cls-4" d="M72.85,21.54a.08.08,0,0,1,0,0s0,.05-.09.07l-.16.06h-.09s0,0,0,0l-.14-.43c-.22,0-.45.06-.68.07v3.31s0,.05-.06.05h-.36s-.07,0-.07-.05l0-1.17V21.36l-.79.06a.89.89,0,0,0-.31.07l-.08,0c-.05,0-.07,0-.09-.1s0-.21-.07-.44l.38,0h.21c.18-.23.38-.5.61-.83a11.27,11.27,0,0,0-1.18-1.24s0,0,0-.06l.06-.07.14-.18a.15.15,0,0,1,.07-.06.07.07,0,0,1,.06,0l.3.29a7.69,7.69,0,0,0,.62-1.06,1.23,1.23,0,0,0,.13-.38,3.15,3.15,0,0,1,.43.19s.08.07.08.1,0,.06-.07.09a.66.66,0,0,0-.14.17c-.32.53-.57.93-.75,1.19.19.2.38.41.54.6.2-.32.4-.66.61-1a2.17,2.17,0,0,0,.23-.52,3.36,3.36,0,0,1,.43.2c.05,0,.07.06.07.1s0,.06-.07.1a1.51,1.51,0,0,0-.27.36c-.49.77-.94,1.43-1.36,2,.22,0,.64,0,1.27-.08-.07-.17-.15-.35-.26-.56a.11.11,0,0,1,0,0s0,0,.08-.07l.15-.06.07,0s0,0,.05,0A6.16,6.16,0,0,1,72.85,21.54Zm-2,.57a.16.16,0,0,1,0,.09,1.18,1.18,0,0,0-.08.3A9.54,9.54,0,0,1,70.35,24c0,.08,0,.12-.07.12L70.15,24a.81.81,0,0,0-.27-.11,6,6,0,0,0,.39-1.47,3,3,0,0,0,0-.38c0-.05,0-.09,0-.12l.41.09C70.77,22,70.81,22.07,70.81,22.11Zm1.87,1.34v0s0,.06-.1.08l-.18.05-.09,0s0,0,0-.06a8.54,8.54,0,0,0-.28-1.5s0,0,0,0,0,0,.09-.06l.17,0h.06a.06.06,0,0,1,.06,0A10.76,10.76,0,0,1,72.68,23.45Zm4,.39a.72.72,0,0,1-.18.56.7.7,0,0,1-.34.14,6,6,0,0,1-.74,0,.24.24,0,0,1-.15,0,.46.46,0,0,1,0-.14,1,1,0,0,0-.14-.32q.38,0,.78,0a.37.37,0,0,0,.28-.08.33.33,0,0,0,.07-.25V19.49H75a5.22,5.22,0,0,0,.41,1.5,4,4,0,0,0,.79,1.23,1.09,1.09,0,0,0-.21.32c0,.06,0,.09-.07.09s-.05,0-.09-.08a5.07,5.07,0,0,1-1-2.22,5.11,5.11,0,0,1-.91,2.24c0,.05-.08.08-.1.08s-.05,0-.08-.08a1.35,1.35,0,0,0-.23-.28A3.75,3.75,0,0,0,74.26,21a5.9,5.9,0,0,0,.25-1.46H73.4v5.09c0,.05,0,.07,0,.07H73s-.06,0-.06-.07l0-1.23v-3l0-1.24a.05.05,0,0,1,.06-.06h1.54v-.75a4.91,4.91,0,0,0,0-.77,3.13,3.13,0,0,1,.5.05c.06,0,.1,0,.1.07a.79.79,0,0,1,0,.15,1.73,1.73,0,0,0,0,.5v.75h1.66a.05.05,0,0,1,.06.06l0,1.27v2.35Z"/><path class="cls-4" d="M80.67,23.65a.06.06,0,0,1-.07.07h-.33s-.06,0-.06-.07v-.4h-1v.67a.05.05,0,0,1-.06.06h-.34s-.07,0-.07-.06l0-2.47V19.87l0-1.87s0-.06.07-.06H80.6c.05,0,.07,0,.07.06l0,1.62v1.66Zm-.46-3.31v-2h-1v2Zm0,2.49V20.75h-1v2.08Zm5.3-2.44a.05.05,0,0,1-.06.06l-1.1,0H82.07l-1.09,0a.05.05,0,0,1-.06-.06v-.33s0-.07.06-.07l1.09,0h.75V19h-.5l-1,0a.07.07,0,0,1-.08-.07v-.32s0-.07.08-.07h1.52a6.26,6.26,0,0,0-.06-1c.22,0,.39,0,.52,0s.1,0,.1.07a1.31,1.31,0,0,1,0,.14,3.49,3.49,0,0,0,0,.77H85s.07,0,.07.07v.32A.06.06,0,0,1,85,19l-1,0h-.73V20h1.06l1.1,0s.06,0,.06.07Zm-.09,1.42c0,.05,0,.07-.07.07l-1,0V24a.59.59,0,0,1-.22.53,1.82,1.82,0,0,1-.93.14.4.4,0,0,1-.15,0,.34.34,0,0,1,0-.13,1.19,1.19,0,0,0-.16-.36q.31,0,.75,0c.19,0,.28-.1.28-.29v-2H82.11l-1.09,0s-.06,0-.06-.07v-.33s0-.05.06-.05h2.9a4.29,4.29,0,0,0-.06-.85,3.19,3.19,0,0,1,.52.06c.07,0,.1,0,.1.06a.38.38,0,0,1,0,.14,1.85,1.85,0,0,0,0,.57v0h1c.05,0,.07,0,.07.05Zm-2.61,1.47,0,0a.1.1,0,0,1-.06.07l-.22.15-.09.05s0,0,0,0a5.33,5.33,0,0,0-.77-1s0,0,0,0,0-.05.08-.08l.19-.12.07,0,.06,0A5.42,5.42,0,0,1,82.81,23.28Z"/><path class="cls-4" d="M86.66,17.4l.2-.23a5.39,5.39,0,0,1,1.68,1.93,4.42,4.42,0,0,1,.42,2,4.35,4.35,0,0,1-.55,2.22A5.7,5.7,0,0,1,86.86,25l-.2-.23a5,5,0,0,0,1.45-1.85,4.67,4.67,0,0,0,.33-1.81A4.58,4.58,0,0,0,88,19,5.3,5.3,0,0,0,86.66,17.4Z"/></g></g></svg>