<svg xmlns="http://www.w3.org/2000/svg" viewBox="0 0 232.53 52.51"><defs><style>.cls-1,.cls-2{fill:none;stroke:#231815;stroke-miterlimit:10;}.cls-1{stroke-width:0.5px;}.cls-2{stroke-width:0.25px;}.cls-3{fill:#231815;}</style></defs><g id="レイヤー_2" data-name="レイヤー 2"><g id="レイヤー_1-2" data-name="レイヤー 1"><g id="LINE"><line class="cls-1" x1="230.87" y1="51.47" x2="231.43" y2="51.45"/></g><g id="LINE-2" data-name="LINE"><line class="cls-1" x1="231.42" y1="47.1" x2="230.86" y2="47.08"/></g><g id="SPLINE"><path class="cls-1" d="M231.85,47.4l-.06-.09a.43.43,0,0,0-.12-.11l-.12-.08-.14,0h0"/></g><g id="SPLINE-2" data-name="SPLINE"><path class="cls-1" d="M231.42,51.44h0l.12,0,.12-.07a.43.43,0,0,0,.11-.12l.05-.06"/></g><g id="SPLINE-3" data-name="SPLINE"><path class="cls-1" d="M1.12,48.07H1a.28.28,0,0,0-.12,0,.41.41,0,0,0-.11.07.52.52,0,0,0-.1.11"/></g><g id="SPLINE-4" data-name="SPLINE"><path class="cls-1" d="M.76,52.08l0,0a.6.6,0,0,0,.13.09l.11,0h.1"/></g><g id="LINE-3" data-name="LINE"><line class="cls-1" x1="3.52" y1="48.03" x2="1.07" y2="48.07"/></g><g id="LINE-4" data-name="LINE"><line class="cls-1" x1="1.09" y1="52.24" x2="3.53" y2="52.26"/></g><g id="SPLINE-5" data-name="SPLINE"><path class="cls-1" d="M1.86,51.71h0"/></g><g id="SPLINE-6" data-name="SPLINE"><path class="cls-1" d="M1.76,51.81s0,0,0,0,0,0,0,0l0,0,0,0"/></g><g id="SPLINE-7" data-name="SPLINE"><path class="cls-1" d="M1.33,52.23l.07,0,.12-.07L1.63,52a1,1,0,0,0,.1-.15l0-.07"/></g><g id="LINE-5" data-name="LINE"><line class="cls-1" x1="0.9" y1="48.66" x2="0.87" y2="48.66"/></g><g id="LINE-6" data-name="LINE"><line class="cls-1" x1="105.32" y1="48.01" x2="3.98" y2="48.4"/></g><g id="LINE-7" data-name="LINE"><line class="cls-1" x1="3.99" y1="51.89" x2="105.33" y2="51.5"/></g><g id="LINE-8" data-name="LINE"><line class="cls-1" x1="105.72" y1="47.58" x2="105.13" y2="47.6"/></g><g id="LINE-9" data-name="LINE"><line class="cls-1" x1="105.15" y1="51.91" x2="105.73" y2="51.93"/></g><g id="LINE-10" data-name="LINE"><line class="cls-1" x1="230.85" y1="47.13" x2="105.88" y2="47.61"/></g><g id="LINE-11" data-name="LINE"><line class="cls-1" x1="105.89" y1="51.9" x2="230.86" y2="51.42"/></g><g id="LWPOLYLINE"><polyline class="cls-1" points="230.67 47.13 230.67 47.13 230.79 47.08 230.92 47.09 231.04 47.14 231.16 47.24 231.28 47.39 231.38 47.58 231.47 47.8 231.55 48.06 231.61 48.35 231.66 48.66 231.69 48.98 231.69 49.3 231.69 49.63 231.66 49.95 231.61 50.25 231.55 50.54 231.47 50.79 231.38 51.01 231.27 51.19 231.16 51.33 231.04 51.42 230.91 51.47 230.79 51.46 230.68 51.42"/></g><g id="LINE-12" data-name="LINE"><line class="cls-1" x1="231.42" y1="51.45" x2="231.43" y2="51.45"/></g><g id="LWPOLYLINE-2" data-name="LWPOLYLINE"><polyline class="cls-1" points="231.86 47.44 231.88 47.46 231.98 47.64 232.07 47.86 232.14 48.11 232.2 48.38 232.25 48.68 232.27 48.99 232.28 49.3 232.27 49.61 232.24 49.92 232.2 50.21 232.14 50.48 232.06 50.73 231.97 50.94 231.87 51.11 231.87 51.12"/></g><g id="LWPOLYLINE-3" data-name="LWPOLYLINE"><path class="cls-1" d="M1.11,52.24h0"/></g><g id="LINE-13" data-name="LINE"><line class="cls-1" x1="1.07" y1="48.07" x2="1.12" y2="48.07"/></g><g id="LWPOLYLINE-4" data-name="LWPOLYLINE"><polyline class="cls-1" points="0.25 50.13 0.26 50.44 0.28 50.74 0.33 51.03 0.39 51.3 0.46 51.54 0.55 51.75 0.65 51.92 0.76 52.05"/></g><g id="LWPOLYLINE-5" data-name="LWPOLYLINE"><polyline class="cls-1" points="1.28 52.07 1.34 52.01 1.44 51.87 1.54 51.68 1.62 51.46 1.69 51.21 1.74 50.94 1.78 50.64 1.8 50.34 1.8 50.03 1.78 49.72 1.74 49.42 1.69 49.15 1.62 48.89 1.54 48.66 1.45 48.47 1.34 48.32 1.23 48.21 1.23 48.21"/></g><g id="LWPOLYLINE-6" data-name="LWPOLYLINE"><polyline class="cls-1" points="0.68 48.34 0.66 48.37 0.56 48.53 0.47 48.73 0.39 48.97 0.33 49.23 0.29 49.52 0.26 49.82 0.25 50.13"/></g><g id="LWPOLYLINE-7" data-name="LWPOLYLINE"><polyline class="cls-1" points="3.52 48.03 3.59 48.04 3.71 48.09 3.83 48.19 3.94 48.33 4.03 48.51 4.12 48.73 4.2 48.98 4.26 49.26 4.3 49.55 4.33 49.86 4.34 50.17 4.33 50.49 4.3 50.8 4.25 51.09 4.19 51.36 4.12 51.6 4.03 51.81 3.93 51.99 3.82 52.12 3.7 52.21 3.58 52.25 3.53 52.26"/></g><g id="SPLINE-8" data-name="SPLINE"><path class="cls-1" d="M1.91,51.69H1.85l0,0,0,0-.05.07"/></g><g id="ARC"><path class="cls-1" d="M1.32,52.24a.76.76,0,0,0,.4-.41"/></g><g id="LINE-14" data-name="LINE"><line class="cls-1" x1="1.75" y1="52.24" x2="1.32" y2="52.24"/></g><g id="ARC-2" data-name="ARC"><path class="cls-1" d="M1.75,52.24a.74.74,0,0,0,.41-.42"/></g><g id="SPLINE-9" data-name="SPLINE"><path class="cls-1" d="M2.09,51.69h.06v0h0v.09"/></g><g id="LINE-15" data-name="LINE"><line class="cls-1" x1="1.91" y1="51.69" x2="2.09" y2="51.69"/></g><g id="LINE-16" data-name="LINE"><line class="cls-1" x1="0.75" y1="49.05" x2="0.69" y2="48.81"/></g><g id="LINE-17" data-name="LINE"><line class="cls-1" x1="0.69" y1="48.81" x2="0.67" y2="48.83"/></g><g id="LINE-18" data-name="LINE"><line class="cls-1" x1="0.67" y1="48.83" x2="0.74" y2="49.12"/></g><g id="LINE-19" data-name="LINE"><line class="cls-1" x1="0.74" y1="49.12" x2="0.8" y2="49.02"/></g><g id="LINE-20" data-name="LINE"><line class="cls-1" x1="0.8" y1="49.02" x2="0.79" y2="48.98"/></g><g id="LINE-21" data-name="LINE"><line class="cls-1" x1="0.79" y1="48.98" x2="0.75" y2="49.05"/></g><g id="LINE-22" data-name="LINE"><line class="cls-1" x1="1.36" y1="48.78" x2="1.3" y2="49.03"/></g><g id="LINE-23" data-name="LINE"><line class="cls-1" x1="1.3" y1="49.03" x2="1.46" y2="49.12"/></g><g id="LINE-24" data-name="LINE"><line class="cls-1" x1="1.46" y1="49.12" x2="1.36" y2="48.78"/></g><g id="LINE-25" data-name="LINE"><line class="cls-1" x1="1.21" y1="48.63" x2="1.19" y2="48.61"/></g><g id="LINE-26" data-name="LINE"><line class="cls-1" x1="1.19" y1="48.61" x2="1.14" y2="48.71"/></g><g id="SPLINE-10" data-name="SPLINE"><path class="cls-1" d="M1.14,48.71h0v0"/></g><g id="LINE-27" data-name="LINE"><line class="cls-1" x1="1.13" y1="48.74" x2="1.13" y2="48.74"/></g><g id="LINE-28" data-name="LINE"><line class="cls-1" x1="1.13" y1="48.74" x2="1.14" y2="48.59"/></g><g id="LINE-29" data-name="LINE"><line class="cls-1" x1="1.14" y1="48.59" x2="1.12" y2="48.57"/></g><g id="LINE-30" data-name="LINE"><line class="cls-1" x1="1.12" y1="48.57" x2="1.09" y2="48.9"/></g><g id="LINE-31" data-name="LINE"><line class="cls-1" x1="1.09" y1="48.9" x2="1.11" y2="48.91"/></g><g id="LINE-32" data-name="LINE"><line class="cls-1" x1="1.11" y1="48.91" x2="1.12" y2="48.79"/></g><g id="LINE-33" data-name="LINE"><line class="cls-1" x1="1.12" y1="48.79" x2="1.14" y2="48.77"/></g><g id="LINE-34" data-name="LINE"><line class="cls-1" x1="1.14" y1="48.77" x2="1.16" y2="48.94"/></g><g id="LINE-35" data-name="LINE"><line class="cls-1" x1="1.16" y1="48.94" x2="1.19" y2="48.96"/></g><g id="LINE-36" data-name="LINE"><line class="cls-1" x1="1.19" y1="48.96" x2="1.15" y2="48.74"/></g><g id="LINE-37" data-name="LINE"><line class="cls-1" x1="1.15" y1="48.74" x2="1.21" y2="48.63"/></g><g id="SPLINE-11" data-name="SPLINE"><path class="cls-1" d="M.81,48.83a.19.19,0,0,0,0,.08s0,0,0,0l0,0h0"/></g><g id="SPLINE-12" data-name="SPLINE"><path class="cls-1" d="M.88,49h0v0s0,0,0,0v-.14"/></g><g id="SPLINE-13" data-name="SPLINE"><path class="cls-1" d="M.92,48.74a.64.64,0,0,0,0-.07s0,0,0,0H.84"/></g><g id="LINE-38" data-name="LINE"><line class="cls-1" x1="0.84" y1="48.62" x2="0.84" y2="48.62"/></g><g id="SPLINE-14" data-name="SPLINE"><path class="cls-1" d="M.84,48.62h0v0s0,0,0,0v.1"/></g><g id="SPLINE-15" data-name="SPLINE"><path class="cls-1" d="M1,48.85H1v0s0,0,0,0a.06.06,0,0,0,0,0v0"/></g><g id="SPLINE-16" data-name="SPLINE"><path class="cls-1" d="M1,48.73v-.12H1"/></g><g id="SPLINE-17" data-name="SPLINE"><path class="cls-1" d="M1,48.59h0"/></g><g id="LINE-39" data-name="LINE"><line class="cls-1" x1="1.05" y1="48.6" x2="1.06" y2="48.56"/></g><g id="SPLINE-18" data-name="SPLINE"><path class="cls-1" d="M1.06,48.56H1"/></g><g id="SPLINE-19" data-name="SPLINE"><path class="cls-1" d="M1,48.55H1s0,0,0,0,0,0,0,0v.13"/></g><g id="SPLINE-20" data-name="SPLINE"><path class="cls-1" d="M1,48.73a.22.22,0,0,0,0,.08.06.06,0,0,0,0,0s0,0,0,0H1"/></g><g id="SPLINE-21" data-name="SPLINE"><path class="cls-1" d="M1,48.89h0"/></g><g id="LINE-40" data-name="LINE"><line class="cls-1" x1="1.06" y1="48.88" x2="1.06" y2="48.84"/></g><g id="SPLINE-22" data-name="SPLINE"><path class="cls-1" d="M1.06,48.84H1"/></g><g id="ARC-4" data-name="ARC"><path class="cls-1" d="M1.89,51.71s0,0,0,0"/></g><g id="ARC-5" data-name="ARC"><path class="cls-1" d="M2.08,51.71s0,0,0,0"/></g><g id="LINE-41" data-name="LINE"><line class="cls-1" x1="2.08" y1="51.71" x2="1.89" y2="51.71"/></g><g id="ARC-6" data-name="ARC"><path class="cls-1" d="M2.08,51.77a.08.08,0,0,0,.08,0"/></g><g id="SPLINE-23" data-name="SPLINE"><path class="cls-1" d="M2.08,51.71h0v0s0,0,0,0"/></g><g id="LINE-42" data-name="LINE"><line class="cls-1" x1="2.08" y1="51.77" x2="2.03" y2="51.77"/></g><g id="LINE-43" data-name="LINE"><line class="cls-1" x1="1.36" y1="49.03" x2="1.3" y2="49.03"/></g><g id="LINE-44" data-name="LINE"><line class="cls-1" x1="1.36" y1="49.03" x2="1.45" y2="49.08"/></g><g id="LINE-45" data-name="LINE"><line class="cls-1" x1="1.39" y1="48.9" x2="1.36" y2="49.03"/></g><g id="SPLINE-24" data-name="SPLINE"><path class="cls-1" d="M1.75,52.24H1.7s0,0,0,0v0"/></g><g id="ARC-7" data-name="ARC"><path class="cls-1" d="M1.69,52.17a.7.7,0,0,0,.39-.4"/></g><g id="LINE-46" data-name="LINE"><line class="cls-1" x1="1.69" y1="52.17" x2="1.69" y2="51.94"/></g><g id="LINE-47" data-name="LINE"><line class="cls-1" x1="1.17" y1="48.71" x2="1.14" y2="48.71"/></g><g id="LINE-48" data-name="LINE"><line class="cls-1" x1="1.18" y1="48.94" x2="1.16" y2="48.94"/></g><g id="LINE-49" data-name="LINE"><line class="cls-1" x1="1.16" y1="48.76" x2="1.14" y2="48.77"/></g><g id="LINE-50" data-name="LINE"><line class="cls-1" x1="1.15" y1="48.74" x2="1.13" y2="48.74"/></g><g id="LINE-51" data-name="LINE"><line class="cls-1" x1="1.11" y1="48.9" x2="1.09" y2="48.9"/></g><g id="LINE-52" data-name="LINE"><line class="cls-1" x1="1.06" y1="48.85" x2="1.03" y2="48.85"/></g><g id="LINE-53" data-name="LINE"><line class="cls-1" x1="1.05" y1="48.59" x2="1.03" y2="48.59"/></g><g id="SPLINE-25" data-name="SPLINE"><path class="cls-1" d="M1,48.85l0,0h0"/></g><g id="SPLINE-26" data-name="SPLINE"><path class="cls-1" d="M1.06,48.57l0,0H1"/></g><g id="LINE-54" data-name="LINE"><line class="cls-1" x1="0.98" y1="48.73" x2="0.96" y2="48.73"/></g><g id="LINE-55" data-name="LINE"><line class="cls-1" x1="0.85" y1="48.62" x2="0.86" y2="48.62"/></g><g id="LINE-56" data-name="LINE"><line class="cls-1" x1="0.85" y1="48.62" x2="0.84" y2="48.62"/></g><g id="LINE-57" data-name="LINE"><line class="cls-1" x1="0.88" y1="48.91" x2="0.9" y2="48.94"/></g><g id="SPLINE-27" data-name="SPLINE"><path class="cls-1" d="M.9,48.76v.14h0"/></g><g id="SPLINE-28" data-name="SPLINE"><path class="cls-1" d="M.88,48.91h0v0s0,0,0,0v0"/></g><g id="SPLINE-29" data-name="SPLINE"><path class="cls-1" d="M.83,48.82v-.08a0,0,0,0,1,0,0v0h0"/></g><g id="LINE-58" data-name="LINE"><line class="cls-1" x1="0.85" y1="48.66" x2="0.85" y2="48.66"/></g><g id="SPLINE-30" data-name="SPLINE"><path class="cls-1" d="M.85,48.66h0s0,0,0,0a.06.06,0,0,1,0,0v0"/></g><g id="LINE-59" data-name="LINE"><line class="cls-1" x1="0.92" y1="48.76" x2="0.9" y2="48.76"/></g><g id="LINE-60" data-name="LINE"><line class="cls-1" x1="0.91" y1="48.91" x2="0.88" y2="48.91"/></g><g id="LINE-61" data-name="LINE"><line class="cls-1" x1="0.83" y1="48.83" x2="0.81" y2="48.83"/></g><g id="LINE-62" data-name="LINE"><line class="cls-1" x1="0.78" y1="49.05" x2="0.75" y2="49.05"/></g><g id="LINE-63" data-name="LINE"><line class="cls-1" x1="0.7" y1="48.83" x2="0.67" y2="48.83"/></g><g id="LWPOLYLINE-8" data-name="LWPOLYLINE"><polyline class="cls-1" points="106.57 49.78 106.56 49.46 106.54 49.14 106.49 48.84 106.43 48.55 106.35 48.29 106.26 48.07 106.16 47.88 106.05 47.74 105.93 47.64 105.8 47.58 105.72 47.58"/></g><g id="LWPOLYLINE-9" data-name="LWPOLYLINE"><polyline class="cls-1" points="105.73 51.93 105.8 51.93 105.92 51.88 106.04 51.79 106.15 51.66 106.25 51.48 106.35 51.26 106.42 51.01 106.49 50.73 106.53 50.42 106.56 50.11 106.57 49.78"/></g><g id="LWPOLYLINE-10" data-name="LWPOLYLINE"><polyline class="cls-1" points="104.78 47.83 104.86 47.74 104.97 47.65 105.1 47.6 105.22 47.61 105.34 47.66 105.46 47.76 105.57 47.9 105.67 48.09 105.76 48.31 105.84 48.56 105.9 48.85 105.94 49.15 105.97 49.46 105.98 49.78 105.97 50.11 105.94 50.42 105.9 50.72 105.83 50.99 105.76 51.24 105.67 51.46 105.56 51.64 105.45 51.77 105.33 51.87 105.21 51.91 105.09 51.91 104.97 51.85 104.85 51.75 104.79 51.69"/></g><g id="LWPOLYLINE-11" data-name="LWPOLYLINE"><polyline class="cls-1" points="105.93 49.78 105.92 49.47 105.89 49.16 105.85 48.86 105.79 48.59 105.72 48.34 105.63 48.12 105.53 47.94 105.42 47.8 105.3 47.7 105.18 47.65 105.11 47.64"/></g><g id="ARC-8" data-name="ARC"><path class="cls-1" d="M105,47.68a.73.73,0,0,0-.31.34"/></g><g id="ARC-9" data-name="ARC"><path class="cls-1" d="M104.67,51.5a.81.81,0,0,0,.28.33"/></g><g id="LWPOLYLINE-12" data-name="LWPOLYLINE"><polyline class="cls-1" points="105.18 51.87 105.3 51.83 105.41 51.74 105.52 51.6 105.62 51.43 105.71 51.22 105.79 50.97 105.85 50.7 105.89 50.41 105.92 50.1 105.93 49.78"/></g><g id="LWPOLYLINE-13" data-name="LWPOLYLINE"><polyline class="cls-1" points="105.82 49.78 105.81 50.08 105.78 50.36 105.74 50.63 105.68 50.88 105.6 51.1 105.52 51.28 105.42 51.43 105.31 51.53 105.2 51.59 105.15 51.59"/></g><g id="ARC-10" data-name="ARC"><path class="cls-1" d="M104.9,51.5a.34.34,0,0,0,.19.09"/></g><g id="LINE-64" data-name="LINE"><line class="cls-1" x1="104.89" y1="48.01" x2="104.98" y2="47.95"/></g><g id="LWPOLYLINE-14" data-name="LWPOLYLINE"><polyline class="cls-1" points="105.19 47.93 105.21 47.93 105.32 48 105.42 48.11 105.52 48.26 105.61 48.45 105.68 48.67 105.74 48.92 105.79 49.2 105.81 49.49 105.82 49.78"/></g><g id="ARC-11" data-name="ARC"><path class="cls-1" d="M105,51.5a.33.33,0,0,0,.44-.09"/></g><g id="ARC-12" data-name="ARC"><path class="cls-1" d="M105.42,48.1A.33.33,0,0,0,105,48"/></g><g id="LWPOLYLINE-15" data-name="LWPOLYLINE"><polyline class="cls-1" points="231.68 49.3 231.67 48.98 231.64 48.67 231.6 48.37 231.53 48.09 231.46 47.84 231.37 47.62 231.27 47.43 231.16 47.29 231.04 47.19 230.92 47.14 230.84 47.13"/></g><g id="LWPOLYLINE-16" data-name="LWPOLYLINE"><polyline class="cls-1" points="230.86 51.42 230.91 51.42 231.03 51.37 231.15 51.28 231.26 51.15 231.36 50.97 231.45 50.76 231.53 50.51 231.59 50.23 231.64 49.94 231.67 49.62 231.68 49.3"/></g><g id="LWPOLYLINE-17" data-name="LWPOLYLINE"><polyline class="cls-1" points="106.56 49.78 106.55 49.46 106.53 49.21"/></g><g id="ARC-13" data-name="ARC"><path class="cls-1" d="M106.48,50.71a5.74,5.74,0,0,0,.08-.93"/></g><g id="LWPOLYLINE-18" data-name="LWPOLYLINE"><polyline class="cls-1" points="232.25 49.3 232.24 48.98 232.21 48.66 232.16 48.35 232.1 48.07 232.03 47.81 231.94 47.59 231.83 47.4 231.72 47.26 231.6 47.16 231.48 47.11 231.42 47.1"/></g><g id="LWPOLYLINE-19" data-name="LWPOLYLINE"><polyline class="cls-1" points="231.43 51.45 231.47 51.44 231.59 51.4 231.71 51.31 231.83 51.17 231.93 50.99 232.02 50.77 232.1 50.52 232.16 50.24 232.21 49.94 232.24 49.63 232.25 49.3"/></g><g id="LWPOLYLINE-20" data-name="LWPOLYLINE"><polyline class="cls-1" points="1.89 50.18 1.88 50.5 1.85 50.81 1.8 51.11 1.74 51.38 1.66 51.62 1.57 51.83 1.47 52 1.35 52.13 1.23 52.21 1.11 52.24"/></g><g id="LWPOLYLINE-21" data-name="LWPOLYLINE"><polyline class="cls-1" points="1.12 48.07 1.12 48.07 1.24 48.11 1.36 48.2 1.47 48.33 1.57 48.51 1.67 48.73 1.74 48.98 1.8 49.25 1.85 49.55 1.88 49.86 1.89 50.18"/></g><g id="ARC-14" data-name="ARC"><path class="cls-1" d="M.75,52.05a.38.38,0,0,0,.52,0h0"/></g><g id="ARC-15" data-name="ARC"><path class="cls-1" d="M1.23,48.21a.39.39,0,0,0-.54.11v0"/></g><g id="ARC-16" data-name="ARC"><path class="cls-1" d="M1.72,51.83a.05.05,0,0,0,.05,0"/></g><g id="ARC-17" data-name="ARC"><path class="cls-1" d="M2,51.77a.07.07,0,0,0,0-.06"/></g><g id="ARC-18" data-name="ARC"><path class="cls-1" d="M2,51.7a.11.11,0,0,0,.06.07"/></g><g id="LWPOLYLINE-22" data-name="LWPOLYLINE"><polyline class="cls-1" points="105.11 47.64 105.06 47.64 104.96 47.68"/></g><g id="ARC-19" data-name="ARC"><path class="cls-1" d="M105,51.83a.37.37,0,0,0,.23,0"/></g><g id="LINE-65" data-name="LINE"><line class="cls-1" x1="105.15" y1="51.6" x2="105.09" y2="51.59"/></g><g id="ARC-20" data-name="ARC"><path class="cls-1" d="M105.19,47.93a.3.3,0,0,0-.21,0"/></g><g id="LINE-66" data-name="LINE"><line class="cls-1" x1="230.87" y1="19.46" x2="231.43" y2="19.44"/></g><g id="LINE-67" data-name="LINE"><line class="cls-1" x1="231.42" y1="15.09" x2="230.86" y2="15.07"/></g><g id="SPLINE-31" data-name="SPLINE"><path class="cls-1" d="M102.72,15.67h-.1a.28.28,0,0,0-.12,0,.41.41,0,0,0-.11.07.94.94,0,0,0-.1.1"/></g><g id="SPLINE-32" data-name="SPLINE"><path class="cls-1" d="M102.35,19.68l0,0a.35.35,0,0,0,.13.08l.11.05h.1"/></g><g id="LINE-68" data-name="LINE"><line class="cls-1" x1="105.11" y1="15.63" x2="102.67" y2="15.67"/></g><g id="LINE-69" data-name="LINE"><line class="cls-1" x1="102.68" y1="19.84" x2="105.12" y2="19.86"/></g><g id="SPLINE-33" data-name="SPLINE"><path class="cls-1" d="M103.45,19.31h0"/></g><g id="SPLINE-34" data-name="SPLINE"><path class="cls-1" d="M103.35,19.41l0,0s0,0,0,0l0,0h0"/></g><g id="SPLINE-35" data-name="SPLINE"><path class="cls-1" d="M102.92,19.83l.07,0,.12-.07.11-.12a1,1,0,0,0,.1-.15l0-.07"/></g><g id="LINE-70" data-name="LINE"><line class="cls-1" x1="102.49" y1="16.26" x2="102.46" y2="16.26"/></g><g id="LINE-71" data-name="LINE"><line class="cls-1" x1="105.72" y1="15.56" x2="105.13" y2="15.59"/></g><g id="LINE-72" data-name="LINE"><line class="cls-1" x1="105.15" y1="19.9" x2="105.73" y2="19.92"/></g><g id="LINE-73" data-name="LINE"><line class="cls-1" x1="230.85" y1="15.12" x2="105.88" y2="15.6"/></g><g id="LINE-74" data-name="LINE"><line class="cls-1" x1="105.89" y1="19.89" x2="230.86" y2="19.41"/></g><g id="LWPOLYLINE-23" data-name="LWPOLYLINE"><polyline class="cls-1" points="230.67 15.12 230.67 15.12 230.79 15.07 230.92 15.08 231.04 15.13 231.16 15.23 231.28 15.38 231.38 15.56 231.47 15.79 231.55 16.05 231.61 16.34 231.66 16.64 231.69 16.96 231.69 17.29 231.69 17.62 231.66 17.94 231.61 18.24 231.55 18.52 231.47 18.78 231.38 19 231.27 19.18 231.16 19.32 231.04 19.41 230.91 19.45 230.79 19.45 230.68 19.41"/></g><g id="LINE-75" data-name="LINE"><line class="cls-1" x1="231.42" y1="19.44" x2="231.43" y2="19.44"/></g><g id="SPLINE-36" data-name="SPLINE"><path class="cls-1" d="M231.85,15.39l-.06-.09a.32.32,0,0,0-.12-.11l-.12-.08a.34.34,0,0,0-.14,0h0"/></g><g id="SPLINE-37" data-name="SPLINE"><path class="cls-1" d="M231.42,19.43h0l.12,0,.12-.07a.43.43,0,0,0,.11-.12l.05-.06"/></g><g id="LWPOLYLINE-24" data-name="LWPOLYLINE"><polyline class="cls-1" points="231.86 15.43 231.88 15.45 231.98 15.63 232.07 15.85 232.14 16.1 232.2 16.37 232.25 16.67 232.27 16.98 232.28 17.29 232.27 17.6 232.24 17.91 232.2 18.2 232.14 18.47 232.06 18.71 231.97 18.93 231.87 19.1 231.87 19.11"/></g><g id="LWPOLYLINE-25" data-name="LWPOLYLINE"><path class="cls-1" d="M102.71,19.84h0"/></g><g id="LINE-76" data-name="LINE"><line class="cls-1" x1="102.67" y1="15.67" x2="102.71" y2="15.67"/></g><g id="LWPOLYLINE-26" data-name="LWPOLYLINE"><polyline class="cls-1" points="101.84 17.73 101.85 18.04 101.88 18.34 101.92 18.63 101.98 18.9 102.06 19.14 102.14 19.35 102.24 19.52 102.35 19.64"/></g><g id="LWPOLYLINE-27" data-name="LWPOLYLINE"><polyline class="cls-1" points="102.87 19.67 102.93 19.61 103.03 19.47 103.13 19.28 103.21 19.06 103.28 18.81 103.33 18.54 103.37 18.24 103.39 17.94 103.39 17.63 103.37 17.32 103.34 17.02 103.28 16.75 103.22 16.49 103.13 16.26 103.04 16.07 102.94 15.92 102.83 15.81 102.82 15.81"/></g><g id="LWPOLYLINE-28" data-name="LWPOLYLINE"><polyline class="cls-1" points="102.27 15.94 102.25 15.97 102.15 16.13 102.06 16.33 101.98 16.57 101.92 16.83 101.88 17.12 101.85 17.42 101.84 17.73"/></g><g id="LWPOLYLINE-29" data-name="LWPOLYLINE"><polyline class="cls-1" points="105.11 15.63 105.18 15.64 105.3 15.69 105.42 15.79 105.53 15.93 105.63 16.11 105.71 16.33 105.79 16.58 105.85 16.85 105.89 17.15 105.92 17.46 105.93 17.77 105.92 18.09 105.89 18.39 105.84 18.69 105.78 18.96 105.71 19.2 105.62 19.41 105.52 19.59 105.41 19.72 105.3 19.81 105.17 19.85 105.12 19.86"/></g><g id="SPLINE-38" data-name="SPLINE"><path class="cls-1" d="M103.5,19.29h-.06l0,0,0,0,0,.06"/></g><g id="ARC-21" data-name="ARC"><path class="cls-1" d="M102.91,19.83a.68.68,0,0,0,.4-.41"/></g><g id="LINE-77" data-name="LINE"><line class="cls-1" x1="103.35" y1="19.84" x2="102.91" y2="19.83"/></g><g id="ARC-22" data-name="ARC"><path class="cls-1" d="M103.35,19.84a.75.75,0,0,0,.4-.42"/></g><g id="SPLINE-39" data-name="SPLINE"><path class="cls-1" d="M103.69,19.29h0v0h0v0s0,0,0,0v.05"/></g><g id="LINE-78" data-name="LINE"><line class="cls-1" x1="103.5" y1="19.29" x2="103.69" y2="19.29"/></g><g id="LINE-79" data-name="LINE"><line class="cls-1" x1="102.34" y1="16.65" x2="102.28" y2="16.4"/></g><g id="LINE-80" data-name="LINE"><line class="cls-1" x1="102.28" y1="16.4" x2="102.26" y2="16.43"/></g><g id="LINE-81" data-name="LINE"><line class="cls-1" x1="102.26" y1="16.43" x2="102.33" y2="16.72"/></g><g id="LINE-82" data-name="LINE"><line class="cls-1" x1="102.33" y1="16.72" x2="102.39" y2="16.62"/></g><g id="LINE-83" data-name="LINE"><line class="cls-1" x1="102.39" y1="16.62" x2="102.39" y2="16.58"/></g><g id="LINE-84" data-name="LINE"><line class="cls-1" x1="102.39" y1="16.58" x2="102.34" y2="16.65"/></g><g id="LINE-85" data-name="LINE"><line class="cls-1" x1="102.95" y1="16.38" x2="102.89" y2="16.63"/></g><g id="LINE-86" data-name="LINE"><line class="cls-1" x1="102.89" y1="16.63" x2="103.05" y2="16.72"/></g><g id="LINE-87" data-name="LINE"><line class="cls-1" x1="103.05" y1="16.72" x2="102.95" y2="16.38"/></g><g id="LINE-88" data-name="LINE"><line class="cls-1" x1="102.8" y1="16.23" x2="102.78" y2="16.21"/></g><g id="LINE-89" data-name="LINE"><line class="cls-1" x1="102.78" y1="16.21" x2="102.73" y2="16.31"/></g><g id="SPLINE-40" data-name="SPLINE"><path class="cls-1" d="M102.73,16.31h0v0"/></g><g id="LINE-90" data-name="LINE"><line class="cls-1" x1="102.72" y1="16.34" x2="102.72" y2="16.34"/></g><g id="LINE-91" data-name="LINE"><line class="cls-1" x1="102.72" y1="16.34" x2="102.73" y2="16.19"/></g><g id="LINE-92" data-name="LINE"><line class="cls-1" x1="102.73" y1="16.19" x2="102.71" y2="16.17"/></g><g id="LINE-93" data-name="LINE"><line class="cls-1" x1="102.71" y1="16.17" x2="102.68" y2="16.5"/></g><g id="LINE-94" data-name="LINE"><line class="cls-1" x1="102.68" y1="16.5" x2="102.7" y2="16.51"/></g><g id="LINE-95" data-name="LINE"><line class="cls-1" x1="102.7" y1="16.51" x2="102.71" y2="16.39"/></g><g id="LINE-96" data-name="LINE"><line class="cls-1" x1="102.71" y1="16.39" x2="102.73" y2="16.36"/></g><g id="LINE-97" data-name="LINE"><line class="cls-1" x1="102.73" y1="16.36" x2="102.75" y2="16.54"/></g><g id="LINE-98" data-name="LINE"><line class="cls-1" x1="102.75" y1="16.54" x2="102.78" y2="16.56"/></g><g id="LINE-99" data-name="LINE"><line class="cls-1" x1="102.78" y1="16.56" x2="102.75" y2="16.34"/></g><g id="LINE-100" data-name="LINE"><line class="cls-1" x1="102.75" y1="16.34" x2="102.8" y2="16.23"/></g><g id="SPLINE-41" data-name="SPLINE"><path class="cls-1" d="M102.4,16.43a.22.22,0,0,0,0,.08l0,0s0,0,0,0h0"/></g><g id="SPLINE-42" data-name="SPLINE"><path class="cls-1" d="M102.47,16.55h0v0s0,0,0,0v-.14"/></g><g id="SPLINE-43" data-name="SPLINE"><path class="cls-1" d="M102.51,16.34a.14.14,0,0,0,0-.07s0,0,0,0h0"/></g><g id="LINE-101" data-name="LINE"><line class="cls-1" x1="102.43" y1="16.22" x2="102.43" y2="16.22"/></g><g id="SPLINE-44" data-name="SPLINE"><path class="cls-1" d="M102.43,16.22h0v0s0,0,0,0a.09.09,0,0,1,0,0v.1"/></g><g id="SPLINE-45" data-name="SPLINE"><path class="cls-1" d="M102.62,16.45h0v0a0,0,0,0,1,0,0v-.07"/></g><g id="SPLINE-46" data-name="SPLINE"><path class="cls-1" d="M102.57,16.33v-.09a0,0,0,0,0,0,0h0"/></g><g id="SPLINE-47" data-name="SPLINE"><path class="cls-1" d="M102.62,16.19h0"/></g><g id="LINE-102" data-name="LINE"><line class="cls-1" x1="102.64" y1="16.2" x2="102.65" y2="16.16"/></g><g id="SPLINE-48" data-name="SPLINE"><path class="cls-1" d="M102.65,16.16h0"/></g><g id="SPLINE-49" data-name="SPLINE"><path class="cls-1" d="M102.62,16.15h0s0,0,0,0,0,0,0,0v.13"/></g><g id="SPLINE-50" data-name="SPLINE"><path class="cls-1" d="M102.55,16.33a.22.22,0,0,0,0,.08s0,0,0,0,0,0,0,0h0"/></g><g id="SPLINE-51" data-name="SPLINE"><path class="cls-1" d="M102.62,16.49h0"/></g><g id="LINE-103" data-name="LINE"><line class="cls-1" x1="102.65" y1="16.48" x2="102.65" y2="16.44"/></g><g id="SPLINE-52" data-name="SPLINE"><path class="cls-1" d="M102.65,16.44h0"/></g><g id="LINE-104" data-name="LINE"><line class="cls-1" x1="103.67" y1="19.31" x2="103.48" y2="19.31"/></g><g id="SPLINE-53" data-name="SPLINE"><path class="cls-1" d="M103.67,19.31h0a0,0,0,0,1,0,0l0,0"/></g><g id="LINE-105" data-name="LINE"><line class="cls-1" x1="103.67" y1="19.37" x2="103.62" y2="19.37"/></g><g id="LINE-106" data-name="LINE"><line class="cls-1" x1="102.95" y1="16.63" x2="102.89" y2="16.63"/></g><g id="LINE-107" data-name="LINE"><line class="cls-1" x1="102.95" y1="16.63" x2="103.04" y2="16.68"/></g><g id="LINE-108" data-name="LINE"><line class="cls-1" x1="102.98" y1="16.5" x2="102.95" y2="16.63"/></g><g id="SPLINE-54" data-name="SPLINE"><path class="cls-1" d="M103.35,19.84s0,0,0,0h0v0h0"/></g><g id="ARC-24" data-name="ARC"><path class="cls-1" d="M103.28,19.77a.73.73,0,0,0,.39-.4"/></g><g id="LINE-109" data-name="LINE"><line class="cls-1" x1="103.28" y1="19.77" x2="103.28" y2="19.54"/></g><g id="LINE-110" data-name="LINE"><line class="cls-1" x1="102.77" y1="16.54" x2="102.75" y2="16.54"/></g><g id="LINE-111" data-name="LINE"><line class="cls-1" x1="102.75" y1="16.36" x2="102.73" y2="16.36"/></g><g id="LINE-112" data-name="LINE"><line class="cls-1" x1="102.75" y1="16.34" x2="102.72" y2="16.34"/></g><g id="LINE-113" data-name="LINE"><line class="cls-1" x1="102.7" y1="16.5" x2="102.68" y2="16.5"/></g><g id="LINE-114" data-name="LINE"><line class="cls-1" x1="102.65" y1="16.45" x2="102.62" y2="16.45"/></g><g id="LINE-115" data-name="LINE"><line class="cls-1" x1="102.65" y1="16.19" x2="102.62" y2="16.19"/></g><g id="LINE-116" data-name="LINE"><line class="cls-1" x1="102.44" y1="16.22" x2="102.45" y2="16.22"/></g><g id="SPLINE-55" data-name="SPLINE"><path class="cls-1" d="M102.49,16.36v.14h0"/></g><g id="SPLINE-56" data-name="SPLINE"><path class="cls-1" d="M102.47,16.51h0a0,0,0,0,0,0,0s0,0,0,0v0"/></g><g id="SPLINE-57" data-name="SPLINE"><path class="cls-1" d="M102.42,16.42v-.08a0,0,0,0,0,0,0v0h0"/></g><g id="LINE-117" data-name="LINE"><line class="cls-1" x1="102.44" y1="16.26" x2="102.44" y2="16.26"/></g><g id="SPLINE-58" data-name="SPLINE"><path class="cls-1" d="M102.44,16.26h0s0,0,0,0a.06.06,0,0,1,0,0v0"/></g><g id="LINE-118" data-name="LINE"><line class="cls-1" x1="102.5" y1="16.51" x2="102.47" y2="16.51"/></g><g id="LINE-119" data-name="LINE"><line class="cls-1" x1="102.76" y1="16.31" x2="102.73" y2="16.31"/></g><g id="SPLINE-59" data-name="SPLINE"><path class="cls-1" d="M102.63,16.45l0,0h0"/></g><g id="SPLINE-60" data-name="SPLINE"><path class="cls-1" d="M102.65,16.17l0,0h0"/></g><g id="LINE-120" data-name="LINE"><line class="cls-1" x1="102.57" y1="16.33" x2="102.55" y2="16.33"/></g><g id="LINE-121" data-name="LINE"><line class="cls-1" x1="102.44" y1="16.22" x2="102.43" y2="16.22"/></g><g id="LINE-122" data-name="LINE"><line class="cls-1" x1="102.51" y1="16.36" x2="102.49" y2="16.36"/></g><g id="LINE-123" data-name="LINE"><line class="cls-1" x1="102.42" y1="16.43" x2="102.4" y2="16.43"/></g><g id="LINE-124" data-name="LINE"><line class="cls-1" x1="102.37" y1="16.65" x2="102.34" y2="16.65"/></g><g id="LINE-125" data-name="LINE"><line class="cls-1" x1="102.29" y1="16.43" x2="102.26" y2="16.43"/></g><g id="LWPOLYLINE-30" data-name="LWPOLYLINE"><polyline class="cls-1" points="106.57 17.77 106.56 17.45 106.54 17.13 106.49 16.82 106.43 16.54 106.35 16.28 106.26 16.06 106.16 15.87 106.05 15.72 105.93 15.63 105.8 15.57 105.72 15.56"/></g><g id="LWPOLYLINE-31" data-name="LWPOLYLINE"><polyline class="cls-1" points="105.73 19.92 105.8 19.92 105.92 19.87 106.04 19.78 106.15 19.64 106.25 19.46 106.35 19.25 106.42 18.99 106.49 18.71 106.53 18.41 106.56 18.1 106.57 17.77"/></g><g id="LWPOLYLINE-32" data-name="LWPOLYLINE"><polyline class="cls-1" points="104.98 15.63 105.1 15.59 105.22 15.6 105.34 15.65 105.46 15.75 105.57 15.89 105.67 16.08 105.76 16.3 105.84 16.55 105.9 16.84 105.94 17.14 105.97 17.45 105.98 17.77 105.97 18.09 105.94 18.41 105.9 18.71 105.83 18.98 105.76 19.23 105.67 19.45 105.56 19.63 105.45 19.76 105.33 19.86 105.21 19.9 105.09 19.89 104.99 19.86"/></g><g id="LWPOLYLINE-33" data-name="LWPOLYLINE"><polyline class="cls-1" points="105.93 17.77 105.92 17.46 105.89 17.15 105.85 16.85 105.79 16.58 105.72 16.33 105.63 16.11 105.53 15.93 105.42 15.79 105.3 15.69 105.18 15.64 105.11 15.63"/></g><g id="LWPOLYLINE-34" data-name="LWPOLYLINE"><polyline class="cls-1" points="105.18 19.86 105.3 19.82 105.41 19.73 105.52 19.59 105.62 19.42 105.71 19.21 105.79 18.96 105.85 18.69 105.89 18.4 105.92 18.09 105.93 17.77"/></g><g id="LWPOLYLINE-35" data-name="LWPOLYLINE"><polyline class="cls-1" points="231.68 17.29 231.67 16.97 231.64 16.66 231.6 16.36 231.53 16.08 231.46 15.82 231.37 15.6 231.27 15.42 231.16 15.28 231.04 15.18 230.92 15.13 230.84 15.12"/></g><g id="LWPOLYLINE-36" data-name="LWPOLYLINE"><polyline class="cls-1" points="230.86 19.41 230.91 19.41 231.03 19.36 231.15 19.27 231.26 19.14 231.36 18.96 231.45 18.74 231.53 18.5 231.59 18.22 231.64 17.92 231.67 17.61 231.68 17.29"/></g><g id="LWPOLYLINE-37" data-name="LWPOLYLINE"><polyline class="cls-1" points="232.25 17.29 232.24 16.97 232.21 16.65 232.16 16.34 232.1 16.06 232.03 15.8 231.94 15.58 231.83 15.39 231.72 15.25 231.6 15.15 231.48 15.1 231.42 15.09"/></g><g id="LWPOLYLINE-38" data-name="LWPOLYLINE"><polyline class="cls-1" points="231.43 19.44 231.47 19.43 231.59 19.39 231.71 19.3 231.83 19.16 231.93 18.98 232.02 18.76 232.1 18.51 232.16 18.23 232.21 17.93 232.24 17.61 232.25 17.29"/></g><g id="LWPOLYLINE-39" data-name="LWPOLYLINE"><polyline class="cls-1" points="103.48 17.78 103.47 18.1 103.44 18.41 103.39 18.71 103.33 18.98 103.25 19.22 103.16 19.43 103.06 19.6 102.94 19.73 102.83 19.81 102.71 19.84"/></g><g id="LWPOLYLINE-40" data-name="LWPOLYLINE"><polyline class="cls-1" points="102.71 15.67 102.71 15.67 102.83 15.71 102.95 15.8 103.06 15.93 103.17 16.11 103.26 16.33 103.33 16.58 103.4 16.85 103.44 17.15 103.47 17.46 103.48 17.78"/></g><g id="ARC-25" data-name="ARC"><path class="cls-1" d="M102.35,19.64a.36.36,0,0,0,.52,0h0"/></g><g id="ARC-26" data-name="ARC"><path class="cls-1" d="M102.82,15.81a.39.39,0,0,0-.54.11v0"/></g><g id="ARC-27" data-name="ARC"><path class="cls-1" d="M103.48,19.31s0,0,0,0"/></g><g id="ARC-28" data-name="ARC"><path class="cls-1" d="M103.67,19.31l0,0"/></g><g id="ARC-29" data-name="ARC"><path class="cls-1" d="M103.67,19.37a.08.08,0,0,0,.08.05"/></g><g id="LWPOLYLINE-41" data-name="LWPOLYLINE"><polyline class="cls-1" points="106.56 17.77 106.55 17.45 106.52 17.14 106.48 16.84 106.42 16.56 106.34 16.3 106.25 16.08 106.15 15.9 106.04 15.76 105.92 15.66 105.8 15.61 105.73 15.6"/></g><g id="LWPOLYLINE-42" data-name="LWPOLYLINE"><polyline class="cls-1" points="106.55 18.11 106.55 18.09 106.56 17.77"/></g><g id="ARC-30" data-name="ARC"><path class="cls-1" d="M103.31,19.42a0,0,0,0,0,0,0"/></g><g id="ARC-31" data-name="ARC"><path class="cls-1" d="M103.62,19.37a.08.08,0,0,0,0-.07"/></g><g id="ARC-32" data-name="ARC"><path class="cls-1" d="M103.57,19.3a.08.08,0,0,0,.05.07"/></g><g id="LWPOLYLINE-43" data-name="LWPOLYLINE"><polyline class="cls-1" points="105.11 15.63 105.06 15.63 105.05 15.63"/></g><g id="LWPOLYLINE-44" data-name="LWPOLYLINE"><polyline class="cls-1" points="105.07 19.86 105.17 19.86 105.18 19.86"/></g><line class="cls-2" x1="101.83" y1="12.23" x2="101.83" y2="3.73"/><line class="cls-2" x1="232.26" y1="12.23" x2="232.26" y2="3.73"/><line class="cls-2" x1="102.54" y1="6.56" x2="231.58" y2="6.56"/><polygon class="cls-3" points="104.02 7.36 104.1 7.12 102.56 6.56 104.1 6 104.02 5.77 101.83 6.56 104.02 7.36"/><polygon class="cls-3" points="230.1 7.36 230.02 7.12 231.56 6.56 230.02 6 230.1 5.77 232.29 6.56 230.1 7.36"/><path class="cls-3" d="M158.85,0V4h.81v.4H157.5V4h.87V.55a3.92,3.92,0,0,1-.87.43l-.08-.44a4.05,4.05,0,0,0,1-.51Z"/><path class="cls-3" d="M162.15,0a1.07,1.07,0,0,1,1,.59,3.52,3.52,0,0,1,.3,1.64c0,1.51-.44,2.27-1.32,2.27a1.08,1.08,0,0,1-1-.61,3.58,3.58,0,0,1-.29-1.65C160.83.75,161.27,0,162.15,0Zm0,.41a.66.66,0,0,0-.63.47,3.76,3.76,0,0,0-.18,1.35,3.54,3.54,0,0,0,.22,1.49.63.63,0,0,0,.58.37.64.64,0,0,0,.63-.49A3.85,3.85,0,0,0,163,2.23a3.4,3.4,0,0,0-.22-1.47A.63.63,0,0,0,162.15.41Z"/><path class="cls-3" d="M166.79,0V3h.61V3.4h-.61v1h-.45v-1H164.6V3l1.51-3Zm-.45,3V1.48c0-.18,0-.54,0-1.06h-.11c-.22.52-.36.84-.42,1L165.05,3Z"/><path class="cls-3" d="M171.05,2.2l-.48.12c-.08-.43-.31-.65-.68-.65a.69.69,0,0,0-.63.35,1.67,1.67,0,0,0-.2.87,1.6,1.6,0,0,0,.25.95.72.72,0,0,0,.58.28c.39,0,.63-.23.72-.68l.46.15a1.13,1.13,0,0,1-1.19.9,1.19,1.19,0,0,1-1-.48,1.87,1.87,0,0,1-.31-1.11A1.78,1.78,0,0,1,169,1.66a1.21,1.21,0,0,1,.91-.38,1.17,1.17,0,0,1,.79.27A1.2,1.2,0,0,1,171.05,2.2Z"/><path class="cls-3" d="M172.82,1.36v.55a1.26,1.26,0,0,1,1-.62.8.8,0,0,1,.55.19.71.71,0,0,1,.22.43,1.28,1.28,0,0,1,1-.62.78.78,0,0,1,.62.26.87.87,0,0,1,.2.62V4.42h-.49V2.34c0-.42-.17-.63-.5-.63a.79.79,0,0,0-.47.19,1.45,1.45,0,0,0-.35.42v2.1h-.48V2.34q0-.63-.48-.63a.71.71,0,0,0-.46.19,1.53,1.53,0,0,0-.37.42v2.1h-.48V1.36Z"/><line class="cls-2" x1="0.23" y1="44.24" x2="0.23" y2="35.74"/><line class="cls-2" x1="232.25" y1="44.24" x2="232.25" y2="35.74"/><line class="cls-2" x1="0.94" y1="38.58" x2="231.57" y2="38.58"/><polygon class="cls-3" points="2.42 39.37 2.5 39.13 0.96 38.58 2.5 38.02 2.42 37.78 0.23 38.58 2.42 39.37"/><polygon class="cls-3" points="230.1 39.37 230.01 39.13 231.55 38.58 230.01 38.02 230.1 37.78 232.28 38.58 230.1 39.37"/><path class="cls-3" d="M108,32v4h.82v.4h-2.17V36h.87V32.56a4,4,0,0,1-.86.44l-.09-.44a4.1,4.1,0,0,0,1-.52Z"/><path class="cls-3" d="M111.84,34.11a1.79,1.79,0,0,1,.75.56,1.11,1.11,0,0,1,.18.65,1.08,1.08,0,0,1-.42.91,1.5,1.5,0,0,1-.94.28,1.43,1.43,0,0,1-1-.35,1.1,1.1,0,0,1-.33-.83,1,1,0,0,1,.25-.68,2.28,2.28,0,0,1,.68-.46,1.54,1.54,0,0,1-.65-.51,1.1,1.1,0,0,1,.22-1.4,1.33,1.33,0,0,1,.85-.27,1.29,1.29,0,0,1,.94.34.94.94,0,0,1,.31.72.92.92,0,0,1-.22.64A1.69,1.69,0,0,1,111.84,34.11Zm-.5.26a1.7,1.7,0,0,0-.64.45.76.76,0,0,0-.16.49.77.77,0,0,0,.27.62,1,1,0,0,0,1.27,0,.74.74,0,0,0,.21-.55.76.76,0,0,0-.2-.53,2.08,2.08,0,0,0-.62-.38Zm.15-.43a1.39,1.39,0,0,0,.57-.4.81.81,0,0,0,.12-.46.63.63,0,0,0-.24-.51.84.84,0,0,0-.53-.17.77.77,0,0,0-.57.21.69.69,0,0,0-.19.48.62.62,0,0,0,.18.46,1.68,1.68,0,0,0,.54.34Z"/><path class="cls-3" d="M116.48,32.63l-.48.21a.57.57,0,0,0-.57-.43c-.62,0-1,.61-1,1.83a1.14,1.14,0,0,1,1-.61,1,1,0,0,1,.85.42,1.61,1.61,0,0,1,.28,1,1.62,1.62,0,0,1-.4,1.15,1.16,1.16,0,0,1-.86.35,1.11,1.11,0,0,1-1-.57,2.8,2.8,0,0,1-.33-1.48,3.3,3.3,0,0,1,.45-1.94,1.17,1.17,0,0,1,1-.51A1.07,1.07,0,0,1,116.48,32.63Zm-2,2.06a1.87,1.87,0,0,0,.27,1.12.69.69,0,0,0,1.15,0,1.49,1.49,0,0,0,.17-.77,1.21,1.21,0,0,0-.21-.76.62.62,0,0,0-.5-.22A1,1,0,0,0,114.47,34.69Z"/><path class="cls-3" d="M120.26,34.21l-.48.12c-.09-.43-.31-.65-.68-.65a.68.68,0,0,0-.63.36,1.61,1.61,0,0,0-.2.86,1.52,1.52,0,0,0,.25,1,.7.7,0,0,0,.58.28c.39,0,.63-.23.72-.68l.46.15a1.14,1.14,0,0,1-1.19.91,1.19,1.19,0,0,1-1-.48,1.93,1.93,0,0,1-.31-1.12,1.74,1.74,0,0,1,.41-1.23,1.18,1.18,0,0,1,.91-.39,1.17,1.17,0,0,1,.79.27A1.2,1.2,0,0,1,120.26,34.21Z"/><path class="cls-3" d="M122,33.37v.55a1.25,1.25,0,0,1,1-.62.81.81,0,0,1,.54.19.76.76,0,0,1,.23.43,1.25,1.25,0,0,1,1-.62.79.79,0,0,1,.62.26.94.94,0,0,1,.2.62v2.25h-.49V34.35c0-.42-.17-.62-.5-.62a.75.75,0,0,0-.47.18,1.45,1.45,0,0,0-.35.42v2.1h-.48V34.35c0-.42-.16-.62-.48-.62a.72.72,0,0,0-.46.18,1.53,1.53,0,0,0-.37.42v2.1h-.48V33.37Z"/><path class="cls-3" d="M60,14.09A5,5,0,0,0,58.5,16a4.59,4.59,0,0,0-.33,1.8,4.58,4.58,0,0,0,.44,2.05A5.3,5.3,0,0,0,60,21.42l-.2.23a5.39,5.39,0,0,1-1.68-1.93,4.42,4.42,0,0,1-.42-2,4.35,4.35,0,0,1,.55-2.22,5.7,5.7,0,0,1,1.55-1.67Z"/><path class="cls-3" d="M63.83,14.34a.87.87,0,0,1,0,.13,3.42,3.42,0,0,0,0,.83v6a.05.05,0,0,1-.06.06h-.38s-.07,0-.07-.06l0-1.37v-.84c-.5.23-1,.46-1.61.67a1.15,1.15,0,0,0-.31.14.16.16,0,0,1-.09.05s-.06,0-.08-.08A2.45,2.45,0,0,1,61,19.4a4.6,4.6,0,0,0,.66-.17v-3a8.19,8.19,0,0,0-.06-1.11l.54,0c.06,0,.09,0,.09.07l0,.14a3.33,3.33,0,0,0-.06.83v2.83c.48-.18.86-.34,1.12-.47V15.32a7.11,7.11,0,0,0-.06-1.09,4.09,4.09,0,0,1,.53,0C63.8,14.28,63.83,14.3,63.83,14.34Zm4.63,6.46a2,2,0,0,0-.27.31c0,.07-.07.11-.09.11L68,21.16a7.09,7.09,0,0,1-1.71-1.65,7.16,7.16,0,0,1-1.91,1.72.28.28,0,0,1-.13.06s0,0-.1-.12a.8.8,0,0,0-.24-.27A6.35,6.35,0,0,0,66,19.08a8.55,8.55,0,0,1-1.19-3.73h-.64s-.06,0-.06-.07V15s0,0,.06,0h3.13a.75.75,0,0,0,.27,0l.09,0s.12.06.23.17.12.14.12.19a.2.2,0,0,1,0,.13,1.28,1.28,0,0,0-.14.48,8.91,8.91,0,0,1-1.22,3.25A6.84,6.84,0,0,0,68.46,20.8Zm-1.09-5.45H65.26a8,8,0,0,0,1,3.29A8.68,8.68,0,0,0,67.37,15.35Z"/><path class="cls-3" d="M72.78,18.23s0,0,0,0,0,.05-.09.07l-.16.05-.09,0s0,0,0-.05l-.14-.43-.69.07v2.14l0,1.16a.05.05,0,0,1-.06.06h-.37a.05.05,0,0,1-.06-.06l0-1.16V18.05l-.79.06a.67.67,0,0,0-.31.07l-.09,0s-.07,0-.09-.11,0-.21-.06-.44a2.62,2.62,0,0,0,.37,0h.22c.18-.23.38-.51.6-.83A11.5,11.5,0,0,0,69.8,15.6s0,0,0,0a.28.28,0,0,1,0-.08L70,15.3a.15.15,0,0,1,.07-.06l.06,0,.3.3A7.78,7.78,0,0,0,71,14.5a1.36,1.36,0,0,0,.13-.37,2.27,2.27,0,0,1,.43.19c.05,0,.08.06.08.1s0,.06-.07.08a.9.9,0,0,0-.14.17c-.32.54-.57.93-.76,1.19l.55.6c.2-.31.4-.65.61-1a3,3,0,0,0,.23-.52,2.39,2.39,0,0,1,.43.2.11.11,0,0,1,.07.1.22.22,0,0,1-.07.1,1.8,1.8,0,0,0-.28.36,23.51,23.51,0,0,1-1.35,2l1.26-.08a3.74,3.74,0,0,0-.25-.56.17.17,0,0,1,0-.05s0,0,.09-.07l.15-.07h.06a.07.07,0,0,1,.06,0A7.29,7.29,0,0,1,72.78,18.23Zm-2,.56a.19.19,0,0,1,0,.1.87.87,0,0,0-.08.3,8.78,8.78,0,0,1-.35,1.46c0,.07,0,.11-.07.11l-.12-.06a.64.64,0,0,0-.27-.11,6.16,6.16,0,0,0,.39-1.48c0-.15,0-.27,0-.38v-.11l.41.08C70.7,18.73,70.74,18.76,70.74,18.79Zm1.87,1.35v0s0,.06-.1.08l-.18.05-.09,0s0,0,0-.06a8.66,8.66,0,0,0-.28-1.51s0,0,0,0,0,0,.09-.05l.16,0h.07s0,0,.06.05A12.48,12.48,0,0,1,72.61,20.14Zm4,.38a.71.71,0,0,1-.19.57.63.63,0,0,1-.33.14,6.14,6.14,0,0,1-.74,0,.24.24,0,0,1-.15,0,.62.62,0,0,1,0-.14,1.47,1.47,0,0,0-.14-.33c.25,0,.51,0,.77,0s.25,0,.29-.07a.41.41,0,0,0,.06-.26V16.18H74.91a5.55,5.55,0,0,0,.4,1.5,4.29,4.29,0,0,0,.8,1.23,1.21,1.21,0,0,0-.21.31c0,.06-.05.09-.07.09s0,0-.09-.08a5.12,5.12,0,0,1-1-2.21,5,5,0,0,1-.91,2.24s-.07.08-.09.08,0,0-.08-.08a1.35,1.35,0,0,0-.23-.28,3.67,3.67,0,0,0,.77-1.34,5.87,5.87,0,0,0,.26-1.46H73.32v3.9l0,1.19s0,.07,0,.07h-.37s-.06,0-.06-.07l0-1.23V17l0-1.24c0-.05,0-.07.06-.07l1,0h.51V15a3.9,3.9,0,0,0-.06-.78l.51,0c.06,0,.09,0,.09.07a.38.38,0,0,1,0,.16,2.21,2.21,0,0,0,0,.5v.75h.64l1,0c.05,0,.07,0,.07.07l0,1.26v2.36Z"/><path class="cls-3" d="M80.59,20.34a.05.05,0,0,1-.06.06H80.2a.05.05,0,0,1-.06-.06v-.4h-1v.66s0,.06-.07.06h-.34a.05.05,0,0,1-.06-.06l0-2.47V16.56l0-1.87s0-.07.06-.07l.65,0h.55l.64,0s.06,0,.06.07v5.65ZM80.14,17V15.07h-1V17Zm0,2.49V17.44h-1v2.07Zm5.3-2.44c0,.05,0,.07-.06.07l-1.11,0H82l-1.09,0s-.07,0-.07-.07v-.33s0-.06.07-.06l1.09,0h.75V15.63h-.5l-1,0s-.08,0-.08-.06v-.32s0-.07.08-.07h1.52a6.17,6.17,0,0,0-.06-1l.52,0c.07,0,.1,0,.1.07a1.31,1.31,0,0,1,0,.14,2.93,2.93,0,0,0,0,.77H85s.06,0,.06.07v.32a.05.05,0,0,1-.06.06l-1,0h-.72V16.7h1l1.11,0a.05.05,0,0,1,.06.06Zm-.1,1.43a.05.05,0,0,1-.06.06h-1v2.11a.62.62,0,0,1-.22.53,2,2,0,0,1-.93.14c-.09,0-.13,0-.15,0s0-.05,0-.12a1.19,1.19,0,0,0-.16-.36q.32,0,.75,0c.18,0,.28-.1.28-.3v-2H81a.05.05,0,0,1-.06-.06v-.33a.05.05,0,0,1,.06-.06h2.9a4.29,4.29,0,0,0-.06-.85,2.94,2.94,0,0,1,.51,0c.07,0,.11,0,.11.07a.36.36,0,0,1,0,.13,2.11,2.11,0,0,0,0,.57v0h1a.05.05,0,0,1,.06.06ZM82.74,20a.09.09,0,0,1,0,.05s0,0-.06.07l-.21.14-.09.06s0,0,0,0a4.63,4.63,0,0,0-.76-1s0,0,0-.05,0,0,.07-.07l.2-.12.07,0a.06.06,0,0,1,0,0A4.54,4.54,0,0,1,82.74,20Z"/><path class="cls-3" d="M86.59,14.09l.2-.23a5.5,5.5,0,0,1,1.68,1.93,4.38,4.38,0,0,1,.42,2A4.47,4.47,0,0,1,88.34,20a6,6,0,0,1-1.55,1.67l-.2-.23A5.19,5.19,0,0,0,88,19.56a4.6,4.6,0,0,0,.33-1.81,4.54,4.54,0,0,0-.44-2A5.3,5.3,0,0,0,86.59,14.09Z"/></g></g></svg>