<svg xmlns="http://www.w3.org/2000/svg" width="91.067" height="39.961" viewBox="0 0 91.067 39.961">
  <defs>
    <style>
      .cls-1 {
        fill: #3e3e3e;
      }
    </style>
  </defs>
  <g id="グループ_48" data-name="グループ 48" transform="translate(-312.174 -4748.901)">
    <path id="パス_22" data-name="パス 22" class="cls-1" d="M334.889,4749.183l-7.7,13.417-12.207,21.284-2.807,4.893c-.091.159.963.1,1.132-.2l7.7-13.417,12.207-21.285,2.807-4.893c.091-.159-.963-.1-1.132.2Z"/>
    <path id="パス_23" data-name="パス 23" class="cls-1" d="M334.231,4784.56c-3.763,1.046-7.536,2.06-11.328,2.992-1.1.271-2.205.536-3.315.769-.362.076-.725.149-1.09.208-.172.027-.672.083-.671.079a.188.188,0,0,1,.15.256c-.116.41-.54.014-.306.212a7.122,7.122,0,0,0,1.084.463,32.559,32.559,0,0,1,3.284,2.07c1.3.9,2.582,1.833,3.867,2.758a13.459,13.459,0,0,0,2.3,1.55c.354.154,1.4-.355.908-.568a13.487,13.487,0,0,1-2.3-1.55c-1.285-.926-2.563-1.86-3.867-2.758a28.5,28.5,0,0,0-3.55-2.207c-.64-.313-1.764-.8-2.376-.14-.518.555.39.6.76.57a19.685,19.685,0,0,0,2.61-.482c2.768-.613,5.512-1.336,8.252-2.063q2.879-.763,5.75-1.558c.685-.191.532-.794-.161-.6Z" transform="translate(-1.227 -9.325)"/>
    <path id="パス_24" data-name="パス 24" class="cls-1" d="M347.114,4784.852a20.064,20.064,0,0,0-1.9,3.949c-.678,1.9-1.273,4.448.072,6.206a3.651,3.651,0,0,0,2.686,1.436,4.418,4.418,0,0,0,2.474-.928,19.806,19.806,0,0,0,4.562-5.3c.927-1.393,1.809-2.824,2.6-4.3.14-.262-.946-.068-1.092.116a27.714,27.714,0,0,0-2.314,3.5c-.97,1.722-2.163,4.015-1.708,6.062a2.949,2.949,0,0,0,2.114,2.125,1.113,1.113,0,0,0,.8-.133c.113-.068.383-.264.127-.349-4.441-1.47-.388-7.818,1.169-10.077.275-.4.555-.794.854-1.175l-1.091.116a34.805,34.805,0,0,1-5.891,8.45,4.445,4.445,0,0,1-1.919,1.354c-.735.135-1.739-.63-2.2-1.179-1.351-1.613-.8-4.08-.192-5.877a19.851,19.851,0,0,1,1.982-4.178c.125-.2-.41-.166-.47-.156a.945.945,0,0,0-.665.338Z" transform="translate(-8.455 -9.32)"/>
    <path id="パス_25" data-name="パス 25" class="cls-1" d="M390.594,4786.7a19.414,19.414,0,0,0-1.565,3.187c-.515,1.342-1.208,3.4-.2,4.686,1.167,1.485,3.593.887,4.921.007a15.061,15.061,0,0,0,4.13-4.827,34.983,34.983,0,0,0,2.166-4.04c.128-.287-.957-.075-1.092.115a32.548,32.548,0,0,0-2.223,3.657,18.9,18.9,0,0,0-1.368,3.177,5.635,5.635,0,0,0-.292,2.87,2.348,2.348,0,0,0,2.074,1.72c.286.052,1.327-.411.729-.52-2.087-.38-1.868-2.64-1.39-4.205A23.5,23.5,0,0,1,399.2,4787c.26-.414.525-.825.807-1.224l-1.091.115a25.017,25.017,0,0,1-5.025,7.762,4.215,4.215,0,0,1-1.939,1.256,2.251,2.251,0,0,1-1.973-.664c-1-1.158-.326-3.167.137-4.407a19.209,19.209,0,0,1,1.617-3.325c.122-.2-.409-.166-.471-.156a.94.94,0,0,0-.664.338Z" transform="translate(-19.931 -9.6)"/>
    <path id="パス_26" data-name="パス 26" class="cls-1" d="M372.765,4785.534q-.871,2.213-1.795,4.406a52.052,52.052,0,0,1-2.915,6.318c-.078.132-.156.268-.247.391-.052.072-.126.166-.127.165-.088-.113.854-.087.774-.026a.225.225,0,0,1-.021-.12,8.548,8.548,0,0,1,.281-1.341,12.194,12.194,0,0,1,3.078-4.729,14.427,14.427,0,0,1,8.992-3.857c.6-.052.923-.79.134-.722-5.585.477-11.085,3.554-13.188,8.965-.222.571-1.049,3.2.616,2.279.618-.34.966-1.234,1.267-1.828.6-1.174,1.129-2.382,1.652-3.59q1.342-3.1,2.576-6.241c.221-.562-.921-.471-1.079-.07Z" transform="translate(-14.438 -9.504)"/>
    <path id="パス_27" data-name="パス 27" class="cls-1" d="M412.349,4786.538q-.475,2.1-1.019,4.191c-.28,1.078-.571,2.154-.9,3.219a12.228,12.228,0,0,1-.857,2.283,2.034,2.034,0,0,1-.122.184c-.007-.058,1.035-.154.906.045a2.637,2.637,0,0,0,.114-.466,12.035,12.035,0,0,1,.791-1.744,19.021,19.021,0,0,1,3.58-4.9c1.64-1.571,3.715-2.656,5.982-1.811.414.154,1.339-.443.684-.687-4.859-1.811-8.986,3.123-11.071,6.86a15.906,15.906,0,0,0-1.053,2.219c-.137.368-.4.987.22,1.039.785.067,1.126-.762,1.363-1.354a31.112,31.112,0,0,0,1.026-3.191c.557-1.987,1.053-3.993,1.506-6.006.11-.485-1.053-.321-1.152.12Z" transform="translate(-25.401 -9.743)"/>
    <path id="パス_28" data-name="パス 28" class="cls-1" d="M431.487,4780.872a7.92,7.92,0,0,1,.942.541c.117.079.232.161.344.248.03.024.058.046.087.071l.028.024c.058.047-.08-.073-.025-.022s.1.095.153.146a1.927,1.927,0,0,1,.223.285c.047.074-.038-.094-.008-.015.01.025.021.048.029.074a.439.439,0,0,1,.016.062c0,.011,0,.024.006.036.016.071,0-.07,0-.046s0,.052-.007.077-.007.023-.008.035c-.008.055.049-.1.018-.055-.008.014-.027.077-.043.078s.091-.1.045-.062c-.014.012-.025.029-.038.043-.089.091.1-.074.016-.015-.051.036-.188.1,0,.007-.089.042-.176.085-.269.119-.185.066-.459.347-.282.547.2.222.534.147.772.063a1.38,1.38,0,0,0,.929-.818.883.883,0,0,0-.219-.75,3.334,3.334,0,0,0-.7-.631,7.775,7.775,0,0,0-.713-.45c-.134-.075-.269-.148-.407-.214a.814.814,0,0,0-.819.081.452.452,0,0,0-.206.285.259.259,0,0,0,.132.261Z" transform="translate(-31.197 -8.185)"/>
    <path id="パス_29" data-name="パス 29" class="cls-1" d="M430.579,4786.447a74.469,74.469,0,0,0-2.1,9.433c-.049.383-.264,1.286.168,1.535.371.213,1.409-.307.9-.6.076.043.03.083.035-.013a1.984,1.984,0,0,0-.019-.23,6.174,6.174,0,0,1,.078-.882c.114-.857.286-1.709.463-2.556.388-1.852.835-3.692,1.3-5.526.109-.427.217-.853.329-1.277.125-.476-1.037-.321-1.152.119Z" transform="translate(-30.419 -9.721)"/>
  </g>
</svg>
