<svg xmlns="http://www.w3.org/2000/svg" width="11.433" height="72.95" viewBox="0 0 11.433 72.95">
  <defs>
    <style>
      .cls-1 {
        fill: none;
        stroke: #000;
      }
    </style>
  </defs>
  <g id="グループ_818" data-name="グループ 818" transform="translate(-29.644 -678.58)">
    <g id="グループ_803" data-name="グループ 803" transform="translate(-19.5 -99.009)">
      <path id="パス_654" data-name="パス 654" class="cls-1" d="M57.948,822.392v27.529" transform="translate(-3.004)"/>
      <g id="グループ_802" data-name="グループ 802" transform="translate(49.5 844.316)">
        <path id="パス_655" data-name="パス 655" class="cls-1" d="M49.452,858.637l4.655,4.719.777.788,5.284-5.506" transform="translate(-49.452 -858.637)"/>
      </g>
    </g>
    <path id="パス_684" data-name="パス 684" d="M1.676-2.777a2.352,2.352,0,0,0,.346,1.189,2.291,2.291,0,0,0,2.045.855,3.62,3.62,0,0,0,1.2-.187A1.328,1.328,0,0,0,6.3-2.221a1.123,1.123,0,0,0-.439-1,4.437,4.437,0,0,0-1.395-.51L3.3-4a5.28,5.28,0,0,1-1.617-.568,1.8,1.8,0,0,1-.82-1.611,2.481,2.481,0,0,1,.8-1.9,3.221,3.221,0,0,1,2.273-.744,3.949,3.949,0,0,1,2.3.653,2.358,2.358,0,0,1,.946,2.089h-1.1a2.157,2.157,0,0,0-.375-1.061,2.179,2.179,0,0,0-1.811-.674,2.094,2.094,0,0,0-1.482.434,1.357,1.357,0,0,0-.451,1.008.984.984,0,0,0,.527.926,7.739,7.739,0,0,0,1.564.469l1.207.275a3.7,3.7,0,0,1,1.348.545,2.04,2.04,0,0,1,.82,1.752A2.187,2.187,0,0,1,6.4-.363,4.658,4.658,0,0,1,3.984.252a3.614,3.614,0,0,1-2.514-.82A2.768,2.768,0,0,1,.58-2.777Zm7.991-5.83h1.178v3.557h4.477V-8.607H16.5V0H15.322V-4.025H10.845V0H9.667Zm13.072-.234a3.941,3.941,0,0,1,3.375,1.465,4.747,4.747,0,0,1,.855,2.924,5.117,5.117,0,0,1-.979,3.205,3.881,3.881,0,0,1-3.275,1.5,3.915,3.915,0,0,1-3.123-1.312,4.956,4.956,0,0,1-1.014-3.2,5.088,5.088,0,0,1,.867-2.988A3.757,3.757,0,0,1,22.739-8.842Zm.117,8.051a2.428,2.428,0,0,0,2.229-1.1,4.7,4.7,0,0,0,.688-2.54,3.623,3.623,0,0,0-.794-2.443A2.71,2.71,0,0,0,22.809-7.8a2.827,2.827,0,0,0-2.18.917,3.865,3.865,0,0,0-.844,2.7,3.951,3.951,0,0,0,.724,2.411A2.722,2.722,0,0,0,22.856-.791Zm6.333-7.816h3.873a2.626,2.626,0,0,1,1.852.647,2.35,2.35,0,0,1,.7,1.819,2.645,2.645,0,0,1-.627,1.755,2.375,2.375,0,0,1-1.928.747H30.355V0H29.189Zm5.25,2.473a1.3,1.3,0,0,0-.7-1.289,2.539,2.539,0,0,0-1.061-.182h-2.32v2.982h2.32a2.218,2.218,0,0,0,1.274-.334A1.323,1.323,0,0,0,34.439-6.135Z" transform="translate(31 678) rotate(90)"/>
  </g>
</svg>
