<svg xmlns="http://www.w3.org/2000/svg" viewBox="0 0 452.49 70.57"><defs><style>.cls-1{fill:#d9dada;}.cls-2,.cls-6,.cls-9{fill:none;}.cls-2,.cls-6{stroke:#221714;}.cls-2,.cls-9{stroke-miterlimit:10;}.cls-2{stroke-width:0.5px;}.cls-3{font-size:9.6px;letter-spacing:0.07em;}.cls-10,.cls-11,.cls-15,.cls-18,.cls-3{fill:#231815;}.cls-11,.cls-15,.cls-18,.cls-3{font-family:YuMin-Medium-83pv-RKSJ-H, YuMincho;}.cls-4{letter-spacing:0.04em;}.cls-5{letter-spacing:0.05em;}.cls-6{stroke-linecap:round;stroke-linejoin:round;}.cls-6,.cls-9{stroke-width:0.25px;}.cls-7{fill:#221714;}.cls-8{fill:#f5f2ed;}.cls-9{stroke:#231815;}.cls-11,.cls-15{font-size:8px;}.cls-11{letter-spacing:0.01em;}.cls-12{letter-spacing:0.06em;}.cls-13{letter-spacing:0.04em;}.cls-14{letter-spacing:0.05em;}.cls-15{letter-spacing:0.08em;}.cls-16{letter-spacing:0.04em;}.cls-17{letter-spacing:0.08em;}.cls-18{font-size:10px;letter-spacing:0.05em;}.cls-19{letter-spacing:0.08em;}.cls-20{letter-spacing:0.05em;}.cls-21{letter-spacing:-0.45em;}</style></defs><title>info02</title><g id="レイヤー_2" data-name="レイヤー 2"><g id="レイヤー_2-2" data-name="レイヤー 2"><g id="SPLINE"><polygon class="cls-1" points="405.23 22.86 405.26 22.87 405.34 22.9 405.49 23.01 405.63 23.19 405.76 23.4 405.87 23.68 405.97 23.99 406.05 24.35 406.11 24.71 406.13 25.11 406.15 25.52 406.13 25.91 406.1 26.31 406.05 26.68 405.96 27.02 405.86 27.33 405.74 27.6 405.63 27.8 405.62 27.81 405.48 27.96 405.33 28.06 405.23 28.1 405.2 28.1 405.19 28.11 405.18 28.11 405.15 28.11 402.14 28.15 402.29 28.09 402.43 27.97 402.57 27.81 402.7 27.6 402.81 27.33 402.91 27.02 402.99 26.68 403.04 26.31 403.07 25.92 403.09 25.53 403.07 25.13 403.04 24.74 402.99 24.37 402.91 24.02 402.82 23.7 402.71 23.43 402.58 23.2 402.44 23.02 402.29 22.91 402.14 22.84 405.14 22.85 405.18 22.85 405.19 22.85 405.23 22.86"/><polygon class="cls-1" points="401.49 23.29 401.83 23.29 402.29 23.29 402.38 23.36 402.51 23.53 402.63 23.74 402.73 24.01 402.81 24.3 402.88 24.64 402.92 24.99 402.95 25.35 402.95 25.72 402.92 26.09 402.87 26.44 402.81 26.76 402.72 27.05 402.62 27.31 402.51 27.52 402.38 27.67 402.37 27.68 401.79 27.68 401.5 27.68 282.02 28.15 282.02 28.14 282.07 28.12 282.09 28.12 282.13 28.1 282.23 28.04 282.36 27.9 282.47 27.71 282.57 27.46 282.66 27.18 282.72 26.9 282.73 26.86 282.75 26.76 282.77 26.51 282.8 26.16 282.8 25.98 282.8 25.8 282.79 25.62 282.77 25.44 282.75 25.19 282.73 25.09 282.7 24.93 282.67 24.77 282.62 24.62 282.58 24.48 282.53 24.36 282.48 24.23 282.42 24.13 282.37 24.03 282.32 23.98 282.23 23.88 282.14 23.82 282.11 23.79 282.06 23.78 281.99 23.75 401.49 23.29"/><polyline class="cls-2" points="402.31 23.29 402.29 23.29 401.83 23.29 401.49 23.29 281.99 23.75"/><polyline class="cls-2" points="282.02 28.15 401.5 27.68 401.79 27.68 402.37 27.68"/><line class="cls-2" x1="402.14" y1="28.15" x2="405.15" y2="28.11"/><line class="cls-2" x1="405.14" y1="22.85" x2="402.14" y2="22.84"/><path class="cls-2" d="M405.23,22.86h0" transform="translate(0)"/><path class="cls-2" d="M405.71,23.26s0-.05,0-.06a.79.79,0,0,0-.14-.18l-.15-.11h0s-.05,0-.08,0" transform="translate(0)"/><path class="cls-2" d="M405.23,28.1a.13.13,0,0,0,.1,0h0a1.19,1.19,0,0,0,.15-.09l.08-.1" transform="translate(0)"/><path class="cls-2" d="M281.61,28.12a.14.14,0,0,0,.11,0" transform="translate(0)"/><path class="cls-2" d="M281.23,27.76c0,.06.07.13.11.18a.81.81,0,0,0,.14.12.38.38,0,0,0,.13.06" transform="translate(0)"/><path class="cls-2" d="M281.52,23.81l-.12.08a.55.55,0,0,0-.12.14v0" transform="translate(0)"/><line class="cls-2" x1="281.95" y1="23.76" x2="281.73" y2="23.76"/><line class="cls-2" x1="281.73" y1="28.15" x2="281.97" y2="28.15"/><path class="cls-2" d="M280.55,26.36v0a.53.53,0,0,0,.05.18v0a.85.85,0,0,0,.06.19.6.6,0,0,0,.09.13" transform="translate(0)"/><path class="cls-2" d="M280.51,26a.34.34,0,0,0,0,.1" transform="translate(0)"/><path class="cls-2" d="M280.51,25.93V26" transform="translate(0)"/><path class="cls-2" d="M280.57,25.39a.24.24,0,0,0,0,.08.76.76,0,0,0,0,.15" transform="translate(0)"/><path class="cls-2" d="M281,24.86h0l-.1,0a.71.71,0,0,0-.09.07.6.6,0,0,0-.09.13.61.61,0,0,0,0,.11" transform="translate(0)"/><polyline class="cls-2" points="281.55 24.85 281.48 24.85 280.98 24.85"/><polyline class="cls-2" points="281.36 27 281.46 27 281.73 27 281.76 27 281.81 27"/><polyline class="cls-2" points="280.98 27.48 281.1 27.48 281.21 27.48"/><path class="cls-2" d="M280.76,26.94h0v0s0,0,0,0" transform="translate(0)"/><line class="cls-2" x1="281.76" y1="27.39" x2="281.76" y2="27"/><line class="cls-2" x1="282.14" y1="23.82" x2="282.05" y2="23.78"/><polyline class="cls-2" points="282.75 25.19 282.7 24.93 282.62 24.62 282.53 24.36 282.42 24.13 282.32 23.98"/><line class="cls-2" x1="282.8" y1="25.98" x2="282.78" y2="25.62"/><line class="cls-2" x1="282.72" y1="26.9" x2="282.75" y2="26.76"/><line class="cls-2" x1="282.07" y1="28.12" x2="282.13" y2="28.1"/><polyline class="cls-2" points="401.5 27.68 401.55 27.77 401.69 27.95 401.84 28.07 401.99 28.14 402.08 28.15 402.14 28.15 402.29 28.09 402.43 27.97 402.57 27.81 402.7 27.6 402.81 27.33 402.91 27.02 402.99 26.68 403.04 26.31 403.07 25.92 403.09 25.53 403.07 25.13 403.04 24.74 402.99 24.37 402.91 24.02 402.82 23.7 402.71 23.43 402.58 23.2 402.44 23.02 402.29 22.91 402.14 22.84 402.05 22.84 401.99 22.84 401.84 22.89 401.7 23 401.56 23.16 401.49 23.29 401.49 23.3"/><line class="cls-2" x1="405.18" y1="22.85" x2="405.14" y2="22.85"/><polyline class="cls-2" points="405.15 28.11 405.18 28.11 405.19 28.11"/><polyline class="cls-2" points="401.79 27.68 401.81 27.71 401.95 27.8 402.09 27.81 402.24 27.77 402.37 27.68 402.38 27.67 402.51 27.52 402.62 27.31 402.72 27.05 402.81 26.76 402.87 26.44 402.92 26.09 402.95 25.72 402.95 25.35 402.92 24.99 402.88 24.64 402.81 24.3 402.73 24.01 402.63 23.74 402.51 23.53 402.38 23.36 402.29 23.29 402.24 23.25 402.11 23.2 401.97 23.21 401.83 23.29 401.81 23.3"/><path class="cls-2" d="M402.83,24a.13.13,0,0,0,0,.08" transform="translate(0)"/><path class="cls-2" d="M402.8,24.11a.09.09,0,0,0,0,.06" transform="translate(0)"/><polyline class="cls-2" points="402.82 24.17 402.83 24.17 402.85 24.14 402.86 24.13 402.86 24.11 402.86 24.08 402.85 24.06 402.83 24.05 402.83 24.03 402.82 24.03"/><polyline class="cls-2" points="405.72 23.31 405.76 23.36 405.87 23.6 405.97 23.88 406.06 24.21 406.12 24.56 406.17 24.93 406.19 25.32 406.19 25.71 406.17 26.1 406.12 26.46 406.06 26.8 405.97 27.13 405.86 27.41 405.74 27.63 405.63 27.8"/><polyline class="cls-2" points="281.73 23.75 281.87 23.79 281.93 23.82"/><line class="cls-2" x1="281.83" y1="28.14" x2="281.73" y2="28.15"/><polyline class="cls-2" points="281.55 23.8 281.59 23.78 281.71 23.75 281.73 23.75"/><polyline class="cls-2" points="281.95 27.91 282.04 27.81 282.15 27.61 282.26 27.37 282.33 27.08 282.39 26.76 282.43 26.43 282.46 26.07 282.44 25.71 282.42 25.35 282.37 25.03 282.31 24.73 282.21 24.45 282.11 24.22 281.98 24.05 281.87 23.92"/><path class="cls-2" d="M281.24,24.12a2.25,2.25,0,0,0-.28.72" transform="translate(0)"/><polyline class="cls-2" points="281.1 27.48 281.13 27.57 281.21 27.71"/><polyline class="cls-2" points="281.95 23.75 281.97 23.75 281.99 23.75 282.06 23.78 282.11 23.79 282.14 23.82 282.23 23.88 282.32 23.98 282.37 24.03 282.42 24.13 282.48 24.23 282.53 24.36 282.58 24.48 282.62 24.62 282.67 24.77 282.7 24.93 282.73 25.09 282.75 25.19 282.77 25.44 282.79 25.62 282.8 25.8 282.8 25.98 282.8 26.16 282.77 26.51 282.75 26.76 282.73 26.86 282.72 26.9 282.66 27.18 282.57 27.46 282.47 27.71 282.36 27.9 282.23 28.04 282.13 28.1 282.09 28.12 282.07 28.12 282.02 28.14 281.97 28.15"/><path class="cls-2" d="M281.48,27.46v0h0" transform="translate(0)"/><path class="cls-2" d="M281.48,27.46a.25.25,0,0,0,.33,0" transform="translate(0)"/><path class="cls-2" d="M281.83,27.43h0s0,0,0,0h0" transform="translate(0)"/><line class="cls-2" x1="281.83" y1="27.43" x2="281.83" y2="27.05"/><polyline class="cls-2" points="281.85 24.9 281.94 25.04 282 25.24 282.07 25.47 282.09 25.73 282.11 26 282.09 26.27 282.06 26.52 281.99 26.74 281.92 26.93"/><line class="cls-2" x1="281.46" y1="27.04" x2="281.46" y2="27.42"/><line class="cls-2" x1="280.97" y1="24.85" x2="280.98" y2="24.85"/><path class="cls-2" d="M281.38,27s0,0,0,0" transform="translate(0)"/><line class="cls-2" x1="281.56" y1="24.85" x2="281.55" y2="24.85"/><line class="cls-2" x1="281.39" y1="26.95" x2="281.75" y2="26.97"/><polygon class="cls-2" points="280.9 26.63 280.82 26.6 280.76 26.5 280.69 26.36 280.66 26.2 280.64 26 280.64 25.8 280.68 25.61 280.72 25.45 280.78 25.34 280.86 25.29 280.93 25.29 281.01 25.35 281.07 25.47 281.12 25.63 281.15 25.81 281.16 26.01 281.13 26.21 281.1 26.39 281.05 26.51 280.97 26.6 280.9 26.63"/><path class="cls-2" d="M281.83,27.05a0,0,0,0,0,0,0v0a0,0,0,0,1,0,0l0,0h0" transform="translate(0)"/><path class="cls-2" d="M281.47,27v0" transform="translate(0)"/><path class="cls-2" d="M281.13,27.05V27a0,0,0,0,1,0,0" transform="translate(0)"/><path class="cls-2" d="M281.38,27h0v0l0,0h0" transform="translate(0)"/><line class="cls-2" x1="281.12" y1="27.05" x2="281.12" y2="27.37"/><path class="cls-2" d="M281.1,27.46a.24.24,0,0,0,0-.09" transform="translate(0)"/><path class="cls-2" d="M281.1,27.46h.23" transform="translate(0)"/><path class="cls-2" d="M281.35,27.37v.05s0,0,0,0v0" transform="translate(0)"/><line class="cls-2" x1="281.35" y1="27.37" x2="281.35" y2="27.05"/><path class="cls-2" d="M280.86,27.44a.22.22,0,0,0,.13,0l.11,0" transform="translate(0)"/><path class="cls-2" d="M280.83,27.43h0" transform="translate(0)"/><path class="cls-2" d="M281.22,27.48l.11,0" transform="translate(0)"/><polyline class="cls-2" points="281.46 27.42 281.63 27.42 281.73 27.42"/><polyline class="cls-2" points="406.15 25.52 406.13 25.11 406.11 24.71 406.05 24.35 405.97 23.99 405.87 23.68 405.76 23.4 405.63 23.19 405.49 23.01 405.34 22.9 405.26 22.87 405.23 22.86 405.19 22.85 405.18 22.85"/><polyline class="cls-2" points="405.19 28.11 405.2 28.1 405.23 28.1 405.33 28.06 405.48 27.96 405.62 27.81 405.63 27.8 405.74 27.6 405.86 27.33 405.96 27.02 406.05 26.68 406.1 26.31 406.13 25.91 406.15 25.52"/><polyline class="cls-2" points="281.93 23.82 282 23.88 282.13 24.03 282.24 24.23 282.34 24.48 282.43 24.77 282.5 25.09 282.55 25.44 282.56 25.8 282.56 26.16 282.55 26.51 282.5 26.86 282.43 27.18 282.34 27.46 282.24 27.7 282.12 27.9 281.99 28.04 281.87 28.12 281.83 28.14"/><path class="cls-2" d="M281.64,28.06a.42.42,0,0,0,.32-.15" transform="translate(0)"/><polyline class="cls-2" points="281.87 23.92 281.85 23.92 281.71 23.86 281.59 23.84 281.45 23.91 281.32 24.02 281.24 24.12"/><path class="cls-2" d="M281.22,27.71a.55.55,0,0,0,.42.35" transform="translate(0)"/><polyline class="cls-2" points="281.48 24.85 281.55 24.79 281.65 24.76 281.75 24.8 281.85 24.89 281.85 24.9"/><line class="cls-2" x1="281.92" y1="26.93" x2="281.83" y2="27.05"/><polyline class="cls-2" points="280.98 24.85 281.04 24.86 281.12 24.93 281.21 25.05 281.29 25.23 281.35 25.44 281.39 25.68 281.4 25.95 281.39 26.21 281.35 26.45 281.3 26.66 281.22 26.85 281.13 26.98"/><polyline class="cls-2" points="281.75 26.97 281.83 26.83 281.9 26.65 281.95 26.43 281.99 26.18 281.99 25.92 281.98 25.67 281.94 25.43 281.88 25.22 281.8 25.04 281.71 24.93 281.63 24.85 281.56 24.85"/><polyline class="cls-2" points="281.08 26.85 281.13 26.78 281.2 26.6 281.25 26.39 281.29 26.15 281.29 25.9 281.27 25.64 281.22 25.42 281.16 25.22 281.08 25.07 281.07 25.05"/><path class="cls-2" d="M281.05,26.89a.12.12,0,0,0,.09.09" transform="translate(0)"/><polyline class="cls-2" points="281.13 26.98 281.3 26.98 281.38 26.98"/><path class="cls-2" d="M280.79,27V27s0,0,0,0,0,0,0,0" transform="translate(0)"/><path class="cls-2" d="M281.05,26.89h0s0,0,0,0l0,0v.06" transform="translate(0)"/><line class="cls-2" x1="281.01" y1="27.37" x2="281.01" y2="27.05"/><path class="cls-2" d="M280.79,27.37a.22.22,0,0,0,.22,0" transform="translate(0)"/><line class="cls-2" x1="280.78" y1="27.04" x2="280.78" y2="27.37"/><path class="cls-2" d="M281,27.05h.12" transform="translate(0)"/><path class="cls-2" d="M281.13,27.05h.22" transform="translate(0)"/><path class="cls-2" d="M281,27.37h.12" transform="translate(0)"/><path class="cls-2" d="M281,27.37a.09.09,0,0,0,.09.09" transform="translate(0)"/><path class="cls-2" d="M281.13,27.37h.22" transform="translate(0)"/><line class="cls-2" x1="281.05" y1="26.89" x2="281.08" y2="26.85"/><polyline class="cls-2" points="281.07 25.05 281 24.98 280.9 24.94 280.81 24.96 280.72 25.05 280.63 25.2 280.57 25.39 280.53 25.62 280.51 25.87 280.51 25.93 280.52 26.12 280.54 26.36 280.59 26.58 280.66 26.75 280.75 26.89"/><path class="cls-2" d="M280.75,26.89v.05" transform="translate(0)"/><path class="cls-2" d="M280.79,27.37a.06.06,0,0,0,0,.06" transform="translate(0)"/><line class="cls-2" x1="281.76" y1="27.41" x2="281.78" y2="27.42"/><polyline class="cls-2" points="281.75 27.47 281.65 27.47 281.48 27.46"/><path class="cls-2" d="M281.76,27.47h.05v0h0" transform="translate(0)"/><path class="cls-2" d="M281.78,27.42h0" transform="translate(0)"/><path class="cls-2" d="M281.73,27.42l0,0" transform="translate(0)"/><line class="cls-2" x1="281.46" y1="27.04" x2="281.45" y2="27.02"/><line class="cls-2" x1="281.73" y1="27.42" x2="281.73" y2="27"/><path class="cls-2" d="M281.77,27.39v0h0s0,0,0,0h0" transform="translate(0)"/></g><text class="cls-3" transform="translate(422.13 49.33)">追<tspan class="cls-4" x="10.25" y="0">加</tspan><tspan class="cls-5" x="20.27" y="0">竿</tspan></text><polyline class="cls-6" points="418.7 45.21 402.57 45.21 385.65 62.01"/><polygon class="cls-7" points="385.46 60.98 383.77 63.89 386.69 62.21 385.46 60.98"/><text class="cls-3" transform="translate(422.13 8.45)">追<tspan class="cls-4" x="10.25" y="0">加</tspan><tspan class="cls-5" x="20.27" y="0">竿</tspan></text><polyline class="cls-6" points="418.7 4.32 402.57 4.32 385.65 21.13"/><polygon class="cls-7" points="385.46 20.09 383.77 23 386.69 21.33 385.46 20.09"/><g id="ARC"><polygon class="cls-1" points="406.13 65.75 406.15 66.15 406.13 66.56 406.1 66.94 406.05 67.32 405.96 67.66 405.86 67.97 405.74 68.23 405.63 68.43 405.62 68.44 405.48 68.61 405.33 68.71 405.21 68.75 405.2 68.75 405.19 68.75 405.18 68.75 405.15 68.75 402.14 68.78 402.29 68.73 402.43 68.62 402.57 68.46 402.7 68.23 402.81 67.97 402.91 67.66 402.99 67.31 403.04 66.94 403.07 66.57 403.09 66.16 403.07 65.77 403.04 65.38 402.99 65.01 402.91 64.67 402.82 64.35 402.71 64.07 402.58 63.85 402.44 63.67 402.29 63.55 402.14 63.48 402.05 63.47 405.14 63.48 405.18 63.49 405.19 63.49 405.34 63.55 405.49 63.66 405.63 63.82 405.76 64.05 405.87 64.31 405.97 64.63 406.05 64.98 406.11 65.36 406.13 65.75"/><polygon class="cls-1" points="402.95 65.99 402.95 66.37 402.92 66.73 402.87 67.08 402.81 67.4 402.72 67.7 402.62 67.95 402.51 68.15 402.38 68.32 402.37 68.33 402.36 68.33 401.79 68.33 401.5 68.33 291.98 68.75 291.98 68.72 292.03 68.64 292.14 68.38 292.23 68.08 292.3 67.74 292.37 67.37 292.4 66.98 292.42 66.59 292.4 66.19 292.37 65.8 292.32 65.43 292.24 65.09 292.14 64.78 292.04 64.5 291.96 64.35 401.49 63.94 401.81 63.94 402.29 63.94 402.31 63.94 402.38 64 402.51 64.16 402.63 64.38 402.73 64.64 402.81 64.94 402.88 65.27 402.92 65.62 402.95 65.99"/><polyline class="cls-2" points="290.64 69.33 290.69 69.33 291.32 69.29"/><line class="cls-2" x1="291.27" y1="63.82" x2="290.72" y2="63.8"/><path class="cls-2" d="M291.33,63.82h-.05" transform="translate(0)"/><path class="cls-2" d="M291.88,64.2l-.07-.11a2.06,2.06,0,0,0-.16-.15.09.09,0,0,0-.08,0,.18.18,0,0,0-.08,0s0,0,0,0h-.09" transform="translate(0)"/><path class="cls-2" d="M291.55,69.24l.14-.09.14-.14s0-.05.05-.08" transform="translate(0)"/><line class="cls-2" x1="291.32" y1="69.29" x2="291.33" y2="69.29"/><polyline class="cls-2" points="402.29 63.94 401.81 63.94 401.49 63.94 291.96 64.35"/><polyline class="cls-2" points="291.98 68.75 401.5 68.33 401.79 68.33 402.36 68.33"/><line class="cls-2" x1="402.14" y1="68.78" x2="405.15" y2="68.75"/><line class="cls-2" x1="405.14" y1="63.48" x2="402.05" y2="63.47"/><path class="cls-2" d="M402.83,64.68a.07.07,0,0,0,0,.06" transform="translate(0)"/><path class="cls-2" d="M402.8,64.74a.06.06,0,0,0,0,.06" transform="translate(0)"/><path class="cls-2" d="M405.71,63.91l0-.08a.7.7,0,0,0-.14-.16.48.48,0,0,0-.15-.11h0l-.12-.06h0" transform="translate(0)"/><path class="cls-2" d="M405.22,68.75a.21.21,0,0,0,.11,0h0l.15-.11s.05-.06.08-.08" transform="translate(0)"/><path class="cls-2" d="M1.34,65a.33.33,0,0,0-.1,0,.42.42,0,0,0-.15,0l-.16.1-.11.13" transform="translate(0)"/><path class="cls-2" d="M.9,70.08a.08.08,0,0,0,0,0,.48.48,0,0,0,.15.11.3.3,0,0,0,.15,0h.09" transform="translate(0)"/><line class="cls-2" x1="4.35" y1="64.99" x2="1.28" y2="65.03"/><line class="cls-2" x1="1.33" y1="70.29" x2="4.38" y2="70.32"/><path class="cls-2" d="M2.28,69.63h0a0,0,0,0,1,0,0h0" transform="translate(0)"/><path class="cls-2" d="M2.16,69.74s0,0,0,0l.05-.06,0,0h0" transform="translate(0)"/><path class="cls-2" d="M1.61,70.28l.09,0,.14-.1A.93.93,0,0,0,2,70s.09-.13.14-.19l0-.08h0" transform="translate(0)"/><line class="cls-2" x1="1.07" y1="65.79" x2="1.02" y2="65.79"/><polyline class="cls-2" points="132.54 64.97 132.11 64.97 132 64.97 131.71 64.97 4.93 65.46"/><polyline class="cls-2" points="4.96 69.84 131.72 69.36 132.02 69.36 132.14 69.36 132.54 69.36 132.56 69.36"/><line class="cls-2" x1="133.04" y1="64.41" x2="132.43" y2="64.45"/><line class="cls-2" x1="132.41" y1="69.88" x2="133.07" y2="69.9"/><polyline class="cls-2" points="290.6 63.86 290.38 63.86 133.25 64.46"/><polyline class="cls-2" points="133.27 69.87 290.4 69.26 290.63 69.26"/><polyline class="cls-2" points="290.38 63.86 290.39 63.85 290.54 63.8 290.62 63.8 290.7 63.8 290.72 63.8 290.86 63.87 291.01 64 291.15 64.17 291.28 64.41 291.4 64.7 291.5 65.03 291.57 65.4 291.62 65.77 291.66 66.18 291.68 66.59 291.66 67.01 291.62 67.41 291.57 67.79 291.49 68.14 291.38 68.47 291.27 68.75 291.15 68.97 291 69.15 290.84 69.26 290.69 69.31 290.53 69.31 290.4 69.26"/><line class="cls-2" x1="291.33" y1="69.29" x2="291.35" y2="69.29"/><polyline class="cls-2" points="291.89 64.24 291.91 64.28 291.96 64.35 292.04 64.5 292.14 64.78 292.24 65.09 292.32 65.43 292.37 65.8 292.4 66.19 292.42 66.59 292.4 66.98 292.37 67.37 292.3 67.74 292.23 68.08 292.14 68.38 292.03 68.64 291.98 68.72 291.98 68.75 291.9 68.87 291.89 68.88"/><polyline class="cls-2" points="401.5 68.33 401.55 68.42 401.69 68.59 401.84 68.72 401.99 68.78 402.08 68.78 402.14 68.78 402.29 68.73 402.43 68.62 402.57 68.46 402.7 68.23 402.81 67.97 402.91 67.66 402.99 67.31 403.04 66.94 403.07 66.57 403.09 66.16 403.07 65.77 403.04 65.38 402.99 65.01 402.91 64.67 402.82 64.35 402.71 64.07 402.58 63.85 402.44 63.67 402.29 63.55 402.14 63.48 402.05 63.47 401.99 63.47 401.84 63.53 401.7 63.65 401.56 63.81 401.49 63.94"/><line class="cls-2" x1="405.18" y1="63.49" x2="405.14" y2="63.48"/><polyline class="cls-2" points="405.15 68.75 405.18 68.75 405.19 68.75"/><polyline class="cls-2" points="401.79 68.33 401.81 68.36 401.95 68.43 402.09 68.46 402.24 68.41 402.36 68.33 402.37 68.33 402.38 68.32 402.51 68.15 402.62 67.95 402.72 67.7 402.81 67.4 402.87 67.08 402.92 66.73 402.95 66.37 402.95 65.99 402.92 65.62 402.88 65.27 402.81 64.94 402.73 64.64 402.63 64.38 402.51 64.16 402.38 64 402.31 63.94 402.29 63.94 402.24 63.9 402.11 63.85 401.97 63.86 401.83 63.92 401.81 63.94"/><polyline class="cls-2" points="402.82 64.8 402.83 64.8 402.85 64.79 402.86 64.77 402.86 64.74 402.86 64.72 402.85 64.69 402.83 64.68 402.82 64.68"/><polyline class="cls-2" points="405.72 63.95 405.76 64 405.87 64.24 405.97 64.53 406.06 64.84 406.12 65.19 406.17 65.57 406.19 65.96 406.19 66.34 406.17 66.73 406.12 67.1 406.06 67.45 405.97 67.76 405.86 68.04 405.74 68.27 405.63 68.43"/><line class="cls-2" x1="1.33" y1="70.29" x2="1.31" y2="70.29"/><line class="cls-2" x1="1.28" y1="65.03" x2="1.33" y2="65.04"/><polyline class="cls-2" points="0.25 67.64 0.25 68.02 0.29 68.41 0.35 68.77 0.43 69.1 0.51 69.41 0.63 69.67 0.75 69.89 0.88 70.04"/><polyline class="cls-2" points="1.55 70.07 1.61 70 1.75 69.82 1.86 69.59 1.98 69.31 2.05 69 2.13 68.64 2.16 68.28 2.19 67.89 2.19 67.5 2.18 67.12 2.13 66.74 2.06 66.39 1.98 66.08 1.87 65.79 1.75 65.55 1.62 65.36 1.48 65.22 1.47 65.21"/><polyline class="cls-2" points="0.78 65.38 0.75 65.41 0.63 65.62 0.53 65.88 0.43 66.18 0.35 66.5 0.29 66.87 0.26 67.25 0.25 67.64"/><polyline class="cls-2" points="4.36 64.99 4.46 65.01 4.61 65.07 4.75 65.19 4.88 65.37 4.93 65.46 5.01 65.6 5.12 65.88 5.21 66.19 5.29 66.53 5.35 66.91 5.38 67.3 5.39 67.69 5.38 68.09 5.34 68.47 5.29 68.83 5.21 69.19 5.11 69.49 5 69.75 4.95 69.84 4.87 69.98 4.75 70.14 4.59 70.26 4.44 70.31 4.38 70.32"/><path class="cls-2" d="M2.33,69.6H2.27a.06.06,0,0,0,0,0,.07.07,0,0,0-.05,0,.35.35,0,0,0-.06.09" transform="translate(0)"/><path class="cls-2" d="M1.61,70.28a.93.93,0,0,0,.5-.51" transform="translate(0)"/><polyline class="cls-2" points="2.11 70.28 1.61 70.28 1.6 70.28"/><path class="cls-2" d="M2.14,70.28a.88.88,0,0,0,.51-.51" transform="translate(0)"/><path class="cls-2" d="M2.57,69.59h.06a0,0,0,0,1,0,0s0,0,0,0,0,0,0,0v0s0,0,0,0a.08.08,0,0,1,0,0" transform="translate(0)"/><line class="cls-2" x1="2.33" y1="69.6" x2="2.57" y2="69.59"/><polyline class="cls-2" points="0.87 66.28 0.8 66 0.8 65.96"/><line class="cls-2" x1="0.8" y1="65.96" x2="0.78" y2="66"/><line class="cls-2" x1="0.78" y1="66" x2="0.87" y2="66.37"/><polyline class="cls-2" points="0.87 66.37 0.92 66.28 0.94 66.23"/><line class="cls-2" x1="0.94" y1="66.23" x2="0.93" y2="66.19"/><line class="cls-2" x1="0.93" y1="66.19" x2="0.87" y2="66.28"/><line class="cls-2" x1="1.65" y1="65.94" x2="1.56" y2="66.24"/><line class="cls-2" x1="1.56" y1="66.24" x2="1.77" y2="66.37"/><polyline class="cls-2" points="1.77 66.37 1.75 66.3 1.69 66.08 1.65 65.94"/><line class="cls-2" x1="1.46" y1="65.75" x2="1.42" y2="65.72"/><line class="cls-2" x1="1.42" y1="65.72" x2="1.37" y2="65.85"/><path class="cls-2" d="M1.38,65.85h0s0,0,0,0" transform="translate(0)"/><line class="cls-2" x1="1.35" y1="65.89" x2="1.37" y2="65.69"/><line class="cls-2" x1="1.37" y1="65.69" x2="1.35" y2="65.67"/><line class="cls-2" x1="1.35" y1="65.67" x2="1.31" y2="66.09"/><line class="cls-2" x1="1.31" y1="66.09" x2="1.33" y2="66.1"/><polyline class="cls-2" points="1.33 66.1 1.33 66.09 1.34 65.95"/><line class="cls-2" x1="1.35" y1="65.95" x2="1.36" y2="65.91"/><line class="cls-2" x1="1.36" y1="65.91" x2="1.4" y2="66.14"/><line class="cls-2" x1="1.4" y1="66.14" x2="1.42" y2="66.15"/><polyline class="cls-2" points="1.42 66.15 1.42 66.14 1.38 65.91 1.38 65.89"/><polyline class="cls-2" points="1.38 65.89 1.41 65.85 1.46 65.75"/><path class="cls-2" d="M1,66s0,.06,0,.09,0,0,0,0h.06" transform="translate(0)"/><path class="cls-2" d="M1.05,66.15a0,0,0,0,1,0,0s0,0,0,0h0s0,0,0,0v0a0,0,0,0,0,0,0v-.09s0,0,0,0h0" transform="translate(0)"/><path class="cls-2" d="M1.09,65.89a.16.16,0,0,0,0-.1.05.05,0,0,0,0,0s0,0,0,0H1v0" transform="translate(0)"/><path class="cls-2" d="M1,65.74H1s0,0,0,0a.08.08,0,0,0,0,0s0,0,0,0V66" transform="translate(0)"/><path class="cls-2" d="M1.24,66s0,0,0,0l0,0v0s0,0,0,0v0h0" transform="translate(0)"/><path class="cls-2" d="M1.17,65.86V65.8s0,0,0,0a.08.08,0,0,1,0,0,0,0,0,0,1,0,0h0" transform="translate(0)"/><line class="cls-2" x1="1.24" y1="65.71" x2="1.26" y2="65.71"/><polyline class="cls-2" points="1.26 65.71 1.26 65.7 1.26 65.67 1.26 65.66"/><path class="cls-2" d="M1.26,65.66h0" transform="translate(0)"/><path class="cls-2" d="M1.22,65.65h0s0,0,0,0a0,0,0,0,0,0,0s0,0,0,0v.11" transform="translate(0)"/><path class="cls-2" d="M1.15,65.87V66s0,0,0,0,0,0,0,0,0,0,0,0h0" transform="translate(0)"/><path class="cls-2" d="M1.22,66.08h0v0" transform="translate(0)"/><polyline class="cls-2" points="1.27 66.06 1.26 66.03 1.26 66.01"/><path class="cls-2" d="M1.26,66h0v0" transform="translate(0)"/><line class="cls-2" x1="2.33" y1="69.61" x2="2.33" y2="69.6"/><path class="cls-2" d="M2.56,69.61v0" transform="translate(0)"/><polyline class="cls-2" points="2.54 69.61 2.43 69.61 2.42 69.61 2.33 69.61 2.31 69.61"/><path class="cls-2" d="M2.56,69.7a.1.1,0,0,0,.09.07" transform="translate(0)"/><path class="cls-2" d="M2.55,69.61h0s0,0,0,0h0v0s0,0,0,0" transform="translate(0)"/><line class="cls-2" x1="2.55" y1="69.7" x2="2.49" y2="69.7"/><line class="cls-2" x1="1.65" y1="66.24" x2="1.56" y2="66.24"/><line class="cls-2" x1="1.65" y1="66.24" x2="1.75" y2="66.3"/><line class="cls-2" x1="1.69" y1="66.08" x2="1.65" y2="66.24"/><path class="cls-2" d="M2.14,70.28H2.09s0,0,0,0,0,0,0,0h0" transform="translate(0)"/><path class="cls-2" d="M2.07,70.21a.94.94,0,0,0,.49-.51" transform="translate(0)"/><line class="cls-2" x1="2.06" y1="70.21" x2="2.06" y2="69.92"/><line class="cls-2" x1="1.41" y1="65.85" x2="1.37" y2="65.85"/><line class="cls-2" x1="1.42" y1="66.14" x2="1.4" y2="66.14"/><line class="cls-2" x1="1.38" y1="65.91" x2="1.36" y2="65.91"/><line class="cls-2" x1="1.38" y1="65.89" x2="1.35" y2="65.89"/><line class="cls-2" x1="1.33" y1="66.09" x2="1.31" y2="66.09"/><polyline class="cls-2" points="1.26 66.03 1.25 66.03 1.23 66.03"/><polyline class="cls-2" points="1.26 65.7 1.25 65.7 1.22 65.7"/><path class="cls-2" d="M1.25,66a0,0,0,0,0,0,0h0s0,0,0,0" transform="translate(0)"/><path class="cls-2" d="M1.26,65.67s0,0,0,0h0" transform="translate(0)"/><line class="cls-2" x1="1.17" y1="65.87" x2="1.14" y2="65.87"/><line class="cls-2" x1="1.01" y1="65.74" x2="1.02" y2="65.74"/><line class="cls-2" x1="1.01" y1="65.74" x2="0.99" y2="65.74"/><line class="cls-2" x1="1.04" y1="66.1" x2="1.06" y2="66.14"/><path class="cls-2" d="M1.06,65.91a.06.06,0,0,0,0,0v0a.08.08,0,0,1,0,0v0s0,0,0,0h0" transform="translate(0)"/><path class="cls-2" d="M1,66.1H1s0,0,0,0a.07.07,0,0,1,0,0H1l0,0" transform="translate(0)"/><path class="cls-2" d="M1,66v-.13l0,0s0,0,0,0H1" transform="translate(0)"/><path class="cls-2" d="M1,65.79s0,0,0,0H1a0,0,0,0,0,0,0s0,0,0,.05v0" transform="translate(0)"/><polyline class="cls-2" points="1.09 65.9 1.08 65.9 1.06 65.91"/><polyline class="cls-2" points="1.07 66.1 1.04 66.1 1.03 66.1"/><line class="cls-2" x1="0.98" y1="66" x2="0.94" y2="66"/><line class="cls-2" x1="0.92" y1="66.28" x2="0.87" y2="66.28"/><line class="cls-2" x1="0.8" y1="66" x2="0.78" y2="66"/><polyline class="cls-2" points="134.13 67.2 134.11 66.79 134.08 66.39 134.03 66 133.95 65.65 133.85 65.32 133.74 65.04 133.6 64.8 133.46 64.61 133.31 64.49 133.25 64.46 133.16 64.43 133.04 64.41"/><polyline class="cls-2" points="133.07 69.9 133.14 69.9 133.27 69.85 133.31 69.84 133.46 69.73 133.6 69.55 133.72 69.33 133.84 69.05 133.94 68.73 134.01 68.38 134.08 68 134.11 67.6 134.13 67.2"/><polyline class="cls-2" points="131.9 64.7 131.96 64.63 132.11 64.5 132.26 64.45 132.31 64.45 132.43 64.45 132.58 64.53 132.73 64.65 132.87 64.83 132.99 65.07 133.11 65.35 133.21 65.66 133.28 66.01 133.33 66.4 133.37 66.79 133.38 67.2 133.37 67.6 133.33 68 133.27 68.38 133.19 68.72 133.09 69.03 132.98 69.31 132.85 69.54 132.72 69.7 132.56 69.82 132.41 69.88 132.34 69.88 132.25 69.87 132.1 69.8 131.96 69.68 131.88 69.59"/><polyline class="cls-2" points="133.32 67.2 133.31 66.81 133.27 66.42 133.22 66.04 133.14 65.69 133.04 65.37 132.93 65.11 132.8 64.87 132.66 64.69 132.53 64.58 132.38 64.5 132.29 64.5"/><path class="cls-2" d="M132.1,64.54a.74.74,0,0,0-.2.16s0,0,0,0a.76.76,0,0,0-.15.23" transform="translate(0)"/><path class="cls-2" d="M131.73,69.36a1.06,1.06,0,0,0,.16.23,1.16,1.16,0,0,0,.2.18" transform="translate(0)"/><polyline class="cls-2" points="132.38 69.83 132.51 69.77 132.66 69.65 132.8 69.49 132.93 69.27 133.04 69 133.13 68.69 133.21 68.36 133.27 67.98 133.31 67.6 133.32 67.2"/><polyline class="cls-2" points="133.18 67.2 133.17 67.56 133.13 67.93 133.08 68.27 133 68.58 132.91 68.86 132.79 69.09 132.69 69.24 132.66 69.27 132.54 69.4 132.4 69.46 132.32 69.48"/><path class="cls-2" d="M132,69.36a.42.42,0,0,0,.24.12" transform="translate(0)"/><line class="cls-2" x1="132" y1="64.97" x2="132.11" y2="64.89"/><polyline class="cls-2" points="132.58 64.98 132.68 65.08 132.8 65.27 132.92 65.51 133 65.8 133.08 66.11 133.13 66.45 133.17 66.82 133.18 67.2"/><polyline class="cls-2" points="132.39 64.87 132.4 64.87 132.53 64.94"/><path class="cls-2" d="M132.14,69.36a.41.41,0,0,0,.4,0,.74.74,0,0,0,.16-.12" transform="translate(0)"/><path class="cls-2" d="M132.68,65.08a.32.32,0,0,0-.1-.1s0,0-.05,0a.4.4,0,0,0-.41,0" transform="translate(0)"/><polyline class="cls-2" points="291.65 66.59 291.64 66.19 291.61 65.8 291.55 65.42 291.47 65.07 291.38 64.74 291.27 64.46 291.13 64.24 291 64.06 290.86 63.94 290.7 63.86 290.6 63.86"/><polyline class="cls-2" points="290.63 69.26 290.69 69.25 290.84 69.2 291 69.09 291.13 68.91 291.26 68.69 291.37 68.42 291.47 68.1 291.55 67.76 291.6 67.39 291.64 67 291.65 66.59"/><polyline class="cls-2" points="134.11 67.2 134.1 66.79 134.08 66.48"/><path class="cls-2" d="M134,68.37a5.81,5.81,0,0,0,.12-1.17" transform="translate(0)"/><polyline class="cls-2" points="292.37 66.59 292.36 66.18 292.33 65.79 292.27 65.4 292.19 65.04 292.09 64.72 291.98 64.44 291.85 64.2 291.71 64.02 291.56 63.9 291.45 63.84 291.41 63.82 291.36 63.82 291.32 63.82"/><polyline class="cls-2" points="291.35 69.29 291.4 69.29 291.55 69.24 291.7 69.11 291.84 68.95 291.98 68.72 292.09 68.44 292.19 68.13 292.27 67.78 292.32 67.4 292.36 67 292.37 66.59"/><polyline class="cls-2" points="406.15 66.15 406.13 65.75 406.11 65.36 406.05 64.98 405.97 64.63 405.87 64.31 405.76 64.05 405.63 63.82 405.49 63.66 405.34 63.55 405.19 63.49 405.18 63.49"/><polyline class="cls-2" points="405.19 68.75 405.2 68.75 405.21 68.75 405.33 68.71 405.48 68.61 405.62 68.44 405.63 68.43 405.74 68.23 405.86 67.97 405.96 67.66 406.05 67.32 406.1 66.94 406.13 66.56 406.15 66.15"/><polyline class="cls-2" points="2.3 67.7 2.29 68.1 2.25 68.49 2.2 68.86 2.11 69.21 2.02 69.51 1.9 69.78 1.77 69.99 1.64 70.16 1.48 70.26 1.33 70.29"/><polyline class="cls-2" points="1.33 65.04 1.34 65.04 1.5 65.09 1.65 65.21 1.79 65.37 1.91 65.6 2.02 65.86 2.13 66.18 2.2 66.53 2.27 66.91 2.29 67.3 2.3 67.7"/><path class="cls-2" d="M.88,70a.46.46,0,0,0,.66,0,0,0,0,0,0,0,0" transform="translate(0)"/><path class="cls-2" d="M1.48,65.21a.49.49,0,0,0-.67.14s0,0,0,0" transform="translate(0)"/><path class="cls-2" d="M2.11,69.77s0,0,.05,0" transform="translate(0)"/><path class="cls-2" d="M2.5,69.7a.11.11,0,0,0-.07-.09" transform="translate(0)"/><path class="cls-2" d="M2.42,69.61a.14.14,0,0,0,.08.09" transform="translate(0)"/><polyline class="cls-2" points="132.29 64.5 132.22 64.5 132.1 64.54"/><path class="cls-2" d="M132.09,69.77a.49.49,0,0,0,.29.06" transform="translate(0)"/><line class="cls-2" x1="132.33" y1="69.48" x2="132.26" y2="69.48"/><path class="cls-2" d="M132.39,64.87a.32.32,0,0,0-.27,0" transform="translate(0)"/></g><g id="LWPOLYLINE"><polygon class="cls-8" points="291.74 25.96 291.74 26.36 291.7 26.75 291.64 27.13 291.56 27.48 291.46 27.8 291.35 28.06 291.22 28.29 291.08 28.45 290.93 28.57 290.78 28.63 290.72 28.63 290.49 28.63 133.36 29.23 133.4 29.22 133.55 29.09 133.69 28.93 133.81 28.7 133.94 28.43 134.03 28.11 134.11 27.76 134.16 27.37 134.2 26.98 134.21 26.56 134.2 26.16 134.18 25.76 134.11 25.37 134.04 25.01 133.94 24.69 133.82 24.41 133.7 24.17 133.56 23.99 133.41 23.87 133.33 23.83 290.48 23.23 290.69 23.23 290.79 23.24 290.94 23.3 291.1 23.43 291.23 23.6 291.36 23.84 291.47 24.12 291.56 24.43 291.65 24.79 291.7 25.16 291.74 25.56 291.74 25.96"/><line class="cls-2" x1="290.78" y1="28.69" x2="291.42" y2="28.67"/><polyline class="cls-2" points="291.36 23.19 290.79 23.16 290.72 23.16"/><path class="cls-2" d="M129.31,23.92h-.06a.54.54,0,0,0-.29.14.86.86,0,0,0-.13.14" transform="translate(0)"/><path class="cls-2" d="M128.91,29a.05.05,0,0,1,0,0,.91.91,0,0,0,.16.11l.14.05h.13" transform="translate(0)"/><polyline class="cls-2" points="132.31 23.87 132.24 23.87 129.35 23.92"/><polyline class="cls-2" points="129.32 29.18 132.22 29.2 132.32 29.2"/><path class="cls-2" d="M130.29,28.5h0" transform="translate(0)"/><path class="cls-2" d="M130.18,28.62v0s0,0,0-.05l0,0s0,0,0,0" transform="translate(0)"/><path class="cls-2" d="M129.65,29.14h.06l.15-.09a1,1,0,0,0,.14-.15.44.44,0,0,0,.08-.1l0-.09a.24.24,0,0,0,0-.07" transform="translate(0)"/><line class="cls-2" x1="129.08" y1="24.66" x2="129.04" y2="24.66"/><line class="cls-2" x1="133.14" y1="23.79" x2="132.4" y2="23.82"/><line class="cls-2" x1="132.5" y1="29.25" x2="133.16" y2="29.27"/><polyline class="cls-2" points="290.69 23.23 290.48 23.23 133.33 23.83"/><polyline class="cls-2" points="133.36 29.23 290.49 28.63 290.72 28.63"/><polyline class="cls-2" points="290.48 23.23 290.63 23.16 290.79 23.18 290.94 23.24 291.1 23.36 291.25 23.55 291.37 23.79 291.49 24.07 291.59 24.4 291.66 24.76 291.73 25.15 291.76 25.56 291.76 25.96 291.75 26.37 291.73 26.78 291.66 27.16 291.59 27.52 291.49 27.84 291.36 28.11 291.23 28.34 291.1 28.52 290.94 28.63 290.78 28.69 290.73 28.69 290.63 28.68 290.49 28.63"/><line class="cls-2" x1="291.42" y1="28.67" x2="291.44" y2="28.67"/><path class="cls-2" d="M291.43,23.19h-.07" transform="translate(0)"/><path class="cls-2" d="M292,23.57l-.08-.12-.15-.14-.09,0-.07-.05h-.08" transform="translate(0)"/><path class="cls-2" d="M291.64,28.6a.31.31,0,0,0,.14-.07.67.67,0,0,0,.14-.15l.06-.08" transform="translate(0)"/><path class="cls-2" d="M291.43,28.65s0,0,0,0h0l.15-.05" transform="translate(0)"/><polyline class="cls-2" points="291.98 23.62 292 23.64 292.13 23.87 292.24 24.14 292.33 24.46 292.4 24.8 292.45 25.18 292.49 25.57 292.51 25.96 292.49 26.35 292.45 26.74 292.4 27.1 292.33 27.44 292.23 27.76 292.12 28.02 291.99 28.24 291.99 28.25"/><path class="cls-2" d="M129.36,29.17h0" transform="translate(0)"/><line class="cls-2" x1="129.3" y1="23.92" x2="129.35" y2="23.92"/><polyline class="cls-2" points="128.26 26.51 128.27 26.9 128.31 27.28 128.36 27.65 128.44 27.99 128.52 28.29 128.64 28.55 128.76 28.77 128.9 28.93"/><polyline class="cls-2" points="129.56 28.95 129.63 28.88 129.76 28.7 129.88 28.46 129.98 28.19 130.07 27.87 130.13 27.53 130.19 27.16 130.21 26.78 130.21 26.39 130.19 26 130.15 25.63 130.07 25.28 130 24.95 129.88 24.66 129.77 24.42 129.64 24.23 129.49 24.09"/><polyline class="cls-2" points="128.8 24.26 128.78 24.3 128.65 24.5 128.53 24.75 128.44 25.05 128.36 25.39 128.31 25.75 128.27 26.12 128.26 26.51"/><polyline class="cls-2" points="132.75 29.02 132.6 29.13 132.45 29.18 132.39 29.2"/><polyline class="cls-2" points="133.36 27.36 133.29 27.72 133.22 28.06 133.13 28.36"/><path class="cls-2" d="M130.35,28.48h-.07l-.05,0,0,.06s0,.05-.07.08" transform="translate(0)"/><path class="cls-2" d="M129.61,29.17h0a0,0,0,0,0,0,0,.85.85,0,0,0,.46-.49" transform="translate(0)"/><line class="cls-2" x1="130.16" y1="29.17" x2="129.61" y2="29.17"/><path class="cls-2" d="M130.16,29.17a1,1,0,0,0,.51-.53" transform="translate(0)"/><path class="cls-2" d="M130.59,28.48h.07s0,0,0,0v.13" transform="translate(0)"/><line class="cls-2" x1="130.35" y1="28.48" x2="130.59" y2="28.48"/><polyline class="cls-2" points="128.89 25.15 128.82 24.88 128.81 24.85"/><line class="cls-2" x1="128.81" y1="24.85" x2="128.79" y2="24.88"/><line class="cls-2" x1="128.79" y1="24.88" x2="128.88" y2="25.24"/><polyline class="cls-2" points="128.88 25.24 128.93 25.15 128.95 25.11"/><line class="cls-2" x1="128.95" y1="25.11" x2="128.95" y2="25.06"/><line class="cls-2" x1="128.95" y1="25.06" x2="128.89" y2="25.15"/><line class="cls-2" x1="129.66" y1="24.81" x2="129.58" y2="25.13"/><line class="cls-2" x1="129.58" y1="25.13" x2="129.78" y2="25.24"/><polyline class="cls-2" points="129.78 25.24 129.77 25.19 129.69 24.96 129.66 24.81"/><line class="cls-2" x1="129.47" y1="24.62" x2="129.44" y2="24.61"/><line class="cls-2" x1="129.44" y1="24.61" x2="129.38" y2="24.72"/><path class="cls-2" d="M129.38,24.72v0a0,0,0,0,0,0,0" transform="translate(0)"/><line class="cls-2" x1="129.37" y1="24.76" x2="129.38" y2="24.57"/><line class="cls-2" x1="129.38" y1="24.57" x2="129.35" y2="24.55"/><line class="cls-2" x1="129.35" y1="24.55" x2="129.32" y2="24.96"/><line class="cls-2" x1="129.32" y1="24.96" x2="129.34" y2="24.98"/><polyline class="cls-2" points="129.34 24.98 129.34 24.96 129.35 24.82"/><line class="cls-2" x1="129.35" y1="24.83" x2="129.38" y2="24.8"/><line class="cls-2" x1="129.38" y1="24.8" x2="129.4" y2="25.01"/><line class="cls-2" x1="129.4" y1="25.01" x2="129.44" y2="25.04"/><polyline class="cls-2" points="129.44 25.04 129.4 24.8 129.4 24.76"/><polyline class="cls-2" points="129.4 24.76 129.42 24.73 129.47 24.62"/><path class="cls-2" d="M129,24.89a.31.31,0,0,0,0,.09s0,0,0,0l0,0h0" transform="translate(0)"/><path class="cls-2" d="M129.06,25s0,0,0,0,0,0,0,0h0s0,0,0,0v-.18" transform="translate(0)"/><path class="cls-2" d="M129,24.6h0" transform="translate(0)"/><path class="cls-2" d="M129.11,24.76a.47.47,0,0,1,0-.09h0s0,0,0,0,0,0,0,0" transform="translate(0)"/><path class="cls-2" d="M129,24.61s0,0,0,0,0,0,0,0,0,0,0,0a.15.15,0,0,1,0,.06v.1s0,0,0,0" transform="translate(0)"/><path class="cls-2" d="M129.25,24.9h0a0,0,0,0,1,0,0s0,0,0,0v-.05a.08.08,0,0,1,0,0" transform="translate(0)"/><path class="cls-2" d="M129.18,24.75v0s0,0,0,0v0s0,0,0,0a0,0,0,0,0,0,0s0,0,0,0" transform="translate(0)"/><path class="cls-2" d="M129.26,24.59h0" transform="translate(0)"/><line class="cls-2" x1="129.28" y1="24.55" x2="129.28" y2="24.54"/><line class="cls-2" x1="129.27" y1="24.59" x2="129.27" y2="24.57"/><path class="cls-2" d="M129.28,24.54h0s0,0,0,0h0" transform="translate(0)"/><path class="cls-2" d="M129.25,24.52s0,0,0,0a0,0,0,0,0,0,0s0,0,0,0a0,0,0,0,1,0,0v0a0,0,0,0,1,0,0v.08" transform="translate(0)"/><path class="cls-2" d="M129.16,24.75a.28.28,0,0,0,0,.1s0,0,0,0,0,0,0,0h.06" transform="translate(0)"/><path class="cls-2" d="M129.25,25h0" transform="translate(0)"/><polyline class="cls-2" points="129.28 24.94 129.28 24.9 129.28 24.89"/><path class="cls-2" d="M129.28,24.89h0" transform="translate(0)"/><polyline class="cls-2" points="130.56 28.5 130.45 28.5 130.44 28.5 130.34 28.5"/><path class="cls-2" d="M130.58,28.5h0s0,0,0,0,0,0,0,0l0,0" transform="translate(0)"/><line class="cls-2" x1="130.56" y1="28.58" x2="130.5" y2="28.58"/><line class="cls-2" x1="129.66" y1="25.13" x2="129.58" y2="25.13"/><line class="cls-2" x1="129.66" y1="25.13" x2="129.77" y2="25.19"/><line class="cls-2" x1="129.69" y1="24.96" x2="129.66" y2="25.13"/><path class="cls-2" d="M130.16,29.17h0a0,0,0,0,1,0,0h0v0s0,0,0,0" transform="translate(0)"/><path class="cls-2" d="M130.08,29.08a.92.92,0,0,0,.49-.5" transform="translate(0)"/><line class="cls-2" x1="130.07" y1="29.08" x2="130.07" y2="28.79"/><line class="cls-2" x1="129.43" y1="25.01" x2="129.4" y2="25.01"/><line class="cls-2" x1="129.4" y1="24.8" x2="129.38" y2="24.8"/><line class="cls-2" x1="129.4" y1="24.76" x2="129.37" y2="24.76"/><line class="cls-2" x1="129.34" y1="24.96" x2="129.32" y2="24.96"/><polyline class="cls-2" points="129.28 24.9 129.25 24.9 129.24 24.9"/><line class="cls-2" x1="129.25" y1="24.57" x2="129.24" y2="24.57"/><line class="cls-2" x1="129.28" y1="24.57" x2="129.27" y2="24.57"/><line class="cls-2" x1="129.01" y1="24.61" x2="129.03" y2="24.61"/><path class="cls-2" d="M129.08,24.79v.12s0,0,0,0v0" transform="translate(0)"/><path class="cls-2" d="M129.06,25h0s0,0,0,0,0,0,0-.05h0v0" transform="translate(0)"/><path class="cls-2" d="M129,24.86a.43.43,0,0,1,0-.05v0s0,0,0,0v0s0,0,0,0h0" transform="translate(0)"/><path class="cls-2" d="M129,24.66h0s0,0,0,0,0,0,0,0,0,0,0,.06,0,0,0,0" transform="translate(0)"/><line class="cls-2" x1="129.09" y1="24.98" x2="129.05" y2="24.98"/><line class="cls-2" x1="129.42" y1="24.72" x2="129.38" y2="24.72"/><path class="cls-2" d="M129.26,24.9s0,0,0,0" transform="translate(0)"/><path class="cls-2" d="M129.28,24.55s0,0,0,0h0v0" transform="translate(0)"/><line class="cls-2" x1="129.18" y1="24.75" x2="129.15" y2="24.75"/><line class="cls-2" x1="129.01" y1="24.61" x2="129" y2="24.61"/><line class="cls-2" x1="129.1" y1="24.79" x2="129.08" y2="24.79"/><line class="cls-2" x1="128.99" y1="24.88" x2="128.96" y2="24.89"/><line class="cls-2" x1="128.93" y1="25.15" x2="128.89" y2="25.15"/><line class="cls-2" x1="128.82" y1="24.88" x2="128.79" y2="24.88"/><polyline class="cls-2" points="134.21 26.56 134.2 26.16 134.18 25.76 134.11 25.37 134.04 25.01 133.94 24.69 133.82 24.41 133.7 24.17 133.56 23.99 133.41 23.87 133.33 23.83 133.25 23.79 133.14 23.79"/><polyline class="cls-2" points="133.16 29.27 133.25 29.27 133.36 29.23 133.4 29.22 133.55 29.09 133.69 28.93 133.81 28.7 133.94 28.43 134.03 28.11 134.11 27.76 134.16 27.37 134.2 26.98 134.21 26.56"/><polyline class="cls-2" points="132.21 23.88 132.24 23.87 132.36 23.82 132.4 23.82 132.51 23.83 132.66 23.89 132.82 24.02 132.96 24.2 133.08 24.43 133.19 24.71 133.29 25.04 133.37 25.39 133.42 25.77 133.46 26.16 133.47 26.58 133.46 26.98 133.42 27.37 133.37 27.75 133.28 28.1 133.19 28.4 133.08 28.68 132.94 28.91 132.8 29.07 132.65 29.2 132.5 29.25 132.43 29.25 132.35 29.25 132.22 29.2"/><polyline class="cls-2" points="133.41 26.56 133.4 26.17 133.36 25.78 133.31 25.41 133.23 25.07 133.13 24.75 133.03 24.47 132.91 24.25 132.77 24.07 132.62 23.94 132.46 23.88 132.38 23.87"/><polyline class="cls-2" points="132.46 29.2 132.6 29.14 132.75 29.03 132.75 29.02 132.89 28.86 133.02 28.64 133.13 28.38 133.13 28.36 133.23 28.06 133.31 27.72 133.36 27.36 133.4 26.97 133.41 26.56"/><polyline class="cls-2" points="291.74 25.96 291.74 25.56 291.7 25.16 291.65 24.79 291.56 24.43 291.47 24.12 291.36 23.84 291.23 23.6 291.1 23.43 290.94 23.3 290.79 23.24 290.69 23.23"/><polyline class="cls-2" points="290.72 28.63 290.78 28.63 290.93 28.57 291.08 28.45 291.22 28.29 291.35 28.06 291.46 27.8 291.56 27.48 291.64 27.13 291.7 26.75 291.74 26.36 291.74 25.96"/><polyline class="cls-2" points="292.47 25.96 292.45 25.56 292.42 25.15 292.36 24.77 292.28 24.41 292.19 24.08 292.08 23.8 291.98 23.62 291.94 23.57 291.8 23.39 291.65 23.26 291.5 23.2 291.42 23.19"/><polyline class="cls-2" points="291.44 28.67 291.46 28.67 291.49 28.65 291.62 28.61 291.64 28.6 291.79 28.49 291.94 28.31 291.99 28.24 292.06 28.09 292.18 27.81 292.28 27.5 292.36 27.14 292.42 26.76 292.45 26.37 292.47 25.96"/><polyline class="cls-2" points="130.32 26.58 130.31 26.98 130.27 27.37 130.21 27.75 130.13 28.09 130.03 28.39 129.92 28.65 129.79 28.87 129.64 29.03 129.5 29.13 129.35 29.17"/><polyline class="cls-2" points="129.35 23.92 129.5 23.97 129.66 24.08 129.79 24.25 129.92 24.47 130.05 24.75 130.13 25.07 130.22 25.41 130.27 25.78 130.31 26.17 130.32 26.58"/><path class="cls-2" d="M128.91,28.93a.47.47,0,0,0,.65,0h0" transform="translate(0)"/><path class="cls-2" d="M129.5,24.1a.48.48,0,0,0-.68.13,0,0,0,0,1,0,0" transform="translate(0)"/><path class="cls-2" d="M130.33,28.5h0v0" transform="translate(0)"/><path class="cls-2" d="M130.57,28.5s0,0,0,0a0,0,0,0,1,0,0" transform="translate(0)"/><path class="cls-2" d="M130.57,28.58a.09.09,0,0,0,.1.06" transform="translate(0)"/><polyline class="cls-2" points="134.2 26.56 134.19 26.16 134.15 25.77 134.1 25.39 134.03 25.04 133.93 24.73 133.81 24.43 133.69 24.21 133.55 24.03 133.4 23.91 133.25 23.84 133.16 23.83"/><polyline class="cls-2" points="134.19 27 134.19 26.97 134.2 26.56"/><path class="cls-2" d="M130.11,28.65a.06.06,0,0,0,0,0h0" transform="translate(0)"/><path class="cls-2" d="M130.5,28.58a.08.08,0,0,0-.05-.08" transform="translate(0)"/><path class="cls-2" d="M130.43,28.49h0a.1.1,0,0,0,.06.08" transform="translate(0)"/><polyline class="cls-2" points="132.38 23.87 132.31 23.87 132.3 23.88"/><polyline class="cls-2" points="132.32 29.2 132.39 29.2 132.45 29.2 132.46 29.2"/></g><line class="cls-9" x1="128.25" y1="19.59" x2="128.25" y2="8.88"/><line class="cls-9" x1="406.19" y1="19.59" x2="406.19" y2="8.88"/><line class="cls-9" x1="128.96" y1="12.45" x2="405.52" y2="12.45"/><polygon class="cls-10" points="130.43 13.25 130.52 13.01 128.98 12.45 130.52 11.89 130.43 11.66 128.25 12.45 130.43 13.25"/><polygon class="cls-10" points="404.04 13.25 403.96 13.01 405.5 12.45 403.96 11.89 404.04 11.66 406.23 12.45 404.04 13.25"/><text class="cls-11" transform="translate(258.63 9.89)">1<tspan class="cls-12" x="4.04" y="0">7</tspan><tspan class="cls-13" x="8.54" y="0">7</tspan><tspan class="cls-14" x="12.84" y="0">0</tspan></text><line class="cls-9" x1="0.32" y1="59.9" x2="0.32" y2="49.19"/><line class="cls-9" x1="406.13" y1="59.9" x2="406.13" y2="49.19"/><line class="cls-9" x1="1.02" y1="52.76" x2="405.46" y2="52.76"/><polygon class="cls-10" points="2.5 53.56 2.59 53.32 1.05 52.76 2.59 52.2 2.5 51.97 0.32 52.76 2.5 53.56"/><polygon class="cls-10" points="403.98 53.56 403.9 53.32 405.44 52.76 403.9 52.2 403.98 51.97 406.17 52.76 403.98 53.56"/><text class="cls-15" transform="translate(194.26 50.2)">2<tspan class="cls-16" x="4.61" y="0">5</tspan><tspan class="cls-17" x="8.95" y="0">9</tspan><tspan class="cls-14" x="13.6" y="0">0</tspan></text><text class="cls-18" transform="translate(65.9 30.37)">（<tspan class="cls-19" x="10.5" y="0">収</tspan><tspan class="cls-20" x="21.3" y="0">納</tspan><tspan x="31.77" y="0">時</tspan><tspan class="cls-21" x="42.27" y="0">）</tspan></text></g></g></svg>