<svg xmlns="http://www.w3.org/2000/svg" viewBox="0 0 292.67 67.39"><defs><style>.cls-1,.cls-2{fill:none;stroke-miterlimit:10;}.cls-1{stroke:#221714;stroke-width:0.5px;}.cls-2{stroke:#231815;stroke-width:0.25px;}.cls-11,.cls-3,.cls-4,.cls-8{fill:#231815;}.cls-4,.cls-8{font-size:8px;}.cls-11,.cls-4,.cls-8{font-family:YuMin-Medium-83pv-RKSJ-H, YuMincho;}.cls-4{letter-spacing:0.03em;}.cls-5{letter-spacing:0.08em;}.cls-6{letter-spacing:0.08em;}.cls-7{letter-spacing:0.05em;}.cls-8{letter-spacing:0.03em;}.cls-9{letter-spacing:0.08em;}.cls-10{letter-spacing:0.07em;}.cls-11{font-size:10px;letter-spacing:0.05em;}.cls-12{letter-spacing:0.08em;}.cls-13{letter-spacing:0.05em;}.cls-14{letter-spacing:-0.45em;}</style></defs><title>info01</title><g id="レイヤー_2" data-name="レイヤー 2"><g id="レイヤー_2-2" data-name="レイヤー 2"><g id="LINE"><line class="cls-1" x1="290.65" y1="66.15" x2="291.35" y2="66.12"/></g><g id="LINE-2" data-name="LINE"><line class="cls-1" x1="291.33" y1="60.64" x2="290.63" y2="60.62"/></g><g id="SPLINE"><path class="cls-1" d="M291.88,61l-.08-.11a.5.5,0,0,0-.15-.14l-.16-.1a.45.45,0,0,0-.16,0h-.06"/></g><g id="SPLINE-2" data-name="SPLINE"><path class="cls-1" d="M291.33,66.11h.05a.43.43,0,0,0,.16-.05l.15-.09a.92.92,0,0,0,.14-.14.41.41,0,0,0,.05-.09"/></g><g id="SPLINE-3" data-name="SPLINE"><path class="cls-1" d="M1.35,61.87H1.23l-.15,0a.71.71,0,0,0-.14.1.5.5,0,0,0-.12.13"/></g><g id="SPLINE-4" data-name="SPLINE"><path class="cls-1" d="M.89,66.91l0,0a.57.57,0,0,0,.16.11.34.34,0,0,0,.14,0h.12"/></g><g id="LINE-3" data-name="LINE"><line class="cls-1" x1="4.36" y1="61.82" x2="1.29" y2="61.86"/></g><g id="LINE-4" data-name="LINE"><line class="cls-1" x1="1.31" y1="67.12" x2="4.38" y2="67.14"/></g><g id="SPLINE-5" data-name="SPLINE"><path class="cls-1" d="M2.28,66.45h.05"/></g><g id="SPLINE-6" data-name="SPLINE"><path class="cls-1" d="M2.15,66.58l0,0,0-.05,0,0,0,0"/></g><g id="SPLINE-7" data-name="SPLINE"><path class="cls-1" d="M1.61,67.11l.09,0A1.19,1.19,0,0,0,1.85,67,1,1,0,0,0,2,66.84a.91.91,0,0,0,.13-.19l.05-.09"/></g><g id="LINE-5" data-name="LINE"><line class="cls-1" x1="1.07" y1="62.61" x2="1.03" y2="62.61"/></g><g id="LINE-6" data-name="LINE"><line class="cls-1" x1="132.55" y1="61.79" x2="4.94" y2="62.28"/></g><g id="LINE-7" data-name="LINE"><line class="cls-1" x1="4.96" y1="66.67" x2="132.57" y2="66.18"/></g><g id="LINE-8" data-name="LINE"><line class="cls-1" x1="133.05" y1="61.24" x2="132.32" y2="61.27"/></g><g id="LINE-9" data-name="LINE"><line class="cls-1" x1="132.34" y1="66.7" x2="133.07" y2="66.73"/></g><g id="LINE-10" data-name="LINE"><line class="cls-1" x1="290.61" y1="60.68" x2="133.25" y2="61.28"/></g><g id="LINE-11" data-name="LINE"><line class="cls-1" x1="133.27" y1="66.69" x2="290.63" y2="66.08"/></g><g id="LWPOLYLINE"><polyline class="cls-1" points="290.39 60.68 290.39 60.68 290.55 60.62 290.71 60.63 290.86 60.7 291.01 60.82 291.15 61.01 291.29 61.24 291.4 61.53 291.5 61.85 291.58 62.22 291.63 62.6 291.67 63.01 291.68 63.42 291.67 63.83 291.63 64.23 291.57 64.61 291.49 64.97 291.39 65.29 291.28 65.57 291.15 65.8 291 65.97 290.85 66.09 290.7 66.14 290.54 66.14 290.41 66.08"/></g><g id="LINE-12" data-name="LINE"><line class="cls-1" x1="291.34" y1="66.12" x2="291.35" y2="66.12"/></g><g id="LWPOLYLINE-2" data-name="LWPOLYLINE"><polyline class="cls-1" points="291.89 61.07 291.91 61.1 292.04 61.33 292.15 61.6 292.24 61.91 292.32 62.26 292.37 62.63 292.41 63.02 292.42 63.41 292.41 63.81 292.37 64.19 292.31 64.56 292.24 64.9 292.14 65.21 292.03 65.48 291.9 65.69 291.9 65.71"/></g><g id="LWPOLYLINE-3" data-name="LWPOLYLINE"><path class="cls-1" d="M1.34,67.12h0"/></g><g id="LINE-13" data-name="LINE"><line class="cls-1" x1="1.29" y1="61.86" x2="1.34" y2="61.86"/></g><g id="LWPOLYLINE-4" data-name="LWPOLYLINE"><polyline class="cls-1" points="0.25 64.46 0.26 64.85 0.29 65.23 0.35 65.59 0.42 65.93 0.52 66.23 0.63 66.5 0.76 66.71 0.89 66.87"/></g><g id="LWPOLYLINE-5" data-name="LWPOLYLINE"><polyline class="cls-1" points="1.55 66.9 1.62 66.83 1.75 66.65 1.87 66.42 1.97 66.14 2.06 65.82 2.13 65.47 2.17 65.1 2.2 64.72 2.2 64.33 2.18 63.94 2.13 63.57 2.07 63.22 1.98 62.9 1.88 62.61 1.76 62.37 1.63 62.18 1.49 62.05 1.48 62.04"/></g><g id="LWPOLYLINE-6" data-name="LWPOLYLINE"><polyline class="cls-1" points="0.79 62.21 0.76 62.24 0.64 62.45 0.53 62.7 0.43 63 0.35 63.33 0.3 63.69 0.26 64.07 0.25 64.46"/></g><g id="LWPOLYLINE-7" data-name="LWPOLYLINE"><polyline class="cls-1" points="4.36 61.82 4.46 61.83 4.61 61.9 4.75 62.02 4.89 62.19 5.01 62.42 5.13 62.7 5.22 63.01 5.3 63.36 5.35 63.73 5.38 64.12 5.39 64.52 5.38 64.91 5.35 65.3 5.29 65.67 5.21 66.01 5.12 66.31 5.01 66.58 4.88 66.8 4.74 66.97 4.6 67.08 4.45 67.13 4.38 67.14"/></g><g id="SPLINE-8" data-name="SPLINE"><path class="cls-1" d="M2.34,66.42h0l-.05,0s0,0,0,0a.1.1,0,0,0-.05,0l-.07.08"/></g><g id="ARC"><path class="cls-1" d="M1.6,67.11a.91.91,0,0,0,.5-.52"/></g><g id="LINE-14" data-name="LINE"><line class="cls-1" x1="2.14" y1="67.11" x2="1.6" y2="67.11"/></g><g id="ARC-2" data-name="ARC"><path class="cls-1" d="M2.14,67.11a.87.87,0,0,0,.51-.52"/></g><g id="SPLINE-9" data-name="SPLINE"><path class="cls-1" d="M2.57,66.42h.07v0h0a0,0,0,0,1,0,0v0a2472505640967.57,2472505640967.57,0,0,1,0,.06"/></g><g id="LINE-15" data-name="LINE"><line class="cls-1" x1="2.34" y1="66.42" x2="2.57" y2="66.42"/></g><g id="LINE-16" data-name="LINE"><line class="cls-1" x1="0.88" y1="63.1" x2="0.8" y2="62.79"/></g><g id="LINE-17" data-name="LINE"><line class="cls-1" x1="0.8" y1="62.79" x2="0.78" y2="62.83"/></g><g id="LINE-18" data-name="LINE"><line class="cls-1" x1="0.78" y1="62.83" x2="0.87" y2="63.19"/></g><g id="LINE-19" data-name="LINE"><line class="cls-1" x1="0.87" y1="63.19" x2="0.95" y2="63.06"/></g><g id="LINE-20" data-name="LINE"><line class="cls-1" x1="0.95" y1="63.06" x2="0.94" y2="63.01"/></g><g id="LINE-21" data-name="LINE"><line class="cls-1" x1="0.94" y1="63.01" x2="0.88" y2="63.1"/></g><g id="LINE-22" data-name="LINE"><line class="cls-1" x1="1.65" y1="62.76" x2="1.57" y2="63.07"/></g><g id="LINE-23" data-name="LINE"><line class="cls-1" x1="1.57" y1="63.07" x2="1.77" y2="63.19"/></g><g id="LINE-24" data-name="LINE"><line class="cls-1" x1="1.77" y1="63.19" x2="1.65" y2="62.76"/></g><g id="LINE-25" data-name="LINE"><line class="cls-1" x1="1.46" y1="62.57" x2="1.43" y2="62.55"/></g><g id="LINE-26" data-name="LINE"><line class="cls-1" x1="1.43" y1="62.55" x2="1.37" y2="62.67"/></g><g id="SPLINE-10" data-name="SPLINE"><path class="cls-1" d="M1.37,62.67h0v0"/></g><g id="LINE-27" data-name="LINE"><line class="cls-1" x1="1.36" y1="62.71" x2="1.35" y2="62.71"/></g><g id="LINE-28" data-name="LINE"><line class="cls-1" x1="1.35" y1="62.71" x2="1.37" y2="62.52"/></g><g id="LINE-29" data-name="LINE"><line class="cls-1" x1="1.37" y1="62.52" x2="1.35" y2="62.5"/></g><g id="LINE-30" data-name="LINE"><line class="cls-1" x1="1.35" y1="62.5" x2="1.31" y2="62.91"/></g><g id="LINE-31" data-name="LINE"><line class="cls-1" x1="1.31" y1="62.91" x2="1.34" y2="62.93"/></g><g id="LINE-32" data-name="LINE"><line class="cls-1" x1="1.34" y1="62.93" x2="1.35" y2="62.77"/></g><g id="LINE-33" data-name="LINE"><line class="cls-1" x1="1.35" y1="62.77" x2="1.37" y2="62.74"/></g><g id="LINE-34" data-name="LINE"><line class="cls-1" x1="1.37" y1="62.74" x2="1.4" y2="62.96"/></g><g id="LINE-35" data-name="LINE"><line class="cls-1" x1="1.4" y1="62.96" x2="1.43" y2="62.98"/></g><g id="LINE-36" data-name="LINE"><line class="cls-1" x1="1.43" y1="62.98" x2="1.39" y2="62.71"/></g><g id="LINE-37" data-name="LINE"><line class="cls-1" x1="1.39" y1="62.71" x2="1.46" y2="62.57"/></g><g id="SPLINE-11" data-name="SPLINE"><path class="cls-1" d="M1,62.83a.29.29,0,0,0,0,.09.08.08,0,0,0,0,0l0,0s0,0,0,0H1"/></g><g id="SPLINE-12" data-name="SPLINE"><path class="cls-1" d="M1,63l0,0s0,0,0,0l0,0v-.06a0,0,0,0,0,0,0v-.09"/></g><g id="SPLINE-13" data-name="SPLINE"><path class="cls-1" d="M1.09,62.71a.24.24,0,0,0,0-.09.05.05,0,0,0,0,0l0,0H1"/></g><g id="LINE-38" data-name="LINE"><line class="cls-1" x1="1" y1="62.56" x2="1" y2="62.56"/></g><g id="SPLINE-14" data-name="SPLINE"><path class="cls-1" d="M1,62.56H1v0a.09.09,0,0,0,0,0,.09.09,0,0,0,0,0,.15.15,0,0,0,0,.07v.07"/></g><g id="SPLINE-15" data-name="SPLINE"><path class="cls-1" d="M1.23,62.85h0l0,0s0,0,0,0a.11.11,0,0,0,0-.05v0"/></g><g id="SPLINE-16" data-name="SPLINE"><path class="cls-1" d="M1.17,62.69v-.11l0,0v0h0"/></g><g id="SPLINE-17" data-name="SPLINE"><path class="cls-1" d="M1.23,62.52h0"/></g><g id="LINE-39" data-name="LINE"><line class="cls-1" x1="1.26" y1="62.54" x2="1.27" y2="62.48"/></g><g id="SPLINE-18" data-name="SPLINE"><path class="cls-1" d="M1.27,62.48h0"/></g><g id="SPLINE-19" data-name="SPLINE"><path class="cls-1" d="M1.23,62.47h0a.05.05,0,0,0,0,0v.17"/></g><g id="SPLINE-20" data-name="SPLINE"><path class="cls-1" d="M1.14,62.7a.31.31,0,0,1,0,.1s0,0,0,.05l0,0,0,0h0"/></g><g id="SPLINE-21" data-name="SPLINE"><path class="cls-1" d="M1.23,62.9h0"/></g><g id="LINE-40" data-name="LINE"><line class="cls-1" x1="1.27" y1="62.88" x2="1.26" y2="62.83"/></g><g id="SPLINE-22" data-name="SPLINE"><path class="cls-1" d="M1.26,62.83h0"/></g><g id="ARC-4" data-name="ARC"><path class="cls-1" d="M2.32,66.44a0,0,0,0,0,0,0"/></g><g id="ARC-5" data-name="ARC"><path class="cls-1" d="M2.55,66.44a0,0,0,0,0,0,0"/></g><g id="LINE-41" data-name="LINE"><line class="cls-1" x1="2.55" y1="66.44" x2="2.32" y2="66.44"/></g><g id="ARC-6" data-name="ARC"><path class="cls-1" d="M2.55,66.52a.1.1,0,0,0,.1.07"/></g><g id="SPLINE-23" data-name="SPLINE"><path class="cls-1" d="M2.55,66.44h0s0,0,0,0a0,0,0,0,1,0,0l0,0"/></g><g id="LINE-42" data-name="LINE"><line class="cls-1" x1="2.55" y1="66.52" x2="2.49" y2="66.52"/></g><g id="LINE-43" data-name="LINE"><line class="cls-1" x1="1.65" y1="63.07" x2="1.57" y2="63.07"/></g><g id="LINE-44" data-name="LINE"><line class="cls-1" x1="1.65" y1="63.07" x2="1.76" y2="63.13"/></g><g id="LINE-45" data-name="LINE"><line class="cls-1" x1="1.69" y1="62.91" x2="1.65" y2="63.07"/></g><g id="SPLINE-24" data-name="SPLINE"><path class="cls-1" d="M2.14,67.11h0a0,0,0,0,1,0,0,0,0,0,0,1,0,0s0,0,0,0v0"/></g><g id="ARC-7" data-name="ARC"><path class="cls-1" d="M2.07,67a.89.89,0,0,0,.48-.51"/></g><g id="LINE-46" data-name="LINE"><line class="cls-1" x1="2.07" y1="67.03" x2="2.07" y2="66.74"/></g><g id="LINE-47" data-name="LINE"><line class="cls-1" x1="1.41" y1="62.67" x2="1.37" y2="62.67"/></g><g id="LINE-48" data-name="LINE"><line class="cls-1" x1="1.43" y1="62.96" x2="1.4" y2="62.96"/></g><g id="LINE-49" data-name="LINE"><line class="cls-1" x1="1.39" y1="62.74" x2="1.37" y2="62.74"/></g><g id="LINE-50" data-name="LINE"><line class="cls-1" x1="1.39" y1="62.71" x2="1.36" y2="62.71"/></g><g id="LINE-51" data-name="LINE"><line class="cls-1" x1="1.34" y1="62.91" x2="1.31" y2="62.91"/></g><g id="LINE-52" data-name="LINE"><line class="cls-1" x1="1.27" y1="62.85" x2="1.23" y2="62.85"/></g><g id="LINE-53" data-name="LINE"><line class="cls-1" x1="1.26" y1="62.52" x2="1.23" y2="62.52"/></g><g id="SPLINE-25" data-name="SPLINE"><path class="cls-1" d="M1.25,62.85s0,0,0,0h0"/></g><g id="SPLINE-26" data-name="SPLINE"><path class="cls-1" d="M1.26,62.5v0h0"/></g><g id="LINE-54" data-name="LINE"><line class="cls-1" x1="1.17" y1="62.7" x2="1.14" y2="62.7"/></g><g id="LINE-55" data-name="LINE"><line class="cls-1" x1="1.01" y1="62.56" x2="1.02" y2="62.56"/></g><g id="LINE-56" data-name="LINE"><line class="cls-1" x1="1.01" y1="62.56" x2="1" y2="62.56"/></g><g id="LINE-57" data-name="LINE"><line class="cls-1" x1="1.05" y1="62.92" x2="1.06" y2="62.96"/></g><g id="SPLINE-27" data-name="SPLINE"><path class="cls-1" d="M1.06,62.73v.13a0,0,0,0,0,0,0v0"/></g><g id="SPLINE-28" data-name="SPLINE"><path class="cls-1" d="M1,62.93H1l0,0s0,0,0,0v0"/></g><g id="SPLINE-29" data-name="SPLINE"><path class="cls-1" d="M1,62.8s0,0,0,0v0a.08.08,0,0,1,0,0v0a0,0,0,0,0,0,0H1"/></g><g id="LINE-58" data-name="LINE"><line class="cls-1" x1="1" y1="62.61" x2="1" y2="62.61"/></g><g id="SPLINE-30" data-name="SPLINE"><path class="cls-1" d="M1,62.61H1l0,0a.43.43,0,0,1,0,.05v0"/></g><g id="LINE-59" data-name="LINE"><line class="cls-1" x1="1.09" y1="62.73" x2="1.06" y2="62.73"/></g><g id="LINE-60" data-name="LINE"><line class="cls-1" x1="1.08" y1="62.93" x2="1.04" y2="62.93"/></g><g id="LINE-61" data-name="LINE"><line class="cls-1" x1="0.98" y1="62.83" x2="0.95" y2="62.83"/></g><g id="LINE-62" data-name="LINE"><line class="cls-1" x1="0.92" y1="63.1" x2="0.88" y2="63.1"/></g><g id="LINE-63" data-name="LINE"><line class="cls-1" x1="0.81" y1="62.83" x2="0.78" y2="62.83"/></g><g id="LWPOLYLINE-8" data-name="LWPOLYLINE"><polyline class="cls-1" points="134.13 64.02 134.12 63.61 134.08 63.21 134.03 62.83 133.95 62.47 133.85 62.15 133.74 61.86 133.61 61.63 133.47 61.45 133.32 61.32 133.16 61.25 133.05 61.24"/></g><g id="LWPOLYLINE-9" data-name="LWPOLYLINE"><polyline class="cls-1" points="133.07 66.73 133.15 66.72 133.31 66.67 133.46 66.55 133.6 66.38 133.73 66.15 133.84 65.88 133.94 65.56 134.02 65.21 134.08 64.83 134.12 64.43 134.13 64.02"/></g><g id="LWPOLYLINE-10" data-name="LWPOLYLINE"><polyline class="cls-1" points="131.87 61.56 131.97 61.45 132.12 61.33 132.27 61.28 132.43 61.28 132.58 61.35 132.73 61.47 132.87 61.66 133 61.89 133.11 62.17 133.21 62.49 133.28 62.84 133.34 63.22 133.37 63.62 133.38 64.03 133.37 64.43 133.34 64.82 133.28 65.2 133.2 65.55 133.1 65.86 132.99 66.14 132.86 66.36 132.72 66.53 132.57 66.64 132.42 66.7 132.26 66.69 132.11 66.63 131.96 66.5 131.89 66.42"/></g><g id="LWPOLYLINE-11" data-name="LWPOLYLINE"><polyline class="cls-1" points="133.32 64.03 133.31 63.63 133.28 63.24 133.22 62.87 133.14 62.52 133.05 62.2 132.94 61.93 132.81 61.7 132.68 61.52 132.53 61.4 132.38 61.33 132.29 61.32"/></g><g id="ARC-8" data-name="ARC"><path class="cls-1" d="M132.1,61.37a1,1,0,0,0-.39.43"/></g><g id="ARC-9" data-name="ARC"><path class="cls-1" d="M131.73,66.19a1,1,0,0,0,.36.4"/></g><g id="LWPOLYLINE-12" data-name="LWPOLYLINE"><polyline class="cls-1" points="132.38 66.65 132.52 66.59 132.67 66.48 132.8 66.31 132.93 66.09 133.04 65.83 133.14 65.52 133.22 65.18 133.27 64.81 133.31 64.42 133.32 64.03"/></g><g id="LWPOLYLINE-13" data-name="LWPOLYLINE"><polyline class="cls-1" points="133.19 64.02 133.17 64.39 133.14 64.75 133.08 65.09 133 65.41 132.91 65.68 132.8 65.91 132.68 66.09 132.54 66.22 132.4 66.29 132.34 66.3"/></g><g id="ARC-10" data-name="ARC"><path class="cls-1" d="M132,66.19a.47.47,0,0,0,.25.11"/></g><g id="LINE-64" data-name="LINE"><line class="cls-1" x1="132.01" y1="61.8" x2="132.12" y2="61.72"/></g><g id="LWPOLYLINE-14" data-name="LWPOLYLINE"><polyline class="cls-1" points="132.39 61.69 132.41 61.69 132.55 61.77 132.68 61.91 132.81 62.1 132.92 62.34 133.01 62.62 133.09 62.94 133.14 63.28 133.17 63.65 133.19 64.02"/></g><g id="ARC-11" data-name="ARC"><path class="cls-1" d="M132.14,66.18a.43.43,0,0,0,.56-.11"/></g><g id="ARC-12" data-name="ARC"><path class="cls-1" d="M132.68,61.91a.4.4,0,0,0-.56-.12"/></g><g id="LWPOLYLINE-15" data-name="LWPOLYLINE"><polyline class="cls-1" points="291.66 63.42 291.64 63.02 291.61 62.62 291.56 62.24 291.48 61.89 291.38 61.57 291.27 61.29 291.14 61.06 291 60.88 290.86 60.76 290.7 60.69 290.61 60.68"/></g><g id="LWPOLYLINE-16" data-name="LWPOLYLINE"><polyline class="cls-1" points="290.63 66.08 290.69 66.08 290.85 66.02 291 65.91 291.13 65.74 291.26 65.52 291.38 65.25 291.47 64.93 291.55 64.59 291.61 64.21 291.64 63.82 291.66 63.42"/></g><g id="LWPOLYLINE-17" data-name="LWPOLYLINE"><polyline class="cls-1" points="134.11 64.02 134.1 63.62 134.08 63.3"/></g><g id="ARC-13" data-name="ARC"><path class="cls-1" d="M134,65.19a6.52,6.52,0,0,0,.1-1.17"/></g><g id="LWPOLYLINE-18" data-name="LWPOLYLINE"><polyline class="cls-1" points="292.38 63.42 292.36 63.01 292.33 62.61 292.27 62.22 292.2 61.87 292.1 61.54 291.98 61.26 291.86 61.03 291.71 60.84 291.56 60.72 291.41 60.65 291.33 60.64"/></g><g id="LWPOLYLINE-19" data-name="LWPOLYLINE"><polyline class="cls-1" points="291.35 66.12 291.4 66.11 291.56 66.06 291.7 65.94 291.85 65.77 291.98 65.54 292.09 65.27 292.19 64.95 292.27 64.6 292.33 64.22 292.36 63.82 292.38 63.42"/></g><g id="LWPOLYLINE-20" data-name="LWPOLYLINE"><polyline class="cls-1" points="2.31 64.53 2.3 64.93 2.26 65.32 2.2 65.69 2.12 66.03 2.02 66.34 1.91 66.6 1.78 66.82 1.64 66.98 1.49 67.08 1.34 67.12"/></g><g id="LWPOLYLINE-21" data-name="LWPOLYLINE"><polyline class="cls-1" points="1.34 61.86 1.35 61.86 1.5 61.92 1.65 62.03 1.79 62.2 1.92 62.42 2.03 62.69 2.13 63.01 2.21 63.35 2.26 63.73 2.3 64.12 2.31 64.53"/></g><g id="ARC-14" data-name="ARC"><path class="cls-1" d="M.89,66.87a.46.46,0,0,0,.65,0h0"/></g><g id="ARC-15" data-name="ARC"><path class="cls-1" d="M1.48,62a.49.49,0,0,0-.68.14v0"/></g><g id="ARC-16" data-name="ARC"><path class="cls-1" d="M2.1,66.59a0,0,0,0,0,.06,0"/></g><g id="ARC-17" data-name="ARC"><path class="cls-1" d="M2.49,66.52a.1.1,0,0,0-.05-.08"/></g><g id="ARC-18" data-name="ARC"><path class="cls-1" d="M2.42,66.44a.11.11,0,0,0,.07.08"/></g><g id="LWPOLYLINE-22" data-name="LWPOLYLINE"><polyline class="cls-1" points="132.29 61.32 132.23 61.33 132.1 61.37"/></g><g id="ARC-19" data-name="ARC"><path class="cls-1" d="M132.09,66.59a.38.38,0,0,0,.29.06"/></g><g id="LINE-65" data-name="LINE"><line class="cls-1" x1="132.33" y1="66.3" x2="132.27" y2="66.3"/></g><g id="ARC-20" data-name="ARC"><path class="cls-1" d="M132.39,61.69a.32.32,0,0,0-.27,0"/></g><g id="LINE-66" data-name="LINE"><line class="cls-1" x1="290.65" y1="25.84" x2="291.35" y2="25.81"/></g><g id="LINE-67" data-name="LINE"><line class="cls-1" x1="291.33" y1="20.33" x2="290.63" y2="20.31"/></g><g id="SPLINE-31" data-name="SPLINE"><path class="cls-1" d="M129.27,21.07a.48.48,0,0,0-.12,0,.42.42,0,0,0-.15,0,.71.71,0,0,0-.14.1l-.12.13"/></g><g id="SPLINE-32" data-name="SPLINE"><path class="cls-1" d="M128.81,26.11l0,0a.57.57,0,0,0,.16.11.27.27,0,0,0,.14,0h.13"/></g><g id="LINE-68" data-name="LINE"><line class="cls-1" x1="132.28" y1="21.02" x2="129.21" y2="21.06"/></g><g id="LINE-69" data-name="LINE"><line class="cls-1" x1="129.23" y1="26.32" x2="132.3" y2="26.34"/></g><g id="SPLINE-33" data-name="SPLINE"><path class="cls-1" d="M130.2,25.65h.05"/></g><g id="SPLINE-34" data-name="SPLINE"><path class="cls-1" d="M130.07,25.78l0,0a.12.12,0,0,1,0-.05l0,0h0"/></g><g id="SPLINE-35" data-name="SPLINE"><path class="cls-1" d="M129.53,26.31l.09,0,.15-.09a1,1,0,0,0,.14-.15,1.57,1.57,0,0,0,.12-.19.35.35,0,0,0,.05-.08"/></g><g id="LINE-70" data-name="LINE"><line class="cls-1" x1="128.99" y1="21.81" x2="128.95" y2="21.81"/></g><g id="LINE-71" data-name="LINE"><line class="cls-1" x1="133.05" y1="20.93" x2="132.32" y2="20.96"/></g><g id="LINE-72" data-name="LINE"><line class="cls-1" x1="132.34" y1="26.4" x2="133.07" y2="26.42"/></g><g id="LINE-73" data-name="LINE"><line class="cls-1" x1="290.61" y1="20.37" x2="133.25" y2="20.98"/></g><g id="LINE-74" data-name="LINE"><line class="cls-1" x1="133.27" y1="26.38" x2="290.63" y2="25.78"/></g><g id="LWPOLYLINE-23" data-name="LWPOLYLINE"><polyline class="cls-1" points="290.39 20.37 290.39 20.37 290.55 20.31 290.71 20.32 290.86 20.39 291.01 20.51 291.15 20.7 291.29 20.94 291.4 21.22 291.5 21.55 291.58 21.91 291.63 22.29 291.67 22.7 291.68 23.11 291.67 23.52 291.63 23.92 291.57 24.31 291.49 24.66 291.39 24.98 291.28 25.26 291.15 25.49 291 25.66 290.85 25.78 290.7 25.83 290.54 25.83 290.41 25.78"/></g><g id="LINE-75" data-name="LINE"><line class="cls-1" x1="291.34" y1="25.81" x2="291.35" y2="25.81"/></g><g id="SPLINE-36" data-name="SPLINE"><path class="cls-1" d="M291.88,20.72a.83.83,0,0,0-.08-.12.5.5,0,0,0-.15-.14.51.51,0,0,0-.16-.09.32.32,0,0,0-.16,0h-.06"/></g><g id="SPLINE-37" data-name="SPLINE"><path class="cls-1" d="M291.33,25.8h.05a.3.3,0,0,0,.16,0l.15-.09a.92.92,0,0,0,.14-.14l.05-.08"/></g><g id="LWPOLYLINE-24" data-name="LWPOLYLINE"><polyline class="cls-1" points="291.89 20.76 291.91 20.79 292.04 21.02 292.15 21.29 292.24 21.61 292.32 21.95 292.37 22.32 292.41 22.71 292.42 23.11 292.41 23.5 292.37 23.89 292.31 24.25 292.24 24.59 292.14 24.9 292.03 25.17 291.9 25.39 291.9 25.4"/></g><g id="LWPOLYLINE-25" data-name="LWPOLYLINE"><path class="cls-1" d="M129.26,26.32h0"/></g><g id="LINE-76" data-name="LINE"><line class="cls-1" x1="129.21" y1="21.06" x2="129.26" y2="21.07"/></g><g id="LWPOLYLINE-26" data-name="LWPOLYLINE"><polyline class="cls-1" points="128.17 23.66 128.18 24.05 128.22 24.43 128.27 24.79 128.35 25.13 128.44 25.43 128.55 25.7 128.68 25.91 128.81 26.07"/></g><g id="LWPOLYLINE-27" data-name="LWPOLYLINE"><polyline class="cls-1" points="129.47 26.1 129.54 26.03 129.67 25.85 129.79 25.62 129.9 25.34 129.98 25.02 130.05 24.68 130.1 24.31 130.12 23.92 130.12 23.53 130.1 23.15 130.05 22.77 129.99 22.42 129.9 22.1 129.8 21.82 129.68 21.57 129.55 21.38 129.41 21.25 129.4 21.24"/></g><g id="LWPOLYLINE-28" data-name="LWPOLYLINE"><polyline class="cls-1" points="128.71 21.41 128.69 21.44 128.56 21.65 128.45 21.9 128.35 22.2 128.28 22.53 128.22 22.89 128.18 23.27 128.17 23.66"/></g><g id="LWPOLYLINE-29" data-name="LWPOLYLINE"><polyline class="cls-1" points="132.28 21.02 132.38 21.03 132.53 21.1 132.68 21.22 132.81 21.4 132.94 21.62 133.05 21.9 133.14 22.21 133.22 22.56 133.27 22.93 133.31 23.32 133.32 23.72 133.31 24.11 133.27 24.5 133.21 24.87 133.14 25.21 133.04 25.52 132.93 25.78 132.8 26 132.67 26.17 132.52 26.28 132.37 26.34 132.31 26.34"/></g><g id="SPLINE-38" data-name="SPLINE"><path class="cls-1" d="M130.26,25.62h-.07l-.05,0a.1.1,0,0,0,0,0l-.07.09"/></g><g id="ARC-21" data-name="ARC"><path class="cls-1" d="M129.52,26.31a.9.9,0,0,0,.5-.51"/></g><g id="LINE-77" data-name="LINE"><line class="cls-1" x1="130.07" y1="26.31" x2="129.52" y2="26.31"/></g><g id="ARC-22" data-name="ARC"><path class="cls-1" d="M130.07,26.31a.88.88,0,0,0,.5-.52"/></g><g id="SPLINE-39" data-name="SPLINE"><path class="cls-1" d="M130.49,25.62h.07l0,0h0v.09l0,0"/></g><g id="LINE-78" data-name="LINE"><line class="cls-1" x1="130.26" y1="25.62" x2="130.49" y2="25.62"/></g><g id="LINE-79" data-name="LINE"><line class="cls-1" x1="128.8" y1="22.31" x2="128.73" y2="21.99"/></g><g id="LINE-80" data-name="LINE"><line class="cls-1" x1="128.73" y1="21.99" x2="128.7" y2="22.03"/></g><g id="LINE-81" data-name="LINE"><line class="cls-1" x1="128.7" y1="22.03" x2="128.79" y2="22.39"/></g><g id="LINE-82" data-name="LINE"><line class="cls-1" x1="128.79" y1="22.39" x2="128.87" y2="22.26"/></g><g id="LINE-83" data-name="LINE"><line class="cls-1" x1="128.87" y1="22.26" x2="128.86" y2="22.21"/></g><g id="LINE-84" data-name="LINE"><line class="cls-1" x1="128.86" y1="22.21" x2="128.8" y2="22.31"/></g><g id="LINE-85" data-name="LINE"><line class="cls-1" x1="129.57" y1="21.96" x2="129.49" y2="22.27"/></g><g id="LINE-86" data-name="LINE"><line class="cls-1" x1="129.49" y1="22.27" x2="129.69" y2="22.39"/></g><g id="LINE-87" data-name="LINE"><line class="cls-1" x1="129.69" y1="22.39" x2="129.57" y2="21.96"/></g><g id="LINE-88" data-name="LINE"><line class="cls-1" x1="129.38" y1="21.77" x2="129.35" y2="21.75"/></g><g id="LINE-89" data-name="LINE"><line class="cls-1" x1="129.35" y1="21.75" x2="129.29" y2="21.87"/></g><g id="SPLINE-40" data-name="SPLINE"><path class="cls-1" d="M129.29,21.87h0v0"/></g><g id="LINE-90" data-name="LINE"><line class="cls-1" x1="129.28" y1="21.91" x2="129.28" y2="21.91"/></g><g id="LINE-91" data-name="LINE"><line class="cls-1" x1="129.28" y1="21.91" x2="129.29" y2="21.72"/></g><g id="LINE-92" data-name="LINE"><line class="cls-1" x1="129.29" y1="21.72" x2="129.27" y2="21.7"/></g><g id="LINE-93" data-name="LINE"><line class="cls-1" x1="129.27" y1="21.7" x2="129.23" y2="22.11"/></g><g id="LINE-94" data-name="LINE"><line class="cls-1" x1="129.23" y1="22.11" x2="129.26" y2="22.13"/></g><g id="LINE-95" data-name="LINE"><line class="cls-1" x1="129.26" y1="22.13" x2="129.27" y2="21.98"/></g><g id="LINE-96" data-name="LINE"><line class="cls-1" x1="129.27" y1="21.98" x2="129.29" y2="21.94"/></g><g id="LINE-97" data-name="LINE"><line class="cls-1" x1="129.29" y1="21.94" x2="129.32" y2="22.16"/></g><g id="LINE-98" data-name="LINE"><line class="cls-1" x1="129.32" y1="22.16" x2="129.35" y2="22.18"/></g><g id="LINE-99" data-name="LINE"><line class="cls-1" x1="129.35" y1="22.18" x2="129.31" y2="21.91"/></g><g id="LINE-100" data-name="LINE"><line class="cls-1" x1="129.31" y1="21.91" x2="129.38" y2="21.77"/></g><g id="SPLINE-41" data-name="SPLINE"><path class="cls-1" d="M128.87,22s0,.06,0,.09a.05.05,0,0,0,0,0,0,0,0,0,0,0,0h0"/></g><g id="SPLINE-42" data-name="SPLINE"><path class="cls-1" d="M129,22.18v0s0,0,0,0a.08.08,0,0,0,0-.05v-.18"/></g><g id="SPLINE-43" data-name="SPLINE"><path class="cls-1" d="M129,21.91a.29.29,0,0,0,0-.09s0,0,0,0l0,0s0,0,0,0h0"/></g><g id="LINE-101" data-name="LINE"><line class="cls-1" x1="128.92" y1="21.76" x2="128.92" y2="21.76"/></g><g id="SPLINE-44" data-name="SPLINE"><path class="cls-1" d="M128.92,21.76v0l0,0s0,0,0,0a.11.11,0,0,0,0,.05V22"/></g><g id="SPLINE-45" data-name="SPLINE"><path class="cls-1" d="M129.16,22.05h0l0,0a.08.08,0,0,0,0,0v-.09"/></g><g id="SPLINE-46" data-name="SPLINE"><path class="cls-1" d="M129.09,21.89v-.07a.06.06,0,0,1,0,0,0,0,0,0,1,0,0s0,0,0,0,0,0,0,0"/></g><g id="SPLINE-47" data-name="SPLINE"><path class="cls-1" d="M129.15,21.72h0"/></g><g id="LINE-102" data-name="LINE"><line class="cls-1" x1="129.18" y1="21.74" x2="129.19" y2="21.69"/></g><g id="SPLINE-48" data-name="SPLINE"><path class="cls-1" d="M129.19,21.69h0"/></g><g id="SPLINE-49" data-name="SPLINE"><path class="cls-1" d="M129.15,21.67h0s0,0,0,0v.17"/></g><g id="SPLINE-50" data-name="SPLINE"><path class="cls-1" d="M129.07,21.9a.34.34,0,0,0,0,.1.09.09,0,0,0,0,.05l0,0a0,0,0,0,0,0,0h0"/></g><g id="SPLINE-51" data-name="SPLINE"><path class="cls-1" d="M129.15,22.1h0"/></g><g id="LINE-103" data-name="LINE"><line class="cls-1" x1="129.19" y1="22.08" x2="129.19" y2="22.03"/></g><g id="SPLINE-52" data-name="SPLINE"><path class="cls-1" d="M129.19,22h0"/></g><g id="LINE-104" data-name="LINE"><line class="cls-1" x1="130.47" y1="25.65" x2="130.24" y2="25.65"/></g><g id="SPLINE-53" data-name="SPLINE"><path class="cls-1" d="M130.47,25.65h0s0,0,0,0a0,0,0,0,1,0,0s0,0,0,0"/></g><g id="LINE-105" data-name="LINE"><line class="cls-1" x1="130.48" y1="25.73" x2="130.41" y2="25.72"/></g><g id="LINE-106" data-name="LINE"><line class="cls-1" x1="129.57" y1="22.27" x2="129.49" y2="22.27"/></g><g id="LINE-107" data-name="LINE"><line class="cls-1" x1="129.57" y1="22.27" x2="129.68" y2="22.33"/></g><g id="LINE-108" data-name="LINE"><line class="cls-1" x1="129.61" y1="22.11" x2="129.57" y2="22.27"/></g><g id="SPLINE-54" data-name="SPLINE"><path class="cls-1" d="M130.07,26.31h0l0,0a0,0,0,0,1,0,0v0"/></g><g id="ARC-24" data-name="ARC"><path class="cls-1" d="M130,26.23a.92.92,0,0,0,.49-.5"/></g><g id="LINE-109" data-name="LINE"><line class="cls-1" x1="129.99" y1="26.23" x2="129.99" y2="25.94"/></g><g id="LINE-110" data-name="LINE"><line class="cls-1" x1="129.35" y1="22.16" x2="129.32" y2="22.16"/></g><g id="LINE-111" data-name="LINE"><line class="cls-1" x1="129.32" y1="21.94" x2="129.29" y2="21.94"/></g><g id="LINE-112" data-name="LINE"><line class="cls-1" x1="129.31" y1="21.91" x2="129.28" y2="21.91"/></g><g id="LINE-113" data-name="LINE"><line class="cls-1" x1="129.26" y1="22.11" x2="129.23" y2="22.11"/></g><g id="LINE-114" data-name="LINE"><line class="cls-1" x1="129.19" y1="22.05" x2="129.16" y2="22.05"/></g><g id="LINE-115" data-name="LINE"><line class="cls-1" x1="129.18" y1="21.72" x2="129.15" y2="21.72"/></g><g id="LINE-116" data-name="LINE"><line class="cls-1" x1="128.93" y1="21.76" x2="128.94" y2="21.76"/></g><g id="SPLINE-55" data-name="SPLINE"><path class="cls-1" d="M129,21.93v.13s0,0,0,0,0,0,0,0v0"/></g><g id="SPLINE-56" data-name="SPLINE"><path class="cls-1" d="M129,22.13h0a0,0,0,0,1,0,0s0,0,0-.05v0"/></g><g id="SPLINE-57" data-name="SPLINE"><path class="cls-1" d="M128.9,22s0,0,0-.05v-.05s0,0,0,0v0a0,0,0,0,0,0,0h0"/></g><g id="LINE-117" data-name="LINE"><line class="cls-1" x1="128.92" y1="21.81" x2="128.92" y2="21.81"/></g><g id="SPLINE-58" data-name="SPLINE"><path class="cls-1" d="M128.92,21.81h0a0,0,0,0,1,0,0l0,0a.43.43,0,0,1,0,0v0"/></g><g id="LINE-118" data-name="LINE"><line class="cls-1" x1="129" y1="22.13" x2="128.96" y2="22.13"/></g><g id="LINE-119" data-name="LINE"><line class="cls-1" x1="129.33" y1="21.87" x2="129.29" y2="21.87"/></g><g id="SPLINE-59" data-name="SPLINE"><path class="cls-1" d="M129.17,22.05l0,0h0"/></g><g id="SPLINE-60" data-name="SPLINE"><path class="cls-1" d="M129.19,21.7s0,0,0,0h0"/></g><g id="LINE-120" data-name="LINE"><line class="cls-1" x1="129.09" y1="21.9" x2="129.07" y2="21.9"/></g><g id="LINE-121" data-name="LINE"><line class="cls-1" x1="128.93" y1="21.76" x2="128.92" y2="21.76"/></g><g id="LINE-122" data-name="LINE"><line class="cls-1" x1="129.01" y1="21.93" x2="128.99" y2="21.93"/></g><g id="LINE-123" data-name="LINE"><line class="cls-1" x1="128.9" y1="22.03" x2="128.87" y2="22.03"/></g><g id="LINE-124" data-name="LINE"><line class="cls-1" x1="128.84" y1="22.31" x2="128.8" y2="22.31"/></g><g id="LINE-125" data-name="LINE"><line class="cls-1" x1="128.73" y1="22.03" x2="128.7" y2="22.03"/></g><g id="LWPOLYLINE-30" data-name="LWPOLYLINE"><polyline class="cls-1" points="134.13 23.71 134.12 23.3 134.08 22.9 134.03 22.52 133.95 22.16 133.85 21.84 133.74 21.56 133.61 21.32 133.47 21.14 133.32 21.01 133.16 20.95 133.05 20.93"/></g><g id="LWPOLYLINE-31" data-name="LWPOLYLINE"><polyline class="cls-1" points="133.07 26.42 133.15 26.42 133.31 26.36 133.46 26.25 133.6 26.07 133.73 25.85 133.84 25.57 133.94 25.25 134.02 24.9 134.08 24.52 134.12 24.12 134.13 23.71"/></g><g id="LWPOLYLINE-32" data-name="LWPOLYLINE"><polyline class="cls-1" points="132.12 21.02 132.27 20.97 132.43 20.98 132.58 21.04 132.73 21.17 132.87 21.35 133 21.58 133.11 21.86 133.21 22.18 133.28 22.54 133.34 22.91 133.37 23.31 133.38 23.72 133.37 24.12 133.34 24.52 133.28 24.89 133.2 25.24 133.1 25.55 132.99 25.83 132.86 26.05 132.72 26.22 132.57 26.34 132.42 26.39 132.26 26.39 132.14 26.34"/></g><g id="LWPOLYLINE-33" data-name="LWPOLYLINE"><polyline class="cls-1" points="133.32 23.72 133.31 23.32 133.28 22.93 133.22 22.56 133.14 22.21 133.05 21.89 132.94 21.62 132.81 21.39 132.68 21.21 132.53 21.09 132.38 21.03 132.29 21.02"/></g><g id="LWPOLYLINE-34" data-name="LWPOLYLINE"><polyline class="cls-1" points="132.38 26.34 132.52 26.29 132.67 26.18 132.8 26.01 132.93 25.79 133.04 25.52 133.14 25.21 133.22 24.87 133.27 24.5 133.31 24.11 133.32 23.72"/></g><g id="LWPOLYLINE-35" data-name="LWPOLYLINE"><polyline class="cls-1" points="291.66 23.11 291.64 22.71 291.61 22.31 291.56 21.93 291.48 21.58 291.38 21.26 291.27 20.98 291.14 20.75 291 20.57 290.86 20.45 290.7 20.38 290.61 20.37"/></g><g id="LWPOLYLINE-36" data-name="LWPOLYLINE"><polyline class="cls-1" points="290.63 25.78 290.69 25.77 290.85 25.72 291 25.6 291.13 25.43 291.26 25.21 291.38 24.94 291.47 24.63 291.55 24.28 291.61 23.91 291.64 23.51 291.66 23.11"/></g><g id="LWPOLYLINE-37" data-name="LWPOLYLINE"><polyline class="cls-1" points="292.38 23.11 292.36 22.7 292.33 22.3 292.27 21.92 292.2 21.56 292.1 21.24 291.98 20.95 291.86 20.72 291.71 20.54 291.56 20.41 291.41 20.34 291.33 20.33"/></g><g id="LWPOLYLINE-38" data-name="LWPOLYLINE"><polyline class="cls-1" points="291.35 25.81 291.4 25.8 291.56 25.75 291.7 25.63 291.85 25.46 291.98 25.23 292.09 24.96 292.19 24.64 292.27 24.29 292.33 23.91 292.36 23.52 292.38 23.11"/></g><g id="LWPOLYLINE-39" data-name="LWPOLYLINE"><polyline class="cls-1" points="130.23 23.73 130.22 24.13 130.18 24.52 130.13 24.89 130.05 25.23 129.95 25.54 129.83 25.81 129.7 26.02 129.56 26.18 129.41 26.28 129.26 26.32"/></g><g id="LWPOLYLINE-40" data-name="LWPOLYLINE"><polyline class="cls-1" points="129.26 21.07 129.27 21.07 129.42 21.12 129.57 21.23 129.71 21.4 129.84 21.62 129.95 21.89 130.05 22.21 130.13 22.56 130.19 22.93 130.22 23.33 130.23 23.73"/></g><g id="ARC-25" data-name="ARC"><path class="cls-1" d="M128.81,26.07a.46.46,0,0,0,.65,0h0"/></g><g id="ARC-26" data-name="ARC"><path class="cls-1" d="M129.4,21.24a.48.48,0,0,0-.67.14l0,0"/></g><g id="ARC-27" data-name="ARC"><path class="cls-1" d="M130.24,25.65l0,0"/></g><g id="ARC-28" data-name="ARC"><path class="cls-1" d="M130.47,25.65l0,0"/></g><g id="ARC-29" data-name="ARC"><path class="cls-1" d="M130.48,25.73a.09.09,0,0,0,.09.06"/></g><g id="LWPOLYLINE-41" data-name="LWPOLYLINE"><polyline class="cls-1" points="134.11 23.71 134.1 23.31 134.07 22.92 134.01 22.54 133.94 22.19 133.84 21.87 133.73 21.59 133.6 21.36 133.46 21.18 133.31 21.05 133.16 20.99 133.07 20.98"/></g><g id="LWPOLYLINE-42" data-name="LWPOLYLINE"><polyline class="cls-1" points="134.1 24.15 134.1 24.12 134.11 23.71"/></g><g id="ARC-30" data-name="ARC"><path class="cls-1" d="M130,25.8a.06.06,0,0,0,.06,0"/></g><g id="ARC-31" data-name="ARC"><path class="cls-1" d="M130.41,25.72a.1.1,0,0,0,0-.08"/></g><g id="ARC-32" data-name="ARC"><path class="cls-1" d="M130.34,25.64a.11.11,0,0,0,.07.08"/></g><g id="LWPOLYLINE-43" data-name="LWPOLYLINE"><polyline class="cls-1" points="132.29 21.02 132.23 21.02 132.22 21.02"/></g><g id="LWPOLYLINE-44" data-name="LWPOLYLINE"><polyline class="cls-1" points="132.24 26.34 132.37 26.34 132.38 26.34"/></g><line class="cls-2" x1="128.16" y1="16.74" x2="128.16" y2="6.03"/><line class="cls-2" x1="292.39" y1="16.74" x2="292.39" y2="6.03"/><line class="cls-2" x1="128.87" y1="9.6" x2="291.72" y2="9.6"/><polygon class="cls-3" points="130.35 10.4 130.43 10.16 128.89 9.6 130.43 9.04 130.35 8.81 128.16 9.6 130.35 10.4"/><polygon class="cls-3" points="290.24 10.4 290.16 10.16 291.7 9.6 290.16 9.04 290.24 8.81 292.43 9.6 290.24 10.4"/><text class="cls-4" transform="translate(201.33 7.04)">1<tspan class="cls-5" x="4.26" y="0">0</tspan><tspan class="cls-6" x="8.9" y="0">4</tspan><tspan class="cls-7" x="13.55" y="0">0</tspan></text><line class="cls-2" x1="0.23" y1="57.05" x2="0.23" y2="46.34"/><line class="cls-2" x1="292.38" y1="57.05" x2="292.38" y2="46.34"/><line class="cls-2" x1="0.94" y1="49.91" x2="291.71" y2="49.91"/><polygon class="cls-3" points="2.41 50.7 2.5 50.47 0.96 49.91 2.5 49.35 2.41 49.12 0.23 49.91 2.41 50.7"/><polygon class="cls-3" points="290.23 50.7 290.15 50.47 291.69 49.91 290.15 49.35 290.23 49.12 292.42 49.91 290.23 50.7"/><text class="cls-8" transform="translate(137.43 47.35)">1<tspan class="cls-9" x="4.23" y="0">8</tspan><tspan class="cls-10" x="8.84" y="0">6</tspan><tspan class="cls-7" x="13.42" y="0">0</tspan></text><text class="cls-11" transform="translate(65.81 27.52)">（<tspan class="cls-12" x="10.5" y="0">収</tspan><tspan class="cls-13" x="21.3" y="0">納</tspan><tspan x="31.77" y="0">時</tspan><tspan class="cls-14" x="42.27" y="0">）</tspan></text></g></g></svg>