<svg xmlns="http://www.w3.org/2000/svg" viewBox="0 0 13.5 113.79"><defs><style>.cls-1{fill:#040000;}</style></defs><title>logo-bl</title><g id="レイヤー_2" data-name="レイヤー 2"><g id="レイヤー_2-2" data-name="レイヤー 2"><path class="cls-1" d="M10.66,3.44a4.49,4.49,0,0,1-.34,1.83c-.16.4-.4.6-.71.6q-1,0-1-.66,0-.43.93-.9c.42-.23.63-.5.63-.79a1.47,1.47,0,0,0-1-1.37A5.21,5.21,0,0,0,7,1.77a3.27,3.27,0,0,0-2.3.76,1.73,1.73,0,0,0-.64,1.33A2.09,2.09,0,0,0,4.37,5a3.1,3.1,0,0,0,.77.77c.06,0,.09.07.09.12A.31.31,0,0,1,5.16,6c0,.07-.09.11-.14.11a.15.15,0,0,1-.09,0A3,3,0,0,1,3.35,3.41,3.21,3.21,0,0,1,4.5.83,3.72,3.72,0,0,1,7,0,3.69,3.69,0,0,1,9.72,1.12,3.21,3.21,0,0,1,10.66,3.44Z"/><path class="cls-1" d="M3.37,13.23a.16.16,0,0,1,.18-.18c.44,0,.83,0,1.17,0a2.44,2.44,0,0,1-1.37-2.25,2.47,2.47,0,0,1,.41-1.42A1.94,1.94,0,0,1,5.49,8.6l1.6,0H8.28a7.12,7.12,0,0,0,1.15,0c.28-.07.41-.22.39-.47V7.71c0-.08,0-.13,0-.15a.22.22,0,0,1,.15,0h.08c.08,0,.13,0,.14.16.12.91.26,1.71.42,2.41q0,.18-.15.18c-1,0-1.83-.06-2.63-.06H6.27a4,4,0,0,0-1.44.17,1.07,1.07,0,0,0-.73,1.09A1.51,1.51,0,0,0,5,12.78a2.27,2.27,0,0,0,1.19.31H8.28A5.83,5.83,0,0,0,9.42,13c.28-.06.42-.21.4-.46l0-.41v-.05c0-.07.06-.11.19-.12h.08c.07,0,.11.06.13.17.07.62.22,1.4.43,2.36,0,.1,0,.16-.14.16-.73,0-1.6-.05-2.64-.05H5.77a6.74,6.74,0,0,0-1.48.09c-.19.07-.29.26-.31.56v.28a.16.16,0,0,1-.18.15c-.11,0-.16,0-.16-.13C3.59,14.83,3.5,14.06,3.37,13.23Z"/><path class="cls-1" d="M4.11,19.83H2.62a6.69,6.69,0,0,0-2,.15c-.13.07-.23.36-.28.89C.35,21,.3,21,.2,21S0,21,0,20.87q0-1.14,0-1.77c0-.45,0-1.05,0-1.81q0-.12.18-.12c.11,0,.16,0,.18.12,0,.49.14.77.28.82a6.55,6.55,0,0,0,2,.16H8.06a5.21,5.21,0,0,0,1.23-.1.42.42,0,0,0,.32-.43v-.06l0-.43V17.2c0-.07.06-.11.17-.12h.06a.17.17,0,0,1,.17.14,20,20,0,0,0,.67,2.48c0,.1-.05.16-.14.16l-1,0a2.57,2.57,0,0,1,1,1,2,2,0,0,1,.25.93,3,3,0,0,1-1.16,2.53,3.91,3.91,0,0,1-2.47.75,3.69,3.69,0,0,1-2.81-1,3.42,3.42,0,0,1-.89-2.45A2.4,2.4,0,0,1,4.11,19.83ZM10,21.42a1.65,1.65,0,0,0-.77-1.34,1.5,1.5,0,0,0-.61-.24H6a2.69,2.69,0,0,0-1.31.25,1.53,1.53,0,0,0-.87,1.35,1.56,1.56,0,0,0,1,1.41,5,5,0,0,0,2.2.42,3.73,3.73,0,0,0,2.24-.58A1.51,1.51,0,0,0,10,21.42Z"/><path class="cls-1" d="M7.57,29.16A2.48,2.48,0,0,0,7,29.1a3.27,3.27,0,0,0-2.33.81,1.81,1.81,0,0,0-.64,1.33,2.57,2.57,0,0,0,.29,1.27,3,3,0,0,0,.79.82.17.17,0,0,1,.07.15.29.29,0,0,1,0,.14c-.07.07-.12.11-.16.11a.42.42,0,0,1-.16-.07,3.14,3.14,0,0,1-1.18-1.27,3.47,3.47,0,0,1-.31-1.51,3.27,3.27,0,0,1,1.16-2.62A3.66,3.66,0,0,1,7,27.42a3.74,3.74,0,0,1,2.75,1.1,3.31,3.31,0,0,1,.95,2.38,2.73,2.73,0,0,1-1.11,2.28,2.93,2.93,0,0,1-1.68.64.43.43,0,0,1-.25-.07.3.3,0,0,1-.08-.23c0-1,0-2,0-2.88C7.59,30.11,7.58,29.62,7.57,29.16Zm.55.08c0,.49,0,.86,0,1.1,0,.54,0,1.11.07,1.7,0,.09.08.13.23.13a2.62,2.62,0,0,0,1.3-.37,1,1,0,0,0,.52-.9,1.34,1.34,0,0,0-.67-1.11A3.57,3.57,0,0,0,8.12,29.24Z"/><path class="cls-1" d="M9.24,38.37a2.58,2.58,0,0,1,1.42,2.33,2.37,2.37,0,0,1-.42,1.36,2,2,0,0,1-1.72.83l-1.67,0h-1A5.65,5.65,0,0,0,4.23,43a.42.42,0,0,0-.22.29,3,3,0,0,0-.07.49q0,.12-.18.12c-.11,0-.16,0-.16-.12l0-.89c0-.3,0-.55,0-.74s0-.52,0-.9,0-.73,0-.81,0-.12.16-.12.18,0,.18.12a2.65,2.65,0,0,0,.07.51.39.39,0,0,0,.22.25,5.55,5.55,0,0,0,1.59.12h2a3.36,3.36,0,0,0,1.29-.18A1.12,1.12,0,0,0,9.9,40a1.4,1.4,0,0,0-.28-.82,1.81,1.81,0,0,0-.57-.53,2.35,2.35,0,0,0-1.21-.32h-2a6.81,6.81,0,0,0-1.59.09.42.42,0,0,0-.22.32,4,4,0,0,0-.07.51c0,.09-.07.13-.18.13s-.16,0-.16-.13,0-.3,0-.54c0-.5,0-.85,0-1.06s0-.53,0-.91,0-.74,0-.82,0-.11.16-.11.17,0,.18.11A3.51,3.51,0,0,0,4,36.5a.42.42,0,0,0,.21.26,6.77,6.77,0,0,0,1.59.1H8a5,5,0,0,0,1.25-.1.43.43,0,0,0,.32-.41v-.06l0-.41v-.07c0-.08.06-.13.17-.14h.06c.09,0,.14.06.17.18a15.44,15.44,0,0,0,.65,2.38c0,.12,0,.17-.12.17C10.23,38.38,9.81,38.37,9.24,38.37Z"/><path class="cls-1" d="M13.5,55.93h-.35v-2.1H2.51v2.1H2.15V53H13.5Z"/><path class="cls-1" d="M7.37,63.12A13.1,13.1,0,0,1,4.5,66.05a.4.4,0,0,1-.21.07A.14.14,0,0,1,4.13,66a.41.41,0,0,1,.16-.24,16.47,16.47,0,0,0,2.87-3.54,1.25,1.25,0,0,0,.2-.51c0-.16-.14-.31-.41-.46q-.15-.08-.15-.15c0-.09.13-.14.4-.14a1.52,1.52,0,0,1,.8.38c.25.18.37.36.37.52a.35.35,0,0,1-.22.32,2.82,2.82,0,0,0-.55.63l.15,0c.12,0,.3,0,.56,0l1.45-.23a.62.62,0,0,0,.35-.18.36.36,0,0,1,.25-.11,1.31,1.31,0,0,1,.59.33c.23.17.34.32.34.44s-.08.18-.23.26a.8.8,0,0,0-.27.23,16.5,16.5,0,0,1-2.34,3.41,14.29,14.29,0,0,1-3.9,3,.56.56,0,0,1-.26.08c-.1,0-.16-.06-.16-.18s0-.12.14-.18a14.31,14.31,0,0,0,3.64-3.13,16.74,16.74,0,0,0,2.22-3.4.24.24,0,0,0,0-.12s0,0-.07,0a11.05,11.05,0,0,0-1.36.21,4.57,4.57,0,0,1-.75.1A1.83,1.83,0,0,1,7.37,63.12Z"/><path class="cls-1" d="M8.05,77.23v4.23c0,.33-.09.5-.28.5s-.27-.11-.38-.32a1.66,1.66,0,0,1-.19-.74.88.88,0,0,1,.08-.34,3.39,3.39,0,0,0,.07-.63c0-.66,0-1.72,0-3.2V74.27a1.5,1.5,0,0,0-.21-1A1.65,1.65,0,0,0,6.8,73c-.07,0-.11-.09-.11-.12s0-.07.1-.11a.57.57,0,0,1,.25,0,1.29,1.29,0,0,1,.56.2q.78.43.78.78a.54.54,0,0,1-.15.33.79.79,0,0,0-.16.43c0,.28,0,.49,0,.62Z"/><path class="cls-1" d="M3.56,89.62a.69.69,0,0,0,.37-.15l.92-.71c.36-.28.65-.51.89-.68a.85.85,0,0,1,.51-.21,1.63,1.63,0,0,1,.74.27q2.6,1.55,5,2.66a2.14,2.14,0,0,1,.41.23.47.47,0,0,1,.19.36.48.48,0,0,1-.12.33.37.37,0,0,1-.26.1,1.3,1.3,0,0,1-.65-.19Q9.6,90.52,7.06,88.81a2.15,2.15,0,0,0-.78-.39.8.8,0,0,0-.47.27c-.31.28-.68.67-1.13,1.17a3.06,3.06,0,0,0-.31.38.46.46,0,0,1-.4.23A1.37,1.37,0,0,1,3.14,90a.78.78,0,0,1-.32-.56q0-.15.09-.15a.45.45,0,0,1,.17.09A1,1,0,0,0,3.56,89.62ZM10.37,86a1,1,0,0,1,.77.34,1,1,0,0,1,.27.7,1.06,1.06,0,0,1-1,1,1,1,0,0,1-.78-.34,1,1,0,0,1-.27-.7,1,1,0,0,1,.35-.77A1,1,0,0,1,10.37,86Zm0,.37a.68.68,0,0,0-.68.67.67.67,0,0,0,.23.5.68.68,0,0,0,.45.17A.68.68,0,0,0,11,87a.66.66,0,0,0-.23-.5A.61.61,0,0,0,10.37,86.33Z"/><path class="cls-1" d="M4.44,98.66a.18.18,0,0,1-.11-.15c0-.09,0-.13.14-.13a.71.71,0,0,1,.2,0A3.09,3.09,0,0,1,6,99a1.3,1.3,0,0,1,.61,1c0,.31-.13.46-.38.46s-.33-.11-.46-.35A3.79,3.79,0,0,0,4.44,98.66Zm1,5.54A1.44,1.44,0,0,0,6,104a20.25,20.25,0,0,0,3.12-2.41,23.31,23.31,0,0,0,2.69-2.93.26.26,0,0,1,.17-.11c.12,0,.18,0,.18.14a.4.4,0,0,1-.07.21,16.32,16.32,0,0,1-2.6,3.2,27.51,27.51,0,0,1-3.07,2.61.94.94,0,0,0-.3.32.32.32,0,0,1-.31.21,1.31,1.31,0,0,1-.78-.46c-.32-.33-.49-.59-.49-.79s0-.24.11-.24a.29.29,0,0,1,.16.09A1.26,1.26,0,0,0,5.42,104.2Z"/><path class="cls-1" d="M13.5,110.9v2.89H2.17V110.9h.35V113H13.15v-2.1Z"/></g></g></svg>