<svg xmlns="http://www.w3.org/2000/svg" width="339.766" height="43.722" viewBox="0 0 339.766 43.722">
  <g id="グループ_822" data-name="グループ 822" transform="translate(-501.075 -438.03)">
    <path id="パス_673" data-name="パス 673" d="M511.334,442.009a13.432,13.432,0,0,1,5.467,1.027q1.792.726,1.792,2.12,0,2.956-1.968,2.956-1.29,0-2.69-2.78-1.03-1.881-2.362-1.881-2.692,0-4.067,2.974a15.5,15.5,0,0,0-1.138,6.432,9.862,9.862,0,0,0,2.254,6.865,5.216,5.216,0,0,0,3.98,1.926,6.3,6.3,0,0,0,3.41-.851,8.943,8.943,0,0,0,2.3-2.3c.1-.173.218-.263.349-.263a.848.848,0,0,1,.436.221c.233.131.352.269.352.415a.661.661,0,0,1-.066.263,8.852,8.852,0,0,1-8.116,4.7,9.563,9.563,0,0,1-7.718-3.41,11.976,11.976,0,0,1,.875-15.592A9.541,9.541,0,0,1,511.334,442.009Z" transform="translate(0 7.902)"/>
    <path id="パス_674" data-name="パス 674" d="M525.669,463.7a.485.485,0,0,1-.549-.546q.13-1.966.131-3.5a7.294,7.294,0,0,1-6.712,4.088,7.374,7.374,0,0,1-4.267-1.224,5.739,5.739,0,0,1-2.448-5.139l.087-4.789v-3.544a20.953,20.953,0,0,0-.173-3.455,1.271,1.271,0,0,0-1.4-1.156l-1.159.042a.973.973,0,0,1-.46-.066.766.766,0,0,1-.108-.439,2.338,2.338,0,0,1-.024-.239c0-.248.155-.388.46-.415q4.089-.551,7.217-1.269c.349,0,.526.152.526.46q-.175,4.264-.176,7.829v4.7a11.744,11.744,0,0,0,.5,4.312,3.21,3.21,0,0,0,3.261,2.162,4.51,4.51,0,0,0,3.938-2.6,6.727,6.727,0,0,0,.938-3.541v-6.324a17.681,17.681,0,0,0-.263-3.41c-.188-.845-.657-1.245-1.4-1.2l-1.2.087h-.155c-.218,0-.34-.185-.37-.549-.015-.146-.024-.224-.024-.239,0-.218.17-.349.5-.394a70.872,70.872,0,0,0,7.044-1.29c.319,0,.481.14.481.415q-.13,3.261-.131,7.874v6.187a20.792,20.792,0,0,0,.263,4.443c.2.537.758.836,1.66.893l.854.045a.456.456,0,0,1,.436.526c0,.334-.131.5-.394.5A67.794,67.794,0,0,0,525.669,463.7Z" transform="translate(14.918 7.989)"/>
    <path id="パス_675" data-name="パス 675" d="M526.356,461.611v4.44q0,5.115.463,5.9c.188.409,1.069.7,2.642.854a.42.42,0,0,1,.394.484c0,.391-.131.588-.394.588q-3.408-.09-5.291-.087-1.989,0-5.4.087-.349,0-.349-.547c0-.3.116-.481.349-.526,1.472-.143,2.3-.43,2.469-.854q.461-.963.463-5.9V449.8a14.386,14.386,0,0,0-.307-3.673,1.212,1.212,0,0,0-1.269-.944h-.173l-1.293.09h-.152q-.3,0-.349-.5v-.2a.475.475,0,0,1,.415-.481,58.866,58.866,0,0,0,7.39-2.012c.323,0,.484.14.484.418-.06,1.678-.089,2.717-.089,3.126a7.667,7.667,0,0,1,3.064-2.887,6.022,6.022,0,0,1,2.756-.744,9.006,9.006,0,0,1,7.566,3.455A11.665,11.665,0,0,1,542,452.842q0,5.379-3.129,8.378a10.162,10.162,0,0,1-7.307,2.642A7.1,7.1,0,0,1,526.356,461.611Zm4.747-17.429a4.83,4.83,0,0,0-3.98,2.3,4.267,4.267,0,0,0-.722,1.812c-.03.248-.045.842-.045,1.774v5.906a8,8,0,0,0,.767,3.911,4.5,4.5,0,0,0,4.025,2.6q2.687,0,4.2-3.04a14.779,14.779,0,0,0,1.269-6.56,11.144,11.144,0,0,0-1.75-6.694A4.468,4.468,0,0,0,531.1,444.183Z" transform="translate(33.923 7.872)"/>
    <path id="パス_676" data-name="パス 676" d="M533.7,451.238a6.983,6.983,0,0,0-.2,1.618,9.739,9.739,0,0,0,2.428,6.954,5.414,5.414,0,0,0,3.98,1.923,7.428,7.428,0,0,0,3.783-.875,8.748,8.748,0,0,0,2.448-2.362.5.5,0,0,1,.439-.218.964.964,0,0,1,.415.176c.236.188.352.343.352.46a1.433,1.433,0,0,1-.221.481,9.5,9.5,0,0,1-3.8,3.544,10.258,10.258,0,0,1-4.485.893,9.761,9.761,0,0,1-7.85-3.455,10.929,10.929,0,0,1-2.493-7.3,11.067,11.067,0,0,1,3.281-8.2,9.784,9.784,0,0,1,7.106-2.866,8.158,8.158,0,0,1,6.8,3.323,8.771,8.771,0,0,1,1.923,5.01,1.349,1.349,0,0,1-.218.765.891.891,0,0,1-.678.218q-4.483-.13-8.617-.131Q535.753,451.194,533.7,451.238Zm.218-1.618c1.49.027,2.589.042,3.3.042q2.4,0,5.073-.194c.263-.03.394-.263.394-.7a7.751,7.751,0,0,0-1.114-3.87,3.072,3.072,0,0,0-2.69-1.553,4.011,4.011,0,0,0-3.3,1.989A10.826,10.826,0,0,0,533.918,449.62Z" transform="translate(54.455 7.902)"/>
    <path id="パス_677" data-name="パス 677" d="M544.818,446.273a7.661,7.661,0,0,1,6.93-4.264,6.984,6.984,0,0,1,4.07,1.269,5.794,5.794,0,0,1,2.472,5.139l-.045,4.986v3.081a17.313,17.313,0,0,0,.349,4.748,1.3,1.3,0,0,0,.875.657,12.1,12.1,0,0,0,1.466.194c.233.045.349.221.349.526,0,.334-.116.5-.349.5l-2.669-.087q-1.357-.045-2.206-.045-.963,0-2.693.045c-1.355.057-2.162.087-2.425.087-.233,0-.349-.17-.349-.5s.116-.526.349-.526a7.236,7.236,0,0,0,1.532-.218,1.279,1.279,0,0,0,.765-.633,17,17,0,0,0,.349-4.748v-6.1a9.86,9.86,0,0,0-.547-3.849,3.333,3.333,0,0,0-3.26-2.254,4.153,4.153,0,0,0-2.425.833,5.589,5.589,0,0,0-1.6,1.729,6.854,6.854,0,0,0-.941,3.586v6.055a20.988,20.988,0,0,0,.263,4.748,1.306,1.306,0,0,0,.941.657c.173.045.684.108,1.529.194.263.03.394.206.394.526,0,.334-.131.5-.394.5q-.547-.022-1.618-.045c-1.472-.057-2.526-.087-3.168-.087q-1.008,0-2.711.045-2.078.085-2.451.087c-.2,0-.3-.17-.3-.5,0-.3.1-.481.3-.526a8.867,8.867,0,0,0,1.618-.239,1.2,1.2,0,0,0,.764-.612,18.666,18.666,0,0,0,.308-4.748v-6.623a13.8,13.8,0,0,0-.308-3.762,1.253,1.253,0,0,0-1.224-.944h-.176l-1.2.09h-.218c-.248,0-.388-.167-.418-.5v-.2c0-.248.185-.406.549-.481a48.114,48.114,0,0,0,7.085-1.968c.349,0,.522.125.522.373Q544.819,443.714,544.818,446.273Z" transform="translate(70.84 7.902)"/>
    <path id="パス_678" data-name="パス 678" d="M562.742,438.03V439.1h-6.264v31.752h6.264v1.069h-8.626V438.03Z" transform="translate(105.333 0)"/>
    <path id="パス_679" data-name="パス 679" d="M572.582,445.774a39.274,39.274,0,0,1-8.576,8.749,1.245,1.245,0,0,1-.63.209.418.418,0,0,1-.472-.472c0-.2.158-.439.472-.717a49.079,49.079,0,0,0,8.558-10.567,3.583,3.583,0,0,0,.612-1.541c0-.466-.415-.923-1.242-1.365-.293-.14-.439-.293-.439-.454q0-.4,1.191-.4a4.482,4.482,0,0,1,2.395,1.12q1.106.82,1.1,1.574a1,1,0,0,1-.648.929,8.386,8.386,0,0,0-1.645,1.905,2.034,2.034,0,0,0,.454.036,15.909,15.909,0,0,0,1.663-.14q.716-.1,4.339-.681a1.834,1.834,0,0,0,1.033-.543,1.065,1.065,0,0,1,.752-.313,4.044,4.044,0,0,1,1.768.961c.663.526,1,.967,1,1.329,0,.281-.23.543-.684.788a1.954,1.954,0,0,0-.788.681,50.341,50.341,0,0,1-7.014,10.185,42.788,42.788,0,0,1-11.618,9.095,1.634,1.634,0,0,1-.788.245c-.313,0-.472-.179-.472-.54,0-.188.134-.361.4-.526a43.411,43.411,0,0,0,10.884-9.361,50.63,50.63,0,0,0,6.629-10.164.713.713,0,0,0,.072-.331c0-.116-.072-.176-.212-.176a32.449,32.449,0,0,0-4.058.648,12.607,12.607,0,0,1-2.222.281A5.386,5.386,0,0,1,572.582,445.774Z" transform="translate(122.787 2.351)"/>
    <path id="パス_680" data-name="パス 680" d="M601.062,445.374c0,.547-.406.821-1.224.821l-4.933-.14q-6.441,0-14.8.684a4.172,4.172,0,0,0-1.926.472,2.015,2.015,0,0,1-1.153.281q-1,0-2.224-1.8a3.933,3.933,0,0,1-.857-2.031c0-.385.1-.576.281-.576s.415.158.648.472a3.081,3.081,0,0,0,2.362,1.365q1.8,0,4.95-.209,7.959-.506,12.86-.576a3.753,3.753,0,0,0,1.854-.367,2.189,2.189,0,0,1,1.084-.281,4.008,4.008,0,0,1,1.365.349Q601.063,444.586,601.062,445.374Z" transform="translate(144.709 10.031)"/>
    <path id="パス_681" data-name="パス 681" d="M587.814,451.2a2.076,2.076,0,0,0,1.1-.472q.367-.264,2.747-2.117c1.051-.83,1.929-1.5,2.643-2.03a2.562,2.562,0,0,1,1.538-.612,4.878,4.878,0,0,1,2.189.788q7.784,4.636,14.837,7.96a6.414,6.414,0,0,1,1.242.681,1.413,1.413,0,0,1,.576,1.069,1.33,1.33,0,0,1-.385.979,1.087,1.087,0,0,1-.77.313,3.9,3.9,0,0,1-1.923-.576q-5.791-3.323-13.368-8.417a6.223,6.223,0,0,0-2.326-1.153,2.469,2.469,0,0,0-1.4.785q-1.366,1.263-3.377,3.517a8.064,8.064,0,0,0-.926,1.12,1.315,1.315,0,0,1-1.173.684,4.082,4.082,0,0,1-2.484-1.332,2.312,2.312,0,0,1-.961-1.678c0-.293.093-.439.281-.439a1.593,1.593,0,0,1,.5.245A3.084,3.084,0,0,0,587.814,451.2Zm20.313-10.952a3.108,3.108,0,0,1,2.081,5.422,3.007,3.007,0,0,1-2.081.806,2.974,2.974,0,0,1-2.311-1.033,3.113,3.113,0,0,1,2.311-5.2Zm0,1.1a2.053,2.053,0,1,0,1.329.525A1.914,1.914,0,0,0,608.127,441.353Z" transform="translate(167.842 4.411)"/>
    <path id="パス_682" data-name="パス 682" d="M599.421,441.524a.549.549,0,0,1-.317-.454.356.356,0,0,1,.4-.4,2.666,2.666,0,0,1,.594.069,9.64,9.64,0,0,1,3.956,1.872,3.939,3.939,0,0,1,1.818,2.974q0,1.366-1.138,1.365c-.535.024-.991-.325-1.365-1.048A11.116,11.116,0,0,0,599.421,441.524Zm2.92,16.533a4.072,4.072,0,0,0,1.612-.681,61.254,61.254,0,0,0,9.34-7.208,68.842,68.842,0,0,0,8.032-8.749.7.7,0,0,1,.49-.317c.361,0,.543.134.543.4a1.327,1.327,0,0,1-.212.63,49.885,49.885,0,0,1-7.748,9.57,86.648,86.648,0,0,1-9.17,7.787,2.537,2.537,0,0,0-.893.962.97.97,0,0,1-.926.612,3.9,3.9,0,0,1-2.326-1.365,4.015,4.015,0,0,1-1.472-2.362c0-.478.108-.717.317-.717a.761.761,0,0,1,.472.278A3.791,3.791,0,0,0,602.341,458.057Z" transform="translate(194.673 5.237)"/>
    <path id="パス_683" data-name="パス 683" d="M611.978,438.03H620.6v33.854h-8.623v-1.066h6.261V439.1h-6.261Z" transform="translate(220.24 0)"/>
  </g>
</svg>
